<svg width="25" height="26" viewBox="0 0 25 26" fill="none" xmlns="http://www.w3.org/2000/svg">
<path d="M15.9029 15.1993C15.8077 15.1042 15.7476 14.974 15.7476 14.8237L15.7476 9.27408L10.198 9.27408C9.90751 9.27408 9.6671 9.03367 9.6671 8.74316C9.6671 8.45266 9.90751 8.21224 10.198 8.21224L16.2785 8.21224C16.569 8.21224 16.8095 8.45266 16.8095 8.74316L16.8095 14.8237C16.8095 15.1142 16.569 15.3546 16.2785 15.3546C16.1333 15.3596 15.9981 15.2945 15.9029 15.1993Z" fill="#475467"/>
<path d="M7.38616 17.6337C7.1808 17.4283 7.1808 17.0878 7.38616 16.8824L15.8158 8.4528C16.0211 8.24744 16.3617 8.24744 16.5671 8.4528C16.7724 8.65815 16.7724 8.99874 16.5671 9.2041L8.13746 17.6337C7.9321 17.8391 7.59152 17.8391 7.38616 17.6337Z" fill="#475467"/>
</svg>
