<svg width="16" height="16" viewBox="0 0 16 16" fill="none" xmlns="http://www.w3.org/2000/svg">
<path d="M3.33333 4.66699H4C4.35362 4.66699 4.69276 4.52652 4.94281 4.27647C5.19286 4.02642 5.33333 3.68728 5.33333 3.33366C5.33333 3.15685 5.40357 2.98728 5.5286 2.86225C5.65362 2.73723 5.82319 2.66699 6 2.66699H10C10.1768 2.66699 10.3464 2.73723 10.4714 2.86225C10.5964 2.98728 10.6667 3.15685 10.6667 3.33366C10.6667 3.68728 10.8071 4.02642 11.0572 4.27647C11.3072 4.52652 11.6464 4.66699 12 4.66699H12.6667C13.0203 4.66699 13.3594 4.80747 13.6095 5.05752C13.8595 5.30756 14 5.6467 14 6.00033V12.0003C14 12.3539 13.8595 12.6931 13.6095 12.9431C13.3594 13.1932 13.0203 13.3337 12.6667 13.3337H3.33333C2.97971 13.3337 2.64057 13.1932 2.39052 12.9431C2.14048 12.6931 2 12.3539 2 12.0003V6.00033C2 5.6467 2.14048 5.30756 2.39052 5.05752C2.64057 4.80747 2.97971 4.66699 3.33333 4.66699" stroke="#CBCBCB" stroke-width="1.5" stroke-linecap="round" stroke-linejoin="round"/>
<path d="M8 10.667C9.10457 10.667 10 9.77156 10 8.66699C10 7.56242 9.10457 6.66699 8 6.66699C6.89543 6.66699 6 7.56242 6 8.66699C6 9.77156 6.89543 10.667 8 10.667Z" stroke="#CBCBCB" stroke-width="1.5" stroke-linecap="round" stroke-linejoin="round"/>
</svg>
