<svg width="20" height="20" viewBox="0 0 20 20" fill="none" xmlns="http://www.w3.org/2000/svg">
<path d="M2.5 2.5H2.72362C3.11844 2.5 3.31619 2.5 3.47722 2.57123C3.6192 2.63403 3.74059 2.73515 3.82812 2.86336C3.92724 3.00855 3.96304 3.20241 4.03448 3.58939L5.83337 13.3334L14.5182 13.3333C14.8958 13.3333 15.0853 13.3333 15.2417 13.2666C15.3799 13.2077 15.4991 13.1122 15.5876 12.9908C15.6877 12.8535 15.7301 12.6697 15.8148 12.3026L15.8154 12.3L17.1231 6.6333L17.1234 6.63211C17.2519 6.07513 17.3164 5.79596 17.2456 5.57699C17.1835 5.38485 17.0529 5.22195 16.8797 5.11827C16.682 5 16.3965 5 15.8239 5H4.58333M15 17.5C14.5398 17.5 14.1667 17.1269 14.1667 16.6667C14.1667 16.2064 14.5398 15.8333 15 15.8333C15.4602 15.8333 15.8333 16.2064 15.8333 16.6667C15.8333 17.1269 15.4602 17.5 15 17.5ZM6.66667 17.5C6.20643 17.5 5.83333 17.1269 5.83333 16.6667C5.83333 16.2064 6.20643 15.8333 6.66667 15.8333C7.1269 15.8333 7.5 16.2064 7.5 16.6667C7.5 17.1269 7.1269 17.5 6.66667 17.5Z" stroke="#04AFFF" stroke-width="2" stroke-linecap="round" stroke-linejoin="round"/>
</svg>
