<svg width="84" height="83" viewBox="0 0 84 83" fill="none" xmlns="http://www.w3.org/2000/svg">
<path d="M60.0471 49.7387L59.2759 54.234C59.2053 54.6454 59.3745 55.0612 59.712 55.3065C60.0496 55.5518 60.497 55.5843 60.8668 55.39L64.9041 53.2676L68.9412 55.39C69.1018 55.4744 69.2769 55.5159 69.4513 55.5159C69.6788 55.5159 69.905 55.4453 70.0959 55.3064C70.4337 55.061 70.6028 54.6454 70.5321 54.234L69.7611 49.7385L73.0273 46.5547C73.3261 46.2634 73.4336 45.8276 73.3047 45.4307C73.1757 45.0337 72.8326 44.7444 72.4195 44.6845L67.9058 44.0284L65.8872 39.9384C65.7024 39.5641 65.3213 39.3271 64.9038 39.3271C64.4864 39.3271 64.1053 39.5641 63.9205 39.9384L61.9016 44.0284L57.388 44.6845C56.9751 44.7444 56.6318 45.0339 56.5029 45.4307C56.3739 45.8275 56.4816 46.2633 56.7802 46.5547L60.0471 49.7387ZM62.788 46.1158C63.145 46.064 63.4538 45.8396 63.6135 45.5159L64.9041 42.9011L66.1945 45.5159C66.3543 45.8396 66.663 46.0639 67.02 46.1158L69.9056 46.5351L67.8175 48.5707C67.559 48.8226 67.4412 49.1854 67.5023 49.5412L67.9952 52.4149L65.4144 51.0582C65.2546 50.9742 65.0794 50.9323 64.9041 50.9323C64.729 50.9323 64.5537 50.9742 64.3939 51.0582L61.813 52.4149L62.306 49.5413C62.3671 49.1854 62.2491 48.8226 61.9908 48.5705L59.9027 46.5351L62.788 46.1158Z" fill="#0094D9"/>
<path d="M13.8479 38.7524L13.0767 43.2476C13.0061 43.6591 13.1752 44.0749 13.5128 44.3202C13.8504 44.5655 14.2979 44.5981 14.6675 44.4037L18.7049 42.2812L22.742 44.4037C22.9025 44.488 23.0777 44.5295 23.2521 44.5295C23.4796 44.5295 23.7058 44.4589 23.8967 44.32C24.2345 44.0747 24.4036 43.6591 24.3328 43.2476L23.5619 38.7522L26.8281 35.5684C27.1269 35.2771 27.2344 34.8413 27.1054 34.4443C26.9765 34.0474 26.6333 33.7581 26.2203 33.6981L21.7066 33.0423L19.688 28.9521C19.5032 28.5778 19.122 28.3408 18.7046 28.3408C18.2872 28.3408 17.9061 28.5778 17.7213 28.9521L15.7024 33.0421L11.1888 33.6981C10.7759 33.7581 10.4326 34.0475 10.3037 34.4443C10.1747 34.8411 10.2823 35.277 10.581 35.5684L13.8479 38.7524ZM16.5888 35.1296C16.9458 35.0778 17.2546 34.8534 17.4142 34.5297L18.7049 31.9149L19.9953 34.5297C20.1551 34.8534 20.4637 35.0777 20.8208 35.1296L23.7064 35.5489L21.6183 37.5845C21.3598 37.8364 21.242 38.1993 21.3031 38.555L21.7959 41.4287L19.2152 40.072C19.0554 39.9881 18.8802 39.9461 18.7049 39.9461C18.5298 39.9461 18.3545 39.9881 18.1947 40.072L15.6138 41.4287L16.1068 38.5551C16.1679 38.1993 16.0499 37.8364 15.7915 37.5845L13.7035 35.5489L16.5888 35.1296Z" fill="#0094D9"/>
<path d="M35.6881 11.2742V12.6071C35.6881 15.7369 37.9633 18.3435 40.9461 18.8649V21.9405C38.2591 22.378 36.1289 24.4912 35.6651 27.1693H34.1305C32.7162 27.1693 32.7162 29.3624 34.1305 29.3624H49.873C51.2872 29.3624 51.2872 27.1693 49.873 27.1693H48.2934C47.837 24.5336 45.7663 22.4455 43.1393 21.9632V18.8647C46.1221 18.3435 48.3973 15.7367 48.3973 12.6069V11.2626C49.7972 11.0743 50.9098 10.512 51.7122 9.58216C53.3356 7.70039 52.9644 5.04769 52.9479 4.93584C52.8681 4.39826 52.4067 4 51.8631 4H47.3007H47.248H36.7848C36.7798 4 36.7751 4.00073 36.7701 4.00073C36.7652 4.00073 36.7605 4 36.7555 4H32.1403C31.5968 4 31.1353 4.39826 31.0557 4.93584C31.0391 5.04783 30.6679 7.70039 32.2914 9.58216C33.1092 10.5304 34.2492 11.0973 35.6881 11.2742ZM46.0514 27.1695H37.907C38.3909 25.3744 40.0332 24.0492 41.9793 24.0492C43.9252 24.0492 45.5674 25.3742 46.0514 27.1695ZM50.0515 8.14967C49.6646 8.59807 49.1102 8.89545 48.3972 9.0399V6.19304H50.7853C50.7337 6.79086 50.559 7.56135 50.0515 8.14967ZM37.8811 6.19304H46.2042V10.1107C46.1993 10.1525 46.1961 10.1949 46.1961 10.2382C46.1961 10.2815 46.1992 10.3237 46.2042 10.3657V12.6071C46.2042 14.9016 44.3373 16.7685 42.0426 16.7685C39.748 16.7685 37.8811 14.9016 37.8811 12.6071V6.19304ZM35.6881 6.19304V9.0551C34.9403 8.91826 34.3606 8.61898 33.9595 8.15859C33.4462 7.56968 33.2702 6.79408 33.2183 6.19304H35.6881Z" fill="#0094D9"/>
<path d="M78.3295 76.8072H76.6361V62.4396C76.6361 60.885 75.3717 59.6203 73.8176 59.6203H54.9504C54.6808 59.6203 54.4207 59.6607 54.1737 59.7317V36.5814C54.1737 35.0269 52.9096 33.7622 51.3557 33.7622H32.4887C30.935 33.7622 29.671 35.0269 29.671 36.5814V48.2369C29.4695 48.1909 29.2609 48.1645 29.0458 48.1645H10.1788C8.62466 48.1645 7.3603 49.4288 7.3603 50.9831V59.5553C7.3603 60.9695 9.55334 60.9695 9.55334 59.5553V50.9831C9.55334 50.6382 9.8339 50.3575 10.1788 50.3575H29.0457C29.3904 50.3575 29.6708 50.6382 29.6708 50.9831V76.8072H9.55334V64.9648C9.55334 63.5506 7.3603 63.5506 7.3603 64.9648V76.8072H5.66683C5.06111 76.8072 4.57031 77.298 4.57031 77.9037C4.57031 78.5094 5.06111 79.0002 5.66683 79.0002H78.3295C78.9353 79.0002 79.4261 78.5094 79.4261 77.9037C79.4261 77.298 78.9351 76.8072 78.3295 76.8072ZM31.8639 76.8072V50.9831V36.5814C31.8639 36.2362 32.1441 35.9552 32.4886 35.9552H51.3557C51.7002 35.9552 51.9806 36.2362 51.9806 36.5814V76.8073H31.8639V76.8072ZM54.3254 76.8072V62.4396C54.3254 62.0944 54.6058 61.8134 54.9504 61.8134H73.8174C74.1623 61.8134 74.4429 62.0944 74.4429 62.4396V76.8072H54.3254Z" fill="#0094D9"/>
</svg>
