<svg width="17" height="18" viewBox="0 0 17 18" fill="none" xmlns="http://www.w3.org/2000/svg">
<path d="M9.20963 10.9478H1.41797C1.12755 10.9478 0.886719 10.7069 0.886719 10.4165V5.89735C0.886719 5.67069 1.02838 5.47234 1.2338 5.39442C1.4463 5.31651 1.68006 5.38028 1.82172 5.55028C2.25381 6.06736 2.92672 6.35777 3.59256 6.33652C4.15922 6.32235 4.68337 6.10987 5.08004 5.73445C5.26421 5.57862 5.41296 5.39444 5.52629 5.18902C5.74588 4.8136 5.85214 4.40276 5.84505 3.98485C5.83089 3.33318 5.54757 2.73818 5.0659 2.3061C4.8959 2.15735 4.83922 1.92359 4.91714 1.71817C4.99505 1.51275 5.1934 1.37109 5.41298 1.37109H10.6263C10.9167 1.37109 11.1576 1.61193 11.1576 1.90234V8.98568C11.1576 10.0765 10.2863 10.9478 9.20963 10.9478ZM1.94922 9.88527H9.20963C9.69839 9.88527 10.0951 9.48861 10.0951 8.99986V2.44777H6.51089C6.7588 2.90819 6.89339 3.42528 6.90755 3.96362C6.92172 4.57987 6.76587 5.18902 6.45421 5.72027C6.28421 6.02485 6.05046 6.31528 5.79546 6.52778C5.2288 7.06611 4.44963 7.38486 3.62087 7.40611C3.03296 7.42736 2.45214 7.27861 1.95631 7.00944V9.88527H1.94922Z" fill="#667085"/>
<path d="M13.4596 15.1982H12.7513C12.4609 15.1982 12.2201 14.9574 12.2201 14.667C12.2201 14.1782 11.8234 13.7816 11.3346 13.7816C10.8459 13.7816 10.4492 14.1782 10.4492 14.667C10.4492 14.9574 10.2084 15.1982 9.91797 15.1982H7.08464C6.79422 15.1982 6.55339 14.9574 6.55339 14.667C6.55339 14.1782 6.15672 13.7816 5.66797 13.7816C5.17922 13.7816 4.78255 14.1782 4.78255 14.667C4.78255 14.9574 4.54172 15.1982 4.2513 15.1982H3.54297C2.07672 15.1982 0.886719 14.0082 0.886719 12.542V10.417C0.886719 10.1266 1.12755 9.88574 1.41797 9.88574H9.20964C9.69839 9.88574 10.0951 9.48908 10.0951 9.00033V4.04199C10.0951 3.75158 10.3359 3.51074 10.6263 3.51074H11.9297C12.6309 3.51074 13.2755 3.88617 13.6225 4.49534L14.8338 6.61325C14.9259 6.77616 14.9259 6.98158 14.8338 7.1445C14.7417 7.30741 14.5646 7.40658 14.3734 7.40658H13.4596C13.3605 7.40658 13.2826 7.48449 13.2826 7.58366V9.70866C13.2826 9.80783 13.3605 9.88574 13.4596 9.88574H15.5846C15.8751 9.88574 16.1159 10.1266 16.1159 10.417V12.542C16.1159 14.0082 14.9259 15.1982 13.4596 15.1982ZM13.2117 14.1357H13.4596C14.338 14.1357 15.0534 13.4203 15.0534 12.542V10.9482H13.4596C12.7796 10.9482 12.2201 10.3887 12.2201 9.70866V7.58366C12.2201 6.90366 12.7726 6.34408 13.4596 6.34408L12.7017 5.0195C12.5459 4.74325 12.2484 4.57324 11.9297 4.57324H11.1576V9.00033C11.1576 10.077 10.2863 10.9482 9.20964 10.9482H1.94922V12.542C1.94922 13.4203 2.66464 14.1357 3.54297 14.1357H3.79087C4.02462 13.3212 4.77547 12.7191 5.66797 12.7191C6.56047 12.7191 7.31132 13.3212 7.54507 14.1357H9.46463C9.69838 13.3212 10.4492 12.7191 11.3417 12.7191C12.2342 12.7191 12.978 13.3212 13.2117 14.1357Z" fill="#667085"/>
<path d="M5.66667 16.6146C4.59 16.6146 3.71875 15.7433 3.71875 14.6667C3.71875 13.59 4.59 12.7188 5.66667 12.7188C6.74333 12.7188 7.61458 13.59 7.61458 14.6667C7.61458 15.7433 6.74333 16.6146 5.66667 16.6146ZM5.66667 13.7813C5.17792 13.7813 4.78125 14.1779 4.78125 14.6667C4.78125 15.1554 5.17792 15.5521 5.66667 15.5521C6.15542 15.5521 6.55208 15.1554 6.55208 14.6667C6.55208 14.1779 6.15542 13.7813 5.66667 13.7813Z" fill="#667085"/>
<path d="M11.3346 16.6146C10.258 16.6146 9.38672 15.7433 9.38672 14.6667C9.38672 13.59 10.258 12.7188 11.3346 12.7188C12.4113 12.7188 13.2826 13.59 13.2826 14.6667C13.2826 15.7433 12.4113 16.6146 11.3346 16.6146ZM11.3346 13.7813C10.8459 13.7813 10.4492 14.1779 10.4492 14.6667C10.4492 15.1554 10.8459 15.5521 11.3346 15.5521C11.8234 15.5521 12.2201 15.1554 12.2201 14.6667C12.2201 14.1779 11.8234 13.7813 11.3346 13.7813Z" fill="#667085"/>
<path d="M15.5833 10.9479H13.4583C12.7783 10.9479 12.2188 10.3883 12.2188 9.70833V7.58333C12.2188 6.90333 12.7783 6.34375 13.4583 6.34375H14.3721C14.5633 6.34375 14.7404 6.44292 14.8325 6.61292L16.0438 8.73792C16.0863 8.81584 16.1146 8.90792 16.1146 9V10.4167C16.1146 10.7071 15.8738 10.9479 15.5833 10.9479ZM13.4583 7.40625C13.3592 7.40625 13.2813 7.48417 13.2813 7.58333V9.70833C13.2813 9.8075 13.3592 9.88542 13.4583 9.88542H15.0521V9.14168L14.0604 7.40625H13.4583Z" fill="#667085"/>
<path d="M3.54036 7.40592C1.68453 7.40592 0.175781 5.89717 0.175781 4.04134C0.175781 3.00717 0.636219 2.05091 1.43664 1.41341C2.03164 0.938826 2.78245 0.676758 3.54036 0.676758C5.3962 0.676758 6.90495 2.18551 6.90495 4.04134C6.90495 5.00467 6.48703 5.92551 5.75745 6.56301C5.1412 7.10842 4.35495 7.40592 3.54036 7.40592ZM3.54036 1.73926C3.0162 1.73926 2.52034 1.91632 2.10243 2.24924C1.55701 2.68132 1.23828 3.34009 1.23828 4.04134C1.23828 5.30926 2.27245 6.34342 3.54036 6.34342C4.09286 6.34342 4.63122 6.13801 5.0633 5.76968C5.55913 5.33051 5.84245 4.70717 5.84245 4.04134C5.84245 2.77342 4.80828 1.73926 3.54036 1.73926Z" fill="#667085"/>
<path d="M2.8331 5.28125C2.65601 5.28125 2.47892 5.18918 2.37975 5.02626C2.231 4.77126 2.30893 4.44541 2.56393 4.29666L3.19435 3.92126V3.15625C3.19435 2.86583 3.43519 2.625 3.7256 2.625C4.01602 2.625 4.25685 2.86583 4.25685 3.15625V4.21875C4.25685 4.40292 4.1577 4.58001 4.00186 4.67209L3.11645 5.20334C3.01728 5.26001 2.92518 5.28125 2.8331 5.28125Z" fill="#667085"/>
</svg>
