<svg width="24" height="24" viewBox="0 0 24 24" fill="none" xmlns="http://www.w3.org/2000/svg">
<g clip-path="url(#clip0_505_2703)">
<path d="M13.5673 6L15.5313 11H8.47531L10.4753 6H13.5673ZM17.6793 11H23.9273C23.8294 10.6475 23.6681 10.3157 23.4513 10.021L21.4043 7.228C21.1253 6.84807 20.761 6.53899 20.3406 6.32569C19.9203 6.11239 19.4557 6.00083 18.9843 6H15.7153L17.6793 11ZM15.6123 13H8.38431L11.9983 23.879L15.6123 13ZM17.7203 13L14.9773 21.255L23.1443 13.923C23.4109 13.6572 23.6259 13.3442 23.7783 13H17.7203ZM6.27631 13H0.228313C0.38721 13.3573 0.611378 13.6819 0.889313 13.957L9.01931 21.257L6.27631 13ZM6.32131 11L8.32131 6H5.01231C4.54094 6.00083 4.07636 6.11239 3.65602 6.32569C3.23567 6.53899 2.87131 6.84807 2.59231 7.228L0.545312 10.021C0.328818 10.3158 0.167855 10.6475 0.0703125 11H6.32131ZM12.9983 0H10.9983V4H12.9983V0ZM19.8423 1.652L18.1543 0.578L16.1543 3.72L17.8423 4.794L19.8423 1.652ZM7.84231 3.72L5.84231 0.578L4.15431 1.652L6.15431 4.794L7.84231 3.72Z" fill="white"/>
</g>
<defs>
<clipPath id="clip0_505_2703">
<rect width="24" height="24" fill="white"/>
</clipPath>
</defs>
</svg>
