<svg width="69" height="68" viewBox="0 0 69 68" fill="none" xmlns="http://www.w3.org/2000/svg">
<g clip-path="url(#clip0_505_3596)">
<path d="M68.6987 21.338C56.786 6.24526 57.2941 6.62337 56.658 6.56175L38.0104 4.07989C33.3097 3.45422 30.1167 4.26742 28.4863 4.41312C27.9391 4.4859 27.5554 4.98328 27.6289 5.52396C27.7026 6.06463 28.2066 6.44461 28.7531 6.37116C30.4067 6.22135 33.3722 5.45649 37.7434 6.03794L50.5489 7.74218C49.5905 7.93516 35.4592 10.7805 34.5002 10.9736L18.4519 7.74218L23.9991 7.00388C24.5463 6.9311 24.93 6.43372 24.8565 5.89304C24.7829 5.35223 24.2784 4.97292 23.7323 5.04583L12.3436 6.56148C12.3419 6.56162 12.3403 6.56188 12.3387 6.56215L12.3237 6.56414C12.3083 6.56627 12.2934 6.56959 12.2782 6.57237C12.2684 6.57423 12.2583 6.57556 12.2487 6.57769C12.2405 6.57941 12.2323 6.58114 12.2242 6.583C12.2128 6.58579 12.2015 6.58911 12.1902 6.59216C12.1727 6.59694 12.1552 6.60159 12.138 6.6073C12.1309 6.60969 12.1242 6.61262 12.1171 6.61514C12.114 6.6162 12.1109 6.6174 12.1079 6.61859C12.098 6.62231 12.0876 6.62577 12.0778 6.62962C12.0598 6.63692 12.0423 6.64502 12.0249 6.65339C12.0172 6.65698 12.0097 6.6603 12.0022 6.66401C11.9937 6.66826 11.9855 6.67238 11.9773 6.67676C11.9694 6.68101 11.9618 6.6858 11.9539 6.69044C11.5197 6.9404 11.7317 6.95806 0.302251 21.3379C0.0646103 21.6391 0.023749 22.0486 0.197678 22.3897C0.600108 23.1787 -0.470215 21.6214 21.5934 50.5594C21.9259 50.9951 22.5528 51.0817 22.9937 50.7531C23.4344 50.4245 23.5221 49.8051 23.1897 49.3694L3.81027 23.9896L19.4696 28.8633C19.8451 29.842 31.3152 59.7349 31.5279 60.2895L26.0099 53.0631C25.6774 52.6275 25.0506 52.5409 24.6096 52.8694C24.1687 53.198 24.0812 53.8174 24.4136 54.2531C30.1916 61.8184 30.7869 62.6024 30.8281 62.6483C31.558 63.4612 32.5676 63.9753 33.5332 64.1363C33.6761 64.1603 35.3513 64.1598 35.4913 64.1328C36.7088 63.8992 37.7372 63.2196 38.2227 62.5878L57.7386 37.0291C58.071 36.5935 57.9833 35.974 57.5426 35.6455C57.1015 35.3171 56.475 35.4037 56.1423 35.8391L37.4724 60.29C38.0688 58.7357 49.0928 30.0056 49.5311 28.8634L65.1905 23.9897L58.9527 32.1587C58.6203 32.5944 58.7078 33.2138 59.1487 33.5424C59.5897 33.8709 60.2165 33.7844 60.549 33.3487C68.9231 22.3713 68.4719 23.0367 68.8024 22.3913C68.9772 22.0499 68.9367 21.6396 68.6987 21.338ZM34.5003 13.4805L46.5623 27.0771H22.4384L34.5003 13.4805ZM2.66212 21.5609L12.1469 9.54258L18.5773 26.5145L2.66212 21.5609ZM14.0264 8.86737C16.006 9.26593 30.2007 12.1243 32.6136 12.6101L20.5826 26.1717L14.0264 8.86737ZM34.6108 62.1753H34.3901L21.6808 29.0527H47.3202L34.6108 62.1753ZM48.418 26.1716L36.3871 12.6101C37.9875 12.2878 52.5133 9.36302 54.9742 8.86737L48.418 26.1716ZM50.4233 26.5142L56.8537 9.54232L66.3387 21.5607L50.4233 26.5142Z" fill="#37BFFF"/>
</g>
<defs>
<clipPath id="clip0_505_3596">
<rect width="68.8193" height="68" fill="white" transform="translate(0.0908203)"/>
</clipPath>
</defs>
</svg>
