<svg width="57" height="57" viewBox="0 0 57 57" fill="none" xmlns="http://www.w3.org/2000/svg">
<path d="M45.8064 26.7063L40.2948 20.6935C39.6524 19.9928 38.7388 19.5908 37.7881 19.5908H19.5437C18.593 19.5908 17.6794 19.9928 17.0371 20.6935L11.5254 26.7063C10.5997 27.716 10.5531 29.2793 11.4169 30.3425L27.2461 49.8247C27.5951 50.2541 28.1125 50.5004 28.6659 50.5004C29.2192 50.5004 29.7366 50.2541 30.0856 49.8247L45.9148 30.3425C46.7787 29.2792 46.7321 27.716 45.8064 26.7063ZM38.092 20.9025L36.6249 25.2061C36.51 25.543 36.69 25.9093 37.027 26.0242C37.0959 26.0476 37.166 26.0588 37.2349 26.0588C37.5032 26.0588 37.7536 25.8901 37.8449 25.6221L39.2583 21.4763C39.2877 21.5049 39.3166 21.5341 39.3445 21.5645L44.8561 27.5773C44.9356 27.6639 45.0016 27.7588 45.0569 27.8584H36.528L30.131 20.8798H37.788C37.8904 20.8799 37.9919 20.8878 38.092 20.9025ZM34.7794 27.8584H22.5524L28.6659 21.1892L34.7794 27.8584ZM27.2007 20.8799L21.3922 27.2164L19.2397 20.9025C19.3398 20.8879 19.4413 20.8799 19.5436 20.8799H27.2007ZM17.9873 21.5645C18.0151 21.5341 18.044 21.5049 18.0735 21.4764L20.2491 27.8584H12.2748C12.3301 27.7589 12.3961 27.664 12.4756 27.5773L17.9873 21.5645ZM12.194 29.1474H35.2812L28.6659 48.5525L22.792 31.3226C22.6772 30.9857 22.311 30.8056 21.974 30.9205C21.637 31.0354 21.457 31.4016 21.5719 31.7385L26.8923 47.345L12.4173 29.5297C12.3218 29.4121 12.2483 29.2828 12.194 29.1474ZM30.4394 47.345L36.6431 29.1474H45.1377C45.0834 29.2828 45.0099 29.4121 44.9144 29.5296L30.4394 47.345Z" fill="#04AFFF"/>
<path d="M28.666 16.7456C29.022 16.7456 29.3105 16.4571 29.3105 16.1011V7.14453C29.3105 6.78858 29.022 6.5 28.666 6.5C28.3101 6.5 28.0215 6.78858 28.0215 7.14453V16.1011C28.0215 16.4571 28.3101 16.7456 28.666 16.7456Z" fill="#04AFFF"/>
<path d="M21.8885 17.0785C22.0014 17.3043 22.229 17.4349 22.4655 17.4349C22.5623 17.4349 22.6607 17.413 22.7532 17.3667C23.0716 17.2075 23.2007 16.8204 23.0414 16.502L20.2856 10.9902C20.1264 10.6718 19.7393 10.5428 19.4209 10.702C19.1025 10.8612 18.9734 11.2483 19.1327 11.5667L21.8885 17.0785Z" fill="#04AFFF"/>
<path d="M34.5791 17.3667C34.6717 17.413 34.77 17.4349 34.8668 17.4349C35.1032 17.4349 35.3309 17.3043 35.4438 17.0785L38.1996 11.5667C38.3589 11.2483 38.2298 10.8612 37.9114 10.702C37.593 10.5428 37.206 10.6718 37.0467 10.9902L34.2909 16.502C34.1316 16.8204 34.2607 17.2076 34.5791 17.3667Z" fill="#04AFFF"/>
<rect x="1.16602" y="1" width="55" height="55" rx="9.5" stroke="#04AFFF" stroke-dasharray="2 2"/>
</svg>
