<svg width="33" height="34" viewBox="0 0 33 34" fill="none" xmlns="http://www.w3.org/2000/svg">
<path d="M19.5473 31.7829C18.8499 31.7829 18.2267 31.2731 17.6213 30.7781C17.2514 30.4752 16.7444 30.0607 16.4997 30.0607C16.2552 30.0607 15.7482 30.4752 15.3783 30.7781C14.7152 31.3202 13.9631 31.9365 13.135 31.7468C12.2805 31.5526 11.8621 30.654 11.4929 29.8617C11.3087 29.4653 11.0296 28.8662 10.8312 28.7702C10.6208 28.6675 9.96772 28.8259 9.53562 28.9297C8.69447 29.1322 7.74159 29.3605 7.06784 28.8232C6.39169 28.2832 6.40372 27.2997 6.41506 26.4324C6.42056 25.99 6.42881 25.3217 6.2865 25.143C6.14591 24.967 5.49519 24.8278 5.06447 24.7357C4.21266 24.5535 3.24809 24.3469 2.86997 23.5631C2.49734 22.7914 2.93219 21.9162 3.31512 21.1442C3.51416 20.744 3.81459 20.1387 3.762 19.9067C3.71456 19.6987 3.19687 19.2968 2.8545 19.0308C2.16116 18.4932 1.375 17.8827 1.375 16.9999C1.375 16.1172 2.16116 15.507 2.85484 14.9687C3.19722 14.703 3.71491 14.3011 3.76234 14.0928C3.81494 13.8608 3.5145 13.2554 3.31581 12.855C2.93253 12.0829 2.49803 11.2081 2.871 10.4357C3.24912 9.65225 4.21369 9.44565 5.06516 9.26346C5.49587 9.17134 6.14659 9.03212 6.28684 8.85646C6.42984 8.67737 6.42159 8.00878 6.41609 7.56637C6.40509 6.69909 6.39306 5.71596 7.06887 5.17593C7.74228 4.63831 8.69584 4.86725 9.53666 5.06937C9.96944 5.17318 10.6219 5.33028 10.8319 5.22921C11.0306 5.13331 11.3094 4.5345 11.494 4.13781C11.8628 3.34512 12.2808 2.4469 13.1354 2.25268C13.9624 2.065 14.7159 2.67893 15.3787 3.22137C15.7489 3.52421 16.2559 3.93878 16.5003 3.93878C16.7447 3.93878 17.2518 3.52421 17.6217 3.22171C18.2851 2.67893 19.0369 2.06362 19.8653 2.25268C20.7195 2.4469 21.1379 3.34546 21.5071 4.13815C21.6917 4.5345 21.9704 5.13365 22.1691 5.22956C22.3798 5.33096 23.0319 5.17353 23.464 5.06971C24.3052 4.86759 25.2584 4.63865 25.9322 5.17628C26.6083 5.71631 26.5963 6.69943 26.5849 7.56706C26.5794 8.00946 26.5712 8.67806 26.7135 8.85646C26.8541 9.03212 27.5048 9.17168 27.9355 9.26381C28.7873 9.446 29.7519 9.65225 30.13 10.436C30.5027 11.2081 30.0678 12.0832 29.6849 12.8553C29.4858 13.2558 29.1854 13.8608 29.238 14.0928C29.2854 14.3011 29.8031 14.703 30.1455 14.9687C30.8388 15.507 31.625 16.1172 31.625 16.9999C31.625 17.8827 30.8388 18.4928 30.1452 19.0311C29.8028 19.2968 29.2851 19.6983 29.2377 19.9073C29.1851 20.1394 29.4855 20.7444 29.6842 21.1448C30.0675 21.9169 30.502 22.7917 30.129 23.5642C29.7509 24.3476 28.7863 24.5542 27.9348 24.736C27.5041 24.8285 26.8534 24.9677 26.7128 25.1433C26.5702 25.3224 26.5784 25.991 26.5839 26.4334C26.5949 27.3004 26.6069 28.2835 25.9311 28.8235C25.2577 29.3612 24.3042 29.1319 23.4633 28.9301C23.0306 28.8263 22.3781 28.6685 22.1681 28.7706C21.9694 28.8662 21.6906 29.4653 21.506 29.8617C21.1372 30.6547 20.7192 31.5529 19.8646 31.7471C19.7574 31.7715 19.6515 31.7829 19.5473 31.7829ZM10.6184 27.364C10.9034 27.364 11.1767 27.41 11.4287 27.5314C12.0691 27.8401 12.4101 28.5726 12.7397 29.2811C12.903 29.6317 13.2426 30.3611 13.4396 30.4058C13.6228 30.4381 14.2209 29.9476 14.5076 29.7132C15.1257 29.2078 15.7644 28.6853 16.4997 28.6853C17.2349 28.6853 17.874 29.2082 18.4917 29.7132C18.7784 29.9476 19.3586 30.4285 19.5604 30.4058C19.7567 30.3608 20.0967 29.6317 20.2596 29.2811C20.5889 28.5726 20.9299 27.8407 21.5707 27.5314C22.2224 27.2168 23.0158 27.4083 23.7841 27.5929C24.1536 27.6816 24.9239 27.8669 25.0724 27.7486C25.2233 27.6283 25.2134 26.8325 25.2086 26.4503C25.1986 25.6624 25.1883 24.8481 25.6379 24.285C26.0848 23.7254 26.8785 23.5556 27.6464 23.3912C28.0225 23.3108 28.8045 23.1434 28.8901 22.9664C28.9699 22.8003 28.6199 22.095 28.4518 21.756C28.0995 21.0462 27.7348 20.3119 27.8963 19.6024C28.0527 18.9142 28.6877 18.4213 29.3012 17.9449C29.6333 17.6877 30.25 17.2092 30.25 16.9999C30.25 16.7906 29.6333 16.3121 29.3019 16.0546C28.688 15.5782 28.0531 15.0856 27.8967 14.397C27.7355 13.6875 28.1002 12.9533 28.4525 12.2434C28.6206 11.9045 28.9709 11.1995 28.8908 11.0331C28.8052 10.8557 28.0232 10.6887 27.6475 10.6082C26.8795 10.4439 26.0855 10.2741 25.6386 9.71481C25.1893 9.15209 25.1996 8.3374 25.2096 7.54987C25.2144 7.16762 25.2244 6.3715 25.0735 6.25118C24.9257 6.13293 24.155 6.31821 23.7847 6.4069C23.0168 6.5915 22.2234 6.78262 21.5713 6.46809C20.9309 6.15906 20.5899 5.42687 20.2603 4.71875C20.097 4.36812 19.7577 3.63868 19.5604 3.594C19.3713 3.56134 18.7787 4.05221 18.492 4.28631C17.8743 4.79196 17.2356 5.31446 16.5003 5.31446C15.7651 5.31446 15.1264 4.79162 14.5083 4.28631C14.2216 4.05187 13.6235 3.5634 13.4396 3.59365C13.243 3.63834 12.903 4.36778 12.7401 4.7184C12.4104 5.42653 12.0697 6.15871 11.4293 6.46775C10.7776 6.78193 9.98422 6.5915 9.21559 6.40656C8.84606 6.31753 8.07503 6.13259 7.92722 6.2505C7.77631 6.37115 7.78628 7.16693 7.79109 7.54918C7.80106 8.33706 7.81137 9.15175 7.36175 9.71412C6.91487 10.2737 6.12116 10.4436 5.35322 10.6079C4.97716 10.6883 4.19512 10.8557 4.10953 11.0327C4.02978 11.1988 4.37972 11.9042 4.54781 12.2431C4.90016 12.9529 5.26487 13.6872 5.10331 14.3967C4.94691 15.0849 4.312 15.5778 3.69841 16.0542C3.36669 16.3121 2.75 16.7906 2.75 16.9999C2.75 17.2092 3.36669 17.6881 3.69806 17.9452C4.312 18.4217 4.94691 18.9139 5.10331 19.6024C5.26453 20.3119 4.89981 21.0458 4.54747 21.756C4.37937 22.095 4.02909 22.8 4.10919 22.9664C4.19478 23.1441 4.97681 23.3112 5.35287 23.3916C6.12047 23.5559 6.91453 23.7257 7.36141 24.2853C7.81069 24.8481 7.80037 25.6624 7.79041 26.4503C7.78559 26.8325 7.77562 27.6287 7.92653 27.749C8.07434 27.8655 8.84503 27.6819 9.21525 27.5929C9.68584 27.4795 10.1667 27.364 10.6184 27.364ZM12.1736 22.2985L21.7986 12.6735C21.8642 12.61 21.9166 12.5342 21.9526 12.4503C21.9887 12.3664 22.0076 12.2762 22.0084 12.1849C22.0092 12.0936 21.9918 12.0031 21.9573 11.9186C21.9227 11.8341 21.8716 11.7574 21.8071 11.6928C21.7425 11.6283 21.6658 11.5772 21.5813 11.5426C21.4968 11.5081 21.4063 11.4907 21.315 11.4915C21.2237 11.4923 21.1335 11.5112 21.0496 11.5473C20.9657 11.5833 20.8899 11.6357 20.8264 11.7013L11.2014 21.3263C11.1358 21.3898 11.0834 21.4656 11.0474 21.5495C11.0113 21.6334 10.9924 21.7236 10.9916 21.8149C10.9908 21.9062 11.0082 21.9967 11.0427 22.0812C11.0773 22.1657 11.1284 22.2424 11.1929 22.307C11.2575 22.3715 11.3342 22.4226 11.4187 22.4572C11.5032 22.4917 11.5937 22.5091 11.685 22.5083C11.7763 22.5075 11.8665 22.4886 11.9504 22.4525C12.0343 22.4165 12.1101 22.3641 12.1736 22.2985ZM13.0625 15.9687C11.736 15.9687 10.6562 14.8893 10.6562 13.5624C10.6562 12.2355 11.736 11.1562 13.0625 11.1562C14.389 11.1562 15.4687 12.2355 15.4687 13.5624C15.4687 14.8893 14.389 15.9687 13.0625 15.9687ZM13.0625 12.5312C12.4939 12.5312 12.0312 12.9938 12.0312 13.5624C12.0312 14.131 12.4939 14.5937 13.0625 14.5937C13.6311 14.5937 14.0937 14.131 14.0937 13.5624C14.0937 12.9938 13.6311 12.5312 13.0625 12.5312ZM19.9375 22.8437C18.611 22.8437 17.5312 21.7639 17.5312 20.4374C17.5312 19.1109 18.611 18.0312 19.9375 18.0312C21.264 18.0312 22.3437 19.1109 22.3437 20.4374C22.3437 21.7639 21.264 22.8437 19.9375 22.8437ZM19.9375 19.4062C19.3689 19.4062 18.9062 19.8688 18.9062 20.4374C18.9062 21.006 19.3689 21.4687 19.9375 21.4687C20.5061 21.4687 20.9687 21.006 20.9687 20.4374C20.9687 19.8688 20.5061 19.4062 19.9375 19.4062Z" fill="url(#paint0_linear_712_3313)"/>
<defs>
<linearGradient id="paint0_linear_712_3313" x1="1.375" y1="19.0161" x2="31.794" y2="18.8517" gradientUnits="userSpaceOnUse">
<stop stop-color="#04AFFF"/>
<stop offset="1" stop-color="#58C1F1"/>
</linearGradient>
</defs>
</svg>
