<svg width="1920" height="263" viewBox="0 0 1920 263" fill="none" xmlns="http://www.w3.org/2000/svg">
<g clip-path="url(#clip0_1614_12532)">
<rect width="1920" height="263" fill="white"/>
<path d="M514.224 90.304C607.024 73.04 696.88 42.096 789.424 23.328C921.248 -3.424 1058.53 -5.04 1190.14 22.704C1318.05 49.6 1450.67 115.2 1577.06 148.528C1689.14 178.096 1811.5 190.272 1920 153.328V0H0V43.76C163.945 105.927 341.781 122.023 514.224 90.304Z" fill="#092F41"/>
<g opacity="0.5">
<path d="M514.224 101.469C607.024 80.1587 696.88 41.9622 789.424 18.7955C921.248 -14.2265 1058.53 -16.2213 1190.14 18.0252C1318.05 51.225 1450.67 132.2 1577.06 173.339C1689.14 209.837 1811.5 224.867 1920 179.264V-10H0V44.0163C163.945 120.753 341.781 140.622 514.224 101.469Z" fill="#092F41"/>
</g>
<g opacity="0.3">
<path d="M514.224 113.104C607.024 87.6579 696.88 42.0477 789.424 14.3845C921.248 -25.0468 1058.53 -27.4288 1190.14 13.4647C1318.05 53.1083 1450.67 149.8 1577.06 198.924C1689.14 242.506 1811.5 260.453 1920 205.999V-20H0V44.5004C163.945 136.131 341.781 159.857 514.224 113.104Z" fill="#092F41"/>
</g>
</g>
<defs>
<clipPath id="clip0_1614_12532">
<rect width="1920" height="263" fill="white"/>
</clipPath>
</defs>
</svg>
