<svg width="1920" height="283" viewBox="0 0 1920 283" fill="none" xmlns="http://www.w3.org/2000/svg">
<rect width="1920" height="283" fill="white"/>
<path d="M514.224 90.304C607.024 73.04 696.88 42.096 789.424 23.328C921.248 -3.424 1058.53 -5.04 1190.14 22.704C1318.05 49.6 1450.67 115.2 1577.06 148.528C1689.14 178.096 1811.5 190.272 1920 153.328V0H0V43.76C163.945 105.927 341.781 122.023 514.224 90.304Z" fill="#E6F5FC"/>
<g opacity="0.5">
<path d="M514.224 111.469C607.024 90.1587 696.88 51.9622 789.424 28.7955C921.248 -4.2265 1058.53 -6.22125 1190.14 28.0252C1318.05 61.225 1450.67 142.2 1577.06 183.339C1689.14 219.837 1811.5 234.867 1920 189.264V0H0V54.0163C163.945 130.753 341.781 150.622 514.224 111.469Z" fill="#E6F5FC"/>
</g>
<g opacity="0.3">
<path d="M514.224 133.104C607.024 107.658 696.88 62.0477 789.424 34.3845C921.248 -5.04683 1058.53 -7.42875 1190.14 33.4647C1318.05 73.1083 1450.67 169.8 1577.06 218.924C1689.14 262.506 1811.5 280.453 1920 225.999V0H0V64.5004C163.945 156.131 341.781 179.857 514.224 133.104Z" fill="#E6F5FC"/>
</g>
</svg>
