<svg width="20" height="20" viewBox="0 0 20 20" fill="none" xmlns="http://www.w3.org/2000/svg">
<path d="M8.33317 3.33366H5.99984C5.06642 3.33366 4.59936 3.33366 4.24284 3.51531C3.92924 3.6751 3.67445 3.92989 3.51466 4.24349C3.33301 4.60001 3.33301 5.06707 3.33301 6.00049V14.0005C3.33301 14.9339 3.33301 15.4004 3.51466 15.7569C3.67445 16.0705 3.92924 16.3257 4.24284 16.4855C4.59901 16.667 5.0655 16.667 5.9971 16.667H14.0023C14.9338 16.667 15.3997 16.667 15.7558 16.4855C16.0694 16.3257 16.3251 16.0703 16.4849 15.7567C16.6663 15.4005 16.6663 14.9345 16.6663 14.0029V11.667M13.333 4.16699L8.33301 9.16699V11.667H10.833L15.833 6.66699M13.333 4.16699L15.833 1.66699L18.333 4.16699L15.833 6.66699M13.333 4.16699L15.833 6.66699" stroke="#04AFFF" stroke-width="1.6" stroke-linecap="round" stroke-linejoin="round"/>
</svg>
