<svg width="20" height="20" viewBox="0 0 20 20" fill="none" xmlns="http://www.w3.org/2000/svg">
<path d="M2.5 5.83301H5" stroke="#2A353D" stroke-width="1.5" stroke-linecap="round" stroke-linejoin="round"/>
<path d="M2.5 14.166H7.5" stroke="#2A353D" stroke-width="1.5" stroke-linecap="round" stroke-linejoin="round"/>
<path d="M15 14.166L17.5 14.166" stroke="#2A353D" stroke-width="1.5" stroke-linecap="round" stroke-linejoin="round"/>
<path d="M12.5 5.83301L17.5 5.83301" stroke="#2A353D" stroke-width="1.5" stroke-linecap="round" stroke-linejoin="round"/>
<path d="M5 5.83301C5 5.05644 5 4.66815 5.12687 4.36187C5.29602 3.95349 5.62048 3.62903 6.02886 3.45988C6.33515 3.33301 6.72343 3.33301 7.5 3.33301C8.27657 3.33301 8.66485 3.33301 8.97114 3.45988C9.37952 3.62903 9.70398 3.95349 9.87313 4.36187C10 4.66815 10 5.05644 10 5.83301C10 6.60958 10 6.99786 9.87313 7.30415C9.70398 7.71253 9.37952 8.03698 8.97114 8.20614C8.66485 8.33301 8.27657 8.33301 7.5 8.33301C6.72343 8.33301 6.33515 8.33301 6.02886 8.20614C5.62048 8.03698 5.29602 7.71253 5.12687 7.30415C5 6.99786 5 6.60958 5 5.83301Z" stroke="#2A353D" stroke-width="1.5"/>
<path d="M10 14.166C10 13.3894 10 13.0012 10.1269 12.6949C10.296 12.2865 10.6205 11.962 11.0289 11.7929C11.3351 11.666 11.7234 11.666 12.5 11.666C13.2766 11.666 13.6649 11.666 13.9711 11.7929C14.3795 11.962 14.704 12.2865 14.8731 12.6949C15 13.0012 15 13.3894 15 14.166C15 14.9426 15 15.3309 14.8731 15.6372C14.704 16.0455 14.3795 16.37 13.9711 16.5391C13.6649 16.666 13.2766 16.666 12.5 16.666C11.7234 16.666 11.3351 16.666 11.0289 16.5391C10.6205 16.37 10.296 16.0455 10.1269 15.6372C10 15.3309 10 14.9426 10 14.166Z" stroke="#2A353D" stroke-width="1.5"/>
</svg>
