<svg width="69" height="68" viewBox="0 0 69 68" fill="none" xmlns="http://www.w3.org/2000/svg">
<g clip-path="url(#clip0_505_3615)">
<path d="M41.6719 25.2344C40.9388 25.2344 40.3438 25.8294 40.3438 26.5625C40.3438 27.2956 40.9388 27.8906 41.6719 27.8906C42.405 27.8906 43 27.2956 43 26.5625C43 25.8294 42.405 25.2344 41.6719 25.2344Z" fill="#37BFFF"/>
<path d="M66.9436 58.9314L49.2158 41.2036C52.1038 36.8535 53.625 31.8159 53.625 26.5625C53.625 11.9159 41.7091 0 27.0625 0C12.4159 0 0.5 11.9159 0.5 26.5625C0.5 41.2091 12.4159 53.125 27.0625 53.125C32.316 53.125 37.3536 51.6036 41.7036 48.7159L46.6037 53.616C46.6044 53.6167 46.6051 53.6173 46.6059 53.6181L59.4313 66.4436C60.4351 67.4472 61.7689 68 63.1875 68C64.6061 68 65.9399 67.4472 66.9432 66.444C67.9471 65.4408 68.5 64.1069 68.5 62.6875C68.5 61.2681 67.9471 59.9342 66.9436 58.9314ZM41.079 45.9169L41.0787 45.9171C36.9792 48.8948 32.1326 50.4688 27.0625 50.4688C13.8806 50.4688 3.15625 39.7444 3.15625 26.5625C3.15625 13.3806 13.8806 2.65625 27.0625 2.65625C40.2444 2.65625 50.9688 13.3806 50.9688 26.5625C50.9688 31.6326 49.3948 36.4792 46.417 40.5789C44.9272 42.6312 43.1314 44.4272 41.079 45.9169ZM43.8654 47.1209C45.24 45.9964 46.4966 44.7399 47.6209 43.3654L51.389 47.1334C50.2431 48.4859 48.9859 49.7432 47.6334 50.889L43.8654 47.1209ZM65.0653 64.5653C64.5633 65.0674 63.8965 65.3438 63.1875 65.3438C62.4785 65.3438 61.8117 65.0674 61.3097 64.5653L49.5166 52.7722C50.8616 51.618 52.118 50.3617 53.2721 49.0167L65.0656 60.8102C65.5674 61.3114 65.8438 61.978 65.8438 62.6875C65.8438 63.397 65.5674 64.0636 65.0653 64.5653Z" fill="#37BFFF"/>
<path d="M27.0625 5.3125C15.3451 5.3125 5.8125 14.8451 5.8125 26.5625C5.8125 38.2799 15.3451 47.8125 27.0625 47.8125C38.7799 47.8125 48.3125 38.2799 48.3125 26.5625C48.3125 14.8451 38.7799 5.3125 27.0625 5.3125ZM27.0625 45.1562C16.8099 45.1562 8.46875 36.8151 8.46875 26.5625C8.46875 16.3099 16.8099 7.96875 27.0625 7.96875C37.3151 7.96875 45.6562 16.3099 45.6562 26.5625C45.6562 36.8151 37.3151 45.1562 27.0625 45.1562Z" fill="#37BFFF"/>
<path d="M41.9461 20.8613C40.8025 17.8847 38.8112 15.3397 36.1874 13.5017C33.5011 11.6198 30.3458 10.625 27.0625 10.625C26.3291 10.625 25.7344 11.2197 25.7344 11.9531C25.7344 12.6865 26.3291 13.2812 27.0625 13.2812C32.521 13.2812 37.5057 16.7102 39.4667 21.8141C39.6696 22.3421 40.1728 22.6662 40.7067 22.6662C40.865 22.6662 41.0261 22.6376 41.1827 22.5775C41.8674 22.3144 42.2092 21.546 41.9461 20.8613Z" fill="#37BFFF"/>
</g>
<defs>
<clipPath id="clip0_505_3615">
<rect width="68" height="68" fill="white" transform="translate(0.5)"/>
</clipPath>
</defs>
</svg>
