<svg width="69" height="68" viewBox="0 0 69 68" fill="none" xmlns="http://www.w3.org/2000/svg">
<g clip-path="url(#clip0_505_3588)">
<path d="M34.512 0.00732458C20.9078 0.00534166 8.61255 8.11449 3.25796 20.6206L2.83418 20.7611L2.99848 21.254C-4.05165 38.6423 4.32887 58.4535 21.7171 65.5036C25.7783 67.1503 30.1196 67.9956 34.502 67.9932C53.2757 67.996 68.4972 52.7791 68.5 34.0053C68.5028 15.2316 53.2859 0.0100157 34.512 0.00732458ZM61.1757 51.1389L59.4301 49.3945V45.3312C59.4321 45.1559 59.3933 44.9825 59.3168 44.8247L54.8977 35.999V31.734C54.8977 31.3553 54.7086 31.0015 54.3935 30.7913L50.9942 28.5251C50.7278 28.3472 50.3985 28.2904 50.0877 28.3687L45.9247 29.4089L38.9324 26.4085L37.9704 19.6688L40.6366 17.0038H46.3598L48.2861 19.8988C48.46 20.1592 48.7341 20.3361 49.043 20.3872L55.8416 21.5203C56.0237 21.5509 56.2104 21.536 56.3855 21.4773L62.647 19.3901C67.8988 29.4683 67.337 41.5897 61.1757 51.1389ZM56.5022 11.1729L54.6598 12.4011L49.5234 11.3734L46.191 10.2641C45.9871 10.1949 45.7675 10.1861 45.5587 10.2392L41.3459 11.2918L39.4989 10.6766L40.8677 7.93901H44.6999C44.8756 7.93915 45.049 7.8985 45.2064 7.82003L49.1269 5.85977C51.8268 7.26906 54.3105 9.05822 56.5022 11.1729ZM22.0912 4.80373L24.8106 6.61668C24.9443 6.70563 25.0953 6.76512 25.2536 6.79118L30.7446 7.70672L30.2087 9.31005L27.3476 10.2653C27.0914 10.3505 26.874 10.5245 26.7346 10.7559L23.4803 16.1789L18.2534 19.3153L10.5483 20.4155C9.98983 20.4944 9.57455 20.9722 9.57384 21.5362V24.9355C9.57384 25.236 9.69338 25.5241 9.90584 25.7366L11.84 27.6708V29.6174L7.12635 26.4742L5.41651 21.3447C8.66963 13.9116 14.6321 7.99679 22.0912 4.80373ZM18.8652 41.9546L13.7436 40.9291L11.84 37.1321V34.4693L16.062 30.2474L17.6245 33.3736C17.8164 33.7578 18.2092 34.0004 18.6386 34.0002H25.929L28.9985 39.1162C29.2033 39.4571 29.5719 39.6656 29.9696 39.6657H33.1196L32.3264 43.6395L28.0365 47.9294C27.8236 48.1417 27.7038 48.4298 27.7034 48.7305V51.5633L23.6242 54.6226C23.339 54.8366 23.171 55.1725 23.171 55.5291V59.6218L21.7614 59.155L19.7717 54.1784V43.065C19.7719 42.5265 19.3928 42.0622 18.8652 41.9546ZM15.4591 59.3733C4.7756 51.3582 0.257515 37.5094 4.15877 24.736L5.10037 27.5597C5.17969 27.7987 5.33634 28.0045 5.54568 28.1444L11.1942 31.9097L9.90584 33.1991C9.69338 33.4116 9.57384 33.6997 9.57384 34.0002V37.3995C9.5737 37.5753 9.61435 37.7487 9.69282 37.906L11.959 42.4384C12.1159 42.7514 12.4087 42.9744 12.7522 43.0424L17.5112 43.993V54.396C17.511 54.5399 17.5384 54.6827 17.5916 54.8164L19.8578 60.4819C19.9819 60.7913 20.236 61.0306 20.5524 61.1357L23.9517 62.2688C24.0653 62.3073 24.1843 62.3271 24.3041 62.3277C24.9299 62.3277 25.4372 61.8203 25.4372 61.1946V56.0956L29.5164 53.0363C29.8016 52.8223 29.9696 52.4864 29.9696 52.1298V49.1996L34.17 44.9992C34.3279 44.841 34.4356 44.6395 34.4793 44.4202L35.6124 38.7547C35.7351 38.141 35.3371 37.5441 34.7234 37.4215C34.6504 37.4069 34.5763 37.3995 34.502 37.3995H30.6109L27.5414 32.2836C27.3366 31.9427 26.968 31.7342 26.5703 31.734H19.3389L17.3922 27.8283C17.2292 27.5022 16.9193 27.2745 16.5594 27.2164C16.1996 27.1542 15.8324 27.2729 15.577 27.5337L14.1062 28.9988V27.2017C14.1062 26.9011 13.9867 26.613 13.7742 26.4006L11.84 24.4664V22.5186L18.7995 21.5248C18.9489 21.5032 19.0927 21.4519 19.2222 21.3741L24.8877 17.9748C25.0466 17.8794 25.1797 17.7462 25.2752 17.5873L28.4592 12.281L31.4607 11.2794C31.7997 11.1682 32.0657 10.9023 32.1769 10.5633L33.31 7.16397C33.5063 6.5698 33.1838 5.92889 32.5896 5.73258C32.5348 5.71445 32.4786 5.70057 32.4216 5.69094L25.8632 4.5975L24.7109 3.82926C31.8413 1.5084 39.5642 1.79564 46.5026 4.63943L44.4324 5.67281H40.1675C39.7359 5.6704 39.3406 5.91345 39.1477 6.29941L36.8815 10.8318C36.6023 11.3918 36.8299 12.0723 37.39 12.3514C37.4377 12.3752 37.487 12.3956 37.5375 12.4125L40.9368 13.5456C41.1408 13.6148 41.3603 13.6236 41.5691 13.5705L45.782 12.5179L48.8685 13.5456C48.9127 13.5614 48.9582 13.5736 49.0045 13.5818L54.67 14.7149C54.9646 14.775 55.2711 14.7146 55.5209 14.5472L58.0999 12.8272C59.3691 14.2409 60.5097 15.7649 61.5082 17.3811L55.9334 19.2394L49.8974 18.2332L47.9031 15.2418C47.6941 14.9284 47.3428 14.7394 46.966 14.7376H40.1675C39.8669 14.7376 39.5788 14.8571 39.3664 15.0696L35.9671 18.4689C35.7147 18.7211 35.5958 19.0776 35.6464 19.4309L36.7795 27.3626C36.8366 27.7548 37.0944 28.0886 37.4594 28.243L45.391 31.6423C45.6182 31.7407 45.8718 31.761 46.1117 31.7001L50.158 30.6882L52.6315 32.3403V36.2664C52.6296 36.4418 52.6684 36.6152 52.7448 36.7729L57.1639 45.5986V49.8636C57.1639 50.1642 57.2835 50.4523 57.4959 50.6647L59.8664 53.0363C49.3536 67.0489 29.4717 69.8861 15.4591 59.3733Z" fill="#37BFFF"/>
</g>
<defs>
<clipPath id="clip0_505_3588">
<rect width="68" height="68" fill="white" transform="translate(0.5)"/>
</clipPath>
</defs>
</svg>
