<svg width="20" height="20" viewBox="0 0 20 20" fill="none" xmlns="http://www.w3.org/2000/svg">
<path d="M16.475 9.37533H13.1083C11.4333 9.37533 10.625 8.63366 10.625 7.10033V3.31699C10.625 1.78366 11.4417 1.04199 13.1083 1.04199H16.475C18.15 1.04199 18.9583 1.78366 18.9583 3.31699V7.09199C18.9583 8.63366 18.1417 9.37533 16.475 9.37533ZM13.1083 2.29199C11.9917 2.29199 11.875 2.60866 11.875 3.31699V7.09199C11.875 7.80866 11.9917 8.11699 13.1083 8.11699H16.475C17.5917 8.11699 17.7083 7.80033 17.7083 7.09199V3.31699C17.7083 2.60033 17.5917 2.29199 16.475 2.29199H13.1083Z" fill="#A8A8A8"/>
<path d="M16.475 18.9583H13.1083C11.4333 18.9583 10.625 18.1417 10.625 16.475V13.1083C10.625 11.4333 11.4417 10.625 13.1083 10.625H16.475C18.15 10.625 18.9583 11.4417 18.9583 13.1083V16.475C18.9583 18.1417 18.1417 18.9583 16.475 18.9583ZM13.1083 11.875C12.125 11.875 11.875 12.125 11.875 13.1083V16.475C11.875 17.4583 12.125 17.7083 13.1083 17.7083H16.475C17.4583 17.7083 17.7083 17.4583 17.7083 16.475V13.1083C17.7083 12.125 17.4583 11.875 16.475 11.875H13.1083Z" fill="#A8A8A8"/>
<path d="M6.8915 9.37533H3.52484C1.84984 9.37533 1.0415 8.63366 1.0415 7.10033V3.31699C1.0415 1.78366 1.85817 1.04199 3.52484 1.04199H6.8915C8.5665 1.04199 9.37484 1.78366 9.37484 3.31699V7.09199C9.37484 8.63366 8.55817 9.37533 6.8915 9.37533ZM3.52484 2.29199C2.40817 2.29199 2.2915 2.60866 2.2915 3.31699V7.09199C2.2915 7.80866 2.40817 8.11699 3.52484 8.11699H6.8915C8.00817 8.11699 8.12484 7.80033 8.12484 7.09199V3.31699C8.12484 2.60033 8.00817 2.29199 6.8915 2.29199H3.52484Z" fill="#A8A8A8"/>
<path d="M6.8915 18.9583H3.52484C1.84984 18.9583 1.0415 18.1417 1.0415 16.475V13.1083C1.0415 11.4333 1.85817 10.625 3.52484 10.625H6.8915C8.5665 10.625 9.37484 11.4417 9.37484 13.1083V16.475C9.37484 18.1417 8.55817 18.9583 6.8915 18.9583ZM3.52484 11.875C2.5415 11.875 2.2915 12.125 2.2915 13.1083V16.475C2.2915 17.4583 2.5415 17.7083 3.52484 17.7083H6.8915C7.87484 17.7083 8.12484 17.4583 8.12484 16.475V13.1083C8.12484 12.125 7.87484 11.875 6.8915 11.875H3.52484Z" fill="#A8A8A8"/>
</svg>
