<svg width="68" height="36" viewBox="0 0 68 36" fill="none" xmlns="http://www.w3.org/2000/svg">
<path d="M33.7422 35.3652C31.4648 35.3652 29.2949 34.9355 27.2324 34.0762C25.2129 33.1738 23.3867 31.8418 21.7539 30.0801C19.8633 28.4902 18.4453 26.6855 17.5 24.666C16.5977 22.6035 16.1465 20.3047 16.1465 17.7695C16.1465 15.1914 16.6191 12.8711 17.5645 10.8086C18.5098 8.70313 19.9277 6.89844 21.8184 5.39453C23.4512 3.71875 25.2773 2.47266 27.2969 1.65625C29.3164 0.796875 31.4648 0.367188 33.7422 0.367188C36.2773 0.367188 38.5547 0.775391 40.5742 1.5918C42.6367 2.4082 44.5273 3.67578 46.2461 5.39453C48.0078 6.89844 49.3184 8.68164 50.1777 10.7441C51.0801 12.8066 51.5312 15.1484 51.5312 17.7695C51.5312 20.3477 51.0801 22.668 50.1777 24.7305C49.3184 26.75 48.0078 28.5547 46.2461 30.1445C44.5703 31.9062 42.7012 33.2168 40.6387 34.0762C38.5762 34.9355 36.2773 35.3652 33.7422 35.3652ZM33.7422 1.65625C31.5938 1.65625 29.5957 2.04297 27.748 2.81641C25.9434 3.58984 24.2461 4.77148 22.6562 6.36133C20.9375 7.7793 19.627 9.45508 18.7246 11.3887C17.8652 13.2793 17.4355 15.4062 17.4355 17.7695C17.4355 20.1328 17.8438 22.2383 18.6602 24.0859C19.5195 25.9336 20.8516 27.6309 22.6562 29.1777C24.1602 30.7676 25.8574 31.9922 27.748 32.8516C29.6387 33.668 31.6367 34.0762 33.7422 34.0762C36.1055 34.0762 38.2324 33.6895 40.123 32.916C42.0137 32.0996 43.7539 30.8535 45.3438 29.1777C47.0195 27.6738 48.2441 25.998 49.0176 24.1504C49.834 22.3027 50.2422 20.1758 50.2422 17.7695C50.2422 15.3203 49.834 13.1719 49.0176 11.3242C48.2012 9.43359 46.998 7.7793 45.4082 6.36133C43.7754 4.77148 42.0137 3.58984 40.123 2.81641C38.2324 2.04297 36.1055 1.65625 33.7422 1.65625ZM33.9355 8.61719C33.377 8.61719 32.8613 8.50977 32.3887 8.29492C31.959 8.08008 31.5938 7.7793 31.293 7.39258C30.9062 7.00586 30.6055 6.59766 30.3906 6.16797C30.2188 5.73828 30.1328 5.24414 30.1328 4.68555C30.1328 4.16992 30.2402 3.67578 30.4551 3.20312C30.6699 2.73047 30.9707 2.36523 31.3574 2.10742C31.6152 1.7207 31.9805 1.41992 32.4531 1.20508C32.9258 0.990234 33.4199 0.882812 33.9355 0.882812C34.4941 0.882812 34.9883 0.990234 35.418 1.20508C35.8477 1.37695 36.2559 1.67773 36.6426 2.10742C37.0293 2.36523 37.3301 2.73047 37.5449 3.20312C37.7598 3.63281 37.8672 4.12695 37.8672 4.68555C37.8672 5.24414 37.7598 5.73828 37.5449 6.16797C37.373 6.59766 37.0723 7.00586 36.6426 7.39258C36.2559 7.82227 35.8477 8.14453 35.418 8.35938C34.9883 8.53125 34.4941 8.61719 33.9355 8.61719ZM33.9355 1.78516C33.5059 1.78516 33.1191 1.87109 32.7754 2.04297C32.4746 2.17188 32.2168 2.38672 32.002 2.6875C32.002 2.6875 31.9805 2.70898 31.9375 2.75195C31.6367 2.9668 31.4004 3.24609 31.2285 3.58984C31.0996 3.89062 31.0352 4.25586 31.0352 4.68555C31.0352 5.11523 31.0996 5.50195 31.2285 5.8457C31.4004 6.14648 31.6367 6.46875 31.9375 6.8125C32.1523 7.11328 32.4316 7.34961 32.7754 7.52148C33.1191 7.65039 33.5059 7.71484 33.9355 7.71484C34.3652 7.71484 34.7305 7.65039 35.0312 7.52148C35.375 7.39258 35.7188 7.15625 36.0625 6.8125C36.4062 6.46875 36.6426 6.14648 36.7715 5.8457C36.9004 5.50195 36.9648 5.11523 36.9648 4.68555C36.9648 4.25586 36.8789 3.89062 36.707 3.58984C36.5781 3.24609 36.3848 2.9668 36.127 2.75195C35.7402 2.4082 35.375 2.17188 35.0312 2.04297C34.7305 1.87109 34.3652 1.78516 33.9355 1.78516ZM25.6855 11.0664C25.6855 11.0664 25.6641 11.0664 25.6211 11.0664C25.1055 10.9375 24.6113 10.7441 24.1387 10.4863C23.709 10.1855 23.3652 9.8418 23.1074 9.45508C22.7207 8.98242 22.4629 8.50977 22.334 8.03711C22.248 7.52148 22.3125 7.04883 22.5273 6.61914C22.6133 6.06055 22.7422 5.58789 22.9141 5.20117C23.1289 4.77148 23.4297 4.36328 23.8164 3.97656C24.375 3.67578 24.8906 3.48242 25.3633 3.39648C25.8789 3.26758 26.373 3.26758 26.8457 3.39648C27.2324 3.43945 27.6621 3.56836 28.1348 3.7832C28.6504 3.99805 29.0801 4.38477 29.4238 4.94336C29.5957 5.45898 29.7461 5.95312 29.875 6.42578C30.0469 6.89844 30.0898 7.39258 30.0039 7.9082C29.875 8.50977 29.6602 9.02539 29.3594 9.45508C29.1016 9.8418 28.7793 10.1211 28.3926 10.293C28.0059 10.5508 27.5977 10.7441 27.168 10.873C26.7812 11.002 26.2871 11.0664 25.6855 11.0664ZM26.0723 4.16992C25.8145 4.16992 25.5352 4.21289 25.2344 4.29883C24.9336 4.38477 24.6328 4.51367 24.332 4.68555C24.0742 4.98633 23.8594 5.30859 23.6875 5.65234C23.5156 5.95312 23.4082 6.33984 23.3652 6.8125C23.1934 7.15625 23.1504 7.52148 23.2363 7.9082C23.3223 8.25195 23.4941 8.5957 23.752 8.93945C24.0098 9.24023 24.3105 9.49805 24.6543 9.71289C24.998 9.92773 25.3633 10.0781 25.75 10.1641C26.2227 10.1641 26.6094 10.1211 26.9102 10.0352C27.2539 9.94922 27.5762 9.79883 27.877 9.58398C27.9199 9.54102 27.9414 9.51953 27.9414 9.51953C27.9414 9.51953 27.9629 9.51953 28.0059 9.51953C28.2637 9.39062 28.4785 9.19727 28.6504 8.93945C28.8652 8.63867 29.0156 8.23047 29.1016 7.71484C29.1875 7.32812 29.166 6.94141 29.0371 6.55469C28.9082 6.16797 28.7793 5.75977 28.6504 5.33008C28.4355 5.07227 28.1777 4.85742 27.877 4.68555C27.5762 4.4707 27.168 4.32031 26.6523 4.23438C26.5664 4.19141 26.4805 4.16992 26.3945 4.16992C26.3086 4.16992 26.2012 4.16992 26.0723 4.16992ZM21.4316 17.5762C21.1738 17.5762 20.916 17.5547 20.6582 17.5117C20.4434 17.4688 20.207 17.4043 19.9492 17.3184C19.6055 17.2324 19.2617 17.082 18.918 16.8672C18.6172 16.6523 18.3164 16.416 18.0156 16.1582C17.9297 16.1152 17.8438 16.0723 17.7578 16.0293C17.7148 15.9434 17.6504 15.8789 17.5645 15.8359C17.5215 15.793 17.4785 15.75 17.4355 15.707C17.4355 15.6641 17.4355 15.6211 17.4355 15.5781C17.3496 15.0195 17.3066 14.5254 17.3066 14.0957C17.3066 13.666 17.3496 13.1719 17.4355 12.6133C17.6504 12.0977 17.8867 11.6465 18.1445 11.2598C18.4453 10.873 18.7891 10.5293 19.1758 10.2285C19.2188 10.2285 19.2402 10.2285 19.2402 10.2285C19.7129 10.0566 20.1641 9.94922 20.5938 9.90625C21.0664 9.86328 21.582 9.90625 22.1406 10.0352C22.7852 10.207 23.3008 10.4648 23.6875 10.8086C24.0742 11.1523 24.3535 11.5605 24.5254 12.0332C24.8691 12.5488 25.041 13.0645 25.041 13.5801C25.041 14.0957 24.998 14.5254 24.9121 14.8691C24.9121 14.9121 24.9121 14.9551 24.9121 14.998C24.9121 14.998 24.8906 14.998 24.8477 14.998C24.5469 15.5566 24.2461 16.0078 23.9453 16.3516C23.6445 16.6953 23.3438 16.9961 23.043 17.2539C23 17.2539 22.957 17.2754 22.9141 17.3184C22.6562 17.4043 22.3984 17.4688 22.1406 17.5117C21.9258 17.5547 21.6895 17.5762 21.4316 17.5762ZM18.2734 15.2559C18.3164 15.2988 18.3594 15.3418 18.4023 15.3848C18.4453 15.4277 18.5098 15.4707 18.5957 15.5137C18.8535 15.7285 19.1113 15.9219 19.3691 16.0938C19.627 16.2656 19.9062 16.3945 20.207 16.4805C20.6797 16.6523 21.0879 16.7383 21.4316 16.7383C21.7754 16.7383 22.1406 16.6738 22.5273 16.5449C22.7852 16.3301 23.043 16.0723 23.3008 15.7715C23.5586 15.4707 23.8164 15.1055 24.0742 14.6758C24.1602 14.2031 24.1816 13.7949 24.1387 13.4512C24.0957 13.0645 23.9668 12.7207 23.752 12.4199C23.623 12.0332 23.4082 11.7109 23.1074 11.4531C22.8066 11.1953 22.3984 11.002 21.8828 10.873C21.5391 10.7871 21.1523 10.7656 20.7227 10.8086C20.3359 10.8086 19.9707 10.873 19.627 11.002C19.3262 11.2168 19.0469 11.4961 18.7891 11.8398C18.5742 12.1406 18.4023 12.4844 18.2734 12.8711C18.1875 13.3008 18.1445 13.6875 18.1445 14.0312C18.1445 14.375 18.1875 14.7832 18.2734 15.2559ZM41.4766 11.1309C41.0898 11.1309 40.7246 11.0664 40.3809 10.9375C40.0371 10.8086 39.7148 10.6367 39.4141 10.4219C39.0273 10.1211 38.6836 9.75586 38.3828 9.32617C38.125 8.85352 37.9531 8.38086 37.8672 7.9082C37.7383 7.34961 37.7383 6.83398 37.8672 6.36133C38.0391 5.8457 38.2969 5.37305 38.6406 4.94336C38.8984 4.55664 39.2207 4.25586 39.6074 4.04102C39.9941 3.82617 40.4668 3.6543 41.0254 3.52539C41.627 3.43945 42.1641 3.48242 42.6367 3.6543C43.1094 3.7832 43.5391 3.93359 43.9258 4.10547C43.9258 4.10547 43.9258 4.12695 43.9258 4.16992C43.9688 4.16992 43.9902 4.16992 43.9902 4.16992C44.334 4.51367 44.6348 4.87891 44.8926 5.26562C45.1934 5.65234 45.4082 6.125 45.5371 6.68359C45.5371 7.24219 45.4941 7.7793 45.4082 8.29492C45.3652 8.81055 45.1289 9.2832 44.6992 9.71289C44.4414 10.0566 44.0977 10.3359 43.668 10.5508C43.2812 10.7656 42.7871 10.9375 42.1855 11.0664C42.0996 11.0664 41.9922 11.0879 41.8633 11.1309C41.7344 11.1309 41.6055 11.1309 41.4766 11.1309ZM41.6699 4.36328C41.584 4.36328 41.498 4.36328 41.4121 4.36328C41.3262 4.36328 41.2402 4.38477 41.1543 4.42773C40.7246 4.4707 40.3594 4.57813 40.0586 4.75C39.8008 4.92187 39.5645 5.1582 39.3496 5.45898C39.0488 5.80273 38.834 6.16797 38.7051 6.55469C38.6191 6.94141 38.6191 7.32812 38.7051 7.71484C38.791 8.10156 38.9414 8.48828 39.1562 8.875C39.3711 9.21875 39.6289 9.49805 39.9297 9.71289C40.2305 9.92773 40.5527 10.0781 40.8965 10.1641C41.2832 10.25 41.6699 10.25 42.0566 10.1641C42.5293 10.0781 42.916 9.9707 43.2168 9.8418C43.5605 9.66992 43.8398 9.43359 44.0547 9.13281C44.3555 8.83203 44.5273 8.48828 44.5703 8.10156C44.6133 7.71484 44.6348 7.26367 44.6348 6.74805C44.5918 6.49023 44.4629 6.21094 44.248 5.91016C44.0762 5.56641 43.8184 5.22266 43.4746 4.87891C43.2168 4.75 42.9375 4.64258 42.6367 4.55664C42.3359 4.42773 42.0137 4.36328 41.6699 4.36328ZM21.3672 25.7617C21.1094 25.7617 20.8301 25.7402 20.5293 25.6973C20.2285 25.6113 19.9277 25.5039 19.627 25.375C19.0254 25.0312 18.5527 24.666 18.209 24.2793C17.8652 23.8496 17.6504 23.3984 17.5645 22.9258C17.4785 22.4102 17.4355 21.916 17.4355 21.4434C17.4785 20.9707 17.5859 20.5195 17.7578 20.0898C18.0586 19.5742 18.4023 19.166 18.7891 18.8652C19.1758 18.5215 19.627 18.2637 20.1426 18.0918C20.3574 18.0059 20.5508 17.9629 20.7227 17.9629C20.8945 17.9629 21.0664 17.9629 21.2383 17.9629C21.582 17.9629 21.9043 18.0059 22.2051 18.0918C22.5488 18.1348 22.8496 18.2637 23.1074 18.4785C23.4941 18.6074 23.8594 18.8652 24.2031 19.252C24.5469 19.6387 24.8262 20.1328 25.041 20.7344C25.2559 21.207 25.3203 21.7012 25.2344 22.2168C25.1914 22.7324 24.998 23.248 24.6543 23.7637C24.4824 24.2363 24.2031 24.6016 23.8164 24.8594C23.4297 25.1172 23 25.332 22.5273 25.5039C22.3555 25.5898 22.1621 25.6543 21.9473 25.6973C21.7754 25.7402 21.582 25.7617 21.3672 25.7617ZM21.2383 18.8008C21.1094 18.8008 20.959 18.8223 20.7871 18.8652C20.6582 18.8652 20.5293 18.8867 20.4004 18.9297C20.0137 19.0586 19.6699 19.252 19.3691 19.5098C19.0684 19.7676 18.7891 20.0898 18.5312 20.4766C18.4453 20.7773 18.3809 21.1211 18.3379 21.5078C18.2949 21.8945 18.3379 22.3027 18.4668 22.7324C18.5527 23.1621 18.7461 23.5273 19.0469 23.8281C19.3477 24.1289 19.6699 24.3652 20.0137 24.5371C20.4434 24.709 20.8301 24.8164 21.1738 24.8594C21.5605 24.9023 21.9043 24.8594 22.2051 24.7305C22.6777 24.5156 23.043 24.3223 23.3008 24.1504C23.5586 23.9785 23.752 23.7207 23.8809 23.377C24.1387 22.9473 24.2891 22.5391 24.332 22.1523C24.418 21.7656 24.3965 21.4004 24.2676 21.0566C24.0527 20.584 23.8164 20.1973 23.5586 19.8965C23.3008 19.5527 23.0215 19.3379 22.7207 19.252C22.5059 19.0801 22.2695 18.9727 22.0117 18.9297C21.7539 18.8438 21.4961 18.8008 21.2383 18.8008ZM46.2461 25.8906C46.0312 25.8906 45.8164 25.8906 45.6016 25.8906C45.3867 25.8477 45.1719 25.7832 44.957 25.6973C44.4844 25.6113 44.0547 25.3965 43.668 25.0527C43.2812 24.666 42.9805 24.2148 42.7656 23.6992C42.5078 23.2695 42.3574 22.8184 42.3145 22.3457C42.2715 21.8301 42.3574 21.293 42.5723 20.7344C42.7871 20.2188 43.0449 19.7891 43.3457 19.4453C43.6895 19.0586 44.0762 18.7793 44.5059 18.6074C44.8926 18.3496 45.3223 18.1992 45.7949 18.1562C46.3105 18.1133 46.8906 18.1992 47.5352 18.4141C48.0078 18.5859 48.4375 18.8223 48.8242 19.123C49.2109 19.4238 49.5332 19.7676 49.791 20.1543C49.834 20.1543 49.8555 20.1758 49.8555 20.2188C49.8984 20.2617 49.9199 20.2832 49.9199 20.2832C50.0059 20.7559 50.0488 21.2285 50.0488 21.7012C50.0488 22.1738 50.0059 22.6465 49.9199 23.1191C49.834 23.5488 49.6191 23.9785 49.2754 24.4082C48.9316 24.7949 48.4805 25.1602 47.9219 25.5039C47.6641 25.6328 47.3848 25.7402 47.084 25.8262C46.7832 25.8691 46.5039 25.8906 46.2461 25.8906ZM46.0527 18.9941C45.8379 18.9941 45.6445 19.0371 45.4727 19.123C45.3008 19.166 45.1504 19.2305 45.0215 19.3164C45.0215 19.3594 45 19.3809 44.957 19.3809C44.957 19.3809 44.9355 19.3809 44.8926 19.3809C44.5488 19.5098 44.248 19.7246 43.9902 20.0254C43.7754 20.2832 43.582 20.627 43.4102 21.0566C43.2383 21.4863 43.1523 21.8945 43.1523 22.2812C43.1953 22.625 43.3242 22.9688 43.5391 23.3125C43.7109 23.7422 43.9473 24.0859 44.248 24.3438C44.5488 24.6016 44.8711 24.7734 45.2148 24.8594C45.3867 24.9023 45.5586 24.9453 45.7305 24.9883C45.9023 25.0312 46.0742 25.0527 46.2461 25.0527C46.4609 25.0527 46.6758 25.0312 46.8906 24.9883C47.1055 24.9023 47.3203 24.8164 47.5352 24.7305C47.8359 24.5586 48.1367 24.3223 48.4375 24.0215C48.7383 23.7207 48.9316 23.3555 49.0176 22.9258C49.1035 22.5391 49.1465 22.1523 49.1465 21.7656C49.1465 21.3789 49.125 20.9922 49.082 20.6055C48.8242 20.3047 48.5449 20.0469 48.2441 19.832C47.9434 19.5742 47.5996 19.3809 47.2129 19.252C46.998 19.166 46.7832 19.1016 46.5684 19.0586C46.3965 19.0156 46.2246 18.9941 46.0527 18.9941ZM41.4121 32.4004C41.2832 32.4004 41.1758 32.4004 41.0898 32.4004C41.0039 32.4004 40.918 32.3789 40.832 32.3359C40.5742 32.293 40.166 32.1855 39.6074 32.0137C39.0918 31.7988 38.7051 31.3691 38.4473 30.7246C38.0605 30.252 37.8242 29.7793 37.7383 29.3066C37.6953 28.834 37.6738 28.3613 37.6738 27.8887C37.6738 27.373 37.8457 26.8789 38.1895 26.4062C38.5332 25.9336 38.877 25.5684 39.2207 25.3105C39.2637 25.2676 39.2852 25.2461 39.2852 25.2461C39.3281 25.2461 39.3496 25.2461 39.3496 25.2461C39.8652 25.0312 40.3164 24.8809 40.7031 24.7949C41.0898 24.709 41.498 24.666 41.9277 24.666C42.6152 24.7949 43.1523 24.9883 43.5391 25.2461C43.9688 25.4609 44.334 25.8047 44.6348 26.2773C44.9785 26.6211 45.2148 27.0293 45.3438 27.502C45.4727 27.9746 45.4727 28.4902 45.3438 29.0488C45.2578 29.6504 45.0645 30.166 44.7637 30.5957C44.4629 31.0254 44.1621 31.3906 43.8613 31.6914C43.8184 31.7344 43.7754 31.7773 43.7324 31.8203C43.7324 31.8203 43.7109 31.8203 43.668 31.8203C43.3242 31.9492 42.959 32.0781 42.5723 32.207C42.1855 32.3359 41.7988 32.4004 41.4121 32.4004ZM39.7363 26.0195C39.4355 26.2344 39.1562 26.5137 38.8984 26.8574C38.6836 27.2012 38.5762 27.5449 38.5762 27.8887C38.5762 28.3184 38.5977 28.7266 38.6406 29.1133C38.6836 29.5 38.8555 29.8867 39.1562 30.2734C39.1562 30.2734 39.1562 30.2949 39.1562 30.3379C39.1992 30.3379 39.2207 30.3379 39.2207 30.3379C39.3496 30.6387 39.543 30.8965 39.8008 31.1113C40.1016 31.2832 40.5098 31.4121 41.0254 31.498C41.3691 31.584 41.7344 31.584 42.1211 31.498C42.5078 31.3691 42.8945 31.2188 43.2812 31.0469C43.582 30.7031 43.8398 30.3809 44.0547 30.0801C44.2695 29.7363 44.4199 29.3281 44.5059 28.8555C44.5918 28.4688 44.5703 28.1035 44.4414 27.7598C44.3555 27.416 44.1836 27.0938 43.9258 26.793C43.668 26.4062 43.3887 26.127 43.0879 25.9551C42.7871 25.7832 42.3789 25.6543 41.8633 25.5684C41.5625 25.5684 41.2402 25.6113 40.8965 25.6973C40.5527 25.7402 40.166 25.8477 39.7363 26.0195ZM26.2012 32.207C25.7285 32.207 25.2988 32.1426 24.9121 32.0137C24.5684 31.8848 24.2461 31.7559 23.9453 31.627C23.4727 31.2402 23.1074 30.8535 22.8496 30.4668C22.5918 30.0371 22.4199 29.5645 22.334 29.0488C22.2051 28.4473 22.1836 27.9102 22.2695 27.4375C22.3984 26.9219 22.6133 26.4707 22.9141 26.084C23.3008 25.6543 23.709 25.332 24.1387 25.1172C24.5684 24.9023 25.0625 24.752 25.6211 24.666C25.707 24.623 25.8145 24.6016 25.9434 24.6016C26.1152 24.5586 26.2871 24.5371 26.459 24.5371C26.7598 24.5371 27.082 24.6016 27.4258 24.7305C27.7695 24.8594 28.0918 25.0527 28.3926 25.3105C28.8223 25.5684 29.166 25.9336 29.4238 26.4062C29.6816 26.8359 29.8105 27.3301 29.8105 27.8887C29.8965 28.2754 29.8965 28.7051 29.8105 29.1777C29.7676 29.6504 29.6387 30.166 29.4238 30.7246C29.4238 30.7246 29.4023 30.7461 29.3594 30.7891C29.3594 30.7891 29.3594 30.8105 29.3594 30.8535C28.9727 31.1973 28.5645 31.4766 28.1348 31.6914C27.748 31.9062 27.3184 32.0781 26.8457 32.207C26.7168 32.207 26.5879 32.207 26.459 32.207C26.373 32.207 26.2871 32.207 26.2012 32.207ZM26.459 25.4395C26.3301 25.4395 26.2227 25.4395 26.1367 25.4395C26.0508 25.4395 25.9648 25.4609 25.8789 25.5039C25.3633 25.5898 24.9121 25.7188 24.5254 25.8906C24.1816 26.0625 23.8594 26.3203 23.5586 26.6641C23.3438 26.9219 23.1934 27.2441 23.1074 27.6309C23.0645 28.0176 23.0859 28.4258 23.1719 28.8555C23.2578 29.2422 23.3652 29.6074 23.4941 29.9512C23.666 30.252 23.9668 30.5742 24.3965 30.918C24.6543 31.0469 24.9766 31.1758 25.3633 31.3047C25.793 31.3906 26.2227 31.3906 26.6523 31.3047C27.082 31.2188 27.4473 31.1113 27.748 30.9824C28.0488 30.8105 28.3496 30.5742 28.6504 30.2734C28.8223 29.8438 28.9297 29.457 28.9727 29.1133C29.0156 28.7266 29.0156 28.3613 28.9727 28.0176C28.9297 27.7168 28.8438 27.373 28.7148 26.9863C28.6289 26.5996 28.3711 26.2773 27.9414 26.0195C27.7266 25.8906 27.4902 25.7617 27.2324 25.6328C26.9746 25.5039 26.7168 25.4395 26.459 25.4395ZM33.7422 34.6562C33.3555 34.6562 32.9043 34.6133 32.3887 34.5273C31.916 34.3984 31.4434 34.0977 30.9707 33.625C30.584 33.2383 30.2832 32.8086 30.0684 32.3359C29.8965 31.8633 29.8105 31.3691 29.8105 30.8535C29.8105 30.3379 29.918 29.8438 30.1328 29.3711C30.3477 28.8984 30.6484 28.5332 31.0352 28.2754C31.4648 27.8457 31.8945 27.5234 32.3242 27.3086C32.7969 27.0508 33.2695 26.9219 33.7422 26.9219C34.2148 26.9219 34.6875 27.0508 35.1602 27.3086C35.6328 27.5234 36.084 27.8457 36.5137 28.2754C36.8574 28.5762 37.1367 28.9629 37.3516 29.4355C37.5664 29.8652 37.6738 30.3379 37.6738 30.8535C37.6738 31.3691 37.5664 31.8633 37.3516 32.3359C37.1797 32.8086 36.9004 33.2383 36.5137 33.625C36.041 34.0977 35.5469 34.3984 35.0312 34.5273C34.5586 34.6133 34.1289 34.6562 33.7422 34.6562ZM33.7422 27.8242C33.3984 27.8242 33.0332 27.9316 32.6465 28.1465C32.3027 28.3184 31.959 28.5762 31.6152 28.9199C31.3145 29.1348 31.0781 29.4141 30.9062 29.7578C30.7773 30.1016 30.7129 30.4668 30.7129 30.8535C30.7129 31.2832 30.7773 31.6914 30.9062 32.0781C31.0781 32.4219 31.3145 32.7441 31.6152 33.0449C31.873 33.3027 32.1738 33.4961 32.5176 33.625C32.8613 33.7109 33.2695 33.7539 33.7422 33.7539C34.2148 33.7539 34.623 33.7109 34.9668 33.625C35.3105 33.4961 35.6113 33.3027 35.8691 33.0449C36.1699 32.7441 36.3848 32.4219 36.5137 32.0781C36.6855 31.6914 36.7715 31.2832 36.7715 30.8535C36.7715 30.4668 36.6855 30.1016 36.5137 29.7578C36.3848 29.4141 36.1914 29.1562 35.9336 28.9844C35.5469 28.5977 35.1602 28.3184 34.7734 28.1465C34.4297 27.9316 34.0859 27.8242 33.7422 27.8242ZM46.5684 17.7695C46.2246 17.7695 45.9023 17.7266 45.6016 17.6406C45.3008 17.5547 45 17.4258 44.6992 17.2539C44.1836 17.082 43.7539 16.8027 43.4102 16.416C43.0664 15.9863 42.8516 15.5352 42.7656 15.0625C42.5508 14.4609 42.4863 13.9453 42.5723 13.5156C42.6582 13.043 42.7871 12.5918 42.959 12.1621C43.2598 11.6465 43.582 11.2383 43.9258 10.9375C44.2695 10.6367 44.6562 10.4004 45.0859 10.2285C45.3867 10.1426 45.6445 10.0996 45.8594 10.0996C46.0742 10.0566 46.2676 10.0352 46.4395 10.0352C46.7402 10.0352 47.0195 10.0781 47.2773 10.1641C47.5352 10.207 47.793 10.2715 48.0508 10.3574C48.6523 10.7012 49.1035 11.0879 49.4043 11.5176C49.748 11.9043 49.9629 12.334 50.0488 12.8066C50.2637 13.2793 50.3496 13.7734 50.3066 14.2891C50.2637 14.7617 50.1133 15.2344 49.8555 15.707C49.6836 16.1367 49.4043 16.5234 49.0176 16.8672C48.6738 17.168 48.2441 17.4258 47.7285 17.6406C47.4707 17.6836 47.2559 17.7266 47.084 17.7695C46.9121 17.7695 46.7402 17.7695 46.5684 17.7695ZM46.4395 10.9375C46.2676 10.9375 46.0957 10.959 45.9238 11.002C45.752 11.002 45.5586 11.0234 45.3438 11.0664C45.043 11.1953 44.7637 11.3887 44.5059 11.6465C44.248 11.8613 43.9902 12.1836 43.7324 12.6133C43.5605 13 43.4531 13.3652 43.4102 13.709C43.3672 14.0098 43.4316 14.3965 43.6035 14.8691C43.6895 15.2129 43.8613 15.5352 44.1191 15.8359C44.377 16.1367 44.6992 16.3516 45.0859 16.4805C45.4727 16.6953 45.8379 16.8457 46.1816 16.9316C46.5684 16.9746 46.998 16.9316 47.4707 16.8027C47.8574 16.6309 48.1797 16.4375 48.4375 16.2227C48.7383 15.9648 48.9531 15.6641 49.082 15.3203C49.2969 14.9336 49.4043 14.5684 49.4043 14.2246C49.4473 13.8379 49.3828 13.4512 49.2109 13.0645C49.125 12.5918 48.9102 12.2051 48.5664 11.9043C48.2656 11.6035 47.9648 11.3457 47.6641 11.1309C47.4922 11.0879 47.2988 11.0449 47.084 11.002C46.8691 10.959 46.6543 10.9375 46.4395 10.9375ZM63.4551 20.8633H50.8867C50.7148 20.8633 50.5645 20.7988 50.4355 20.6699C50.3066 20.541 50.2422 20.3906 50.2422 20.2188C50.2422 20.0469 50.3066 19.8965 50.4355 19.7676C50.5645 19.6387 50.7148 19.5742 50.8867 19.5742H63.4551C63.8418 19.5742 64.1641 19.5312 64.4219 19.4453C64.6797 19.3594 64.8945 19.2305 65.0664 19.0586C65.3242 18.8008 65.4961 18.5859 65.582 18.4141C65.7109 18.1992 65.7754 17.9844 65.7754 17.7695C65.7754 17.6406 65.7109 17.4473 65.582 17.1895C65.4961 16.9316 65.3242 16.6953 65.0664 16.4805C64.9375 16.3945 64.7227 16.3301 64.4219 16.2871C64.1211 16.2012 63.7988 16.1582 63.4551 16.1582H50.8867C50.7148 16.1582 50.5645 16.0938 50.4355 15.9648C50.3066 15.8359 50.2422 15.6855 50.2422 15.5137C50.2422 15.3418 50.3066 15.1914 50.4355 15.0625C50.5645 14.9336 50.7148 14.8691 50.8867 14.8691H63.4551C63.7988 14.8691 64.207 14.9121 64.6797 14.998C65.1523 15.084 65.5605 15.2344 65.9043 15.4492C66.291 15.8359 66.5703 16.2441 66.7422 16.6738C66.957 17.0605 67.0645 17.4258 67.0645 17.7695C67.0645 18.2852 66.9355 18.7363 66.6777 19.123C66.4629 19.4668 66.248 19.7461 66.0332 19.9609C65.6035 20.3906 65.1523 20.6484 64.6797 20.7344C64.207 20.8203 63.7988 20.8633 63.4551 20.8633ZM33.7422 27.8887C32.4961 27.8887 31.293 27.6523 30.1328 27.1797C29.0156 26.6641 27.8984 25.9121 26.7812 24.9238C25.75 23.9785 24.9551 22.9043 24.3965 21.7012C23.8809 20.4551 23.623 19.1445 23.623 17.7695C23.623 16.3945 23.8809 15.127 24.3965 13.9668C24.9121 12.8066 25.707 11.7539 26.7812 10.8086C27.9414 9.86328 29.0801 9.1543 30.1973 8.68164C31.3574 8.20898 32.5391 7.97266 33.7422 7.97266C35.1602 7.97266 36.4707 8.23047 37.6738 8.74609C38.877 9.21875 39.9512 9.90625 40.8965 10.8086C41.8848 11.625 42.6152 12.6133 43.0879 13.7734C43.6035 14.9336 43.8613 16.2656 43.8613 17.7695C43.8613 19.2305 43.6035 20.5625 43.0879 21.7656C42.6152 22.9688 41.8633 24.0215 40.832 24.9238C39.9727 25.9121 38.9414 26.6641 37.7383 27.1797C36.5352 27.6523 35.2031 27.8887 33.7422 27.8887ZM33.7422 9.39062C32.7109 9.39062 31.7012 9.60547 30.7129 10.0352C29.7246 10.4219 28.7363 11.0234 27.748 11.8398C26.8027 12.6562 26.0938 13.5586 25.6211 14.5469C25.1914 15.5352 24.9766 16.6094 24.9766 17.7695C24.9766 18.9727 25.2129 20.0898 25.6855 21.1211C26.1582 22.1523 26.8457 23.0762 27.748 23.8926C28.6934 24.7949 29.6602 25.4609 30.6484 25.8906C31.6797 26.3203 32.7109 26.5352 33.7422 26.5352C34.9883 26.5352 36.127 26.3203 37.1582 25.8906C38.1895 25.418 39.0918 24.7734 39.8652 23.957C40.7246 23.1406 41.3691 22.2168 41.7988 21.1855C42.2715 20.1543 42.5078 19.0156 42.5078 17.7695C42.5078 16.4805 42.293 15.3633 41.8633 14.418C41.4336 13.4297 40.7891 12.5703 39.9297 11.8398C39.1133 11.0234 38.1895 10.4219 37.1582 10.0352C36.127 9.60547 34.9883 9.39062 33.7422 9.39062ZM33.7422 25.3105C33.6562 25.3105 33.5703 25.2891 33.4844 25.2461C33.4414 25.2031 33.3984 25.1602 33.3555 25.1172L26.2012 17.9629C26.1582 17.9199 26.1152 17.877 26.0723 17.834C26.0723 17.748 26.0723 17.6621 26.0723 17.5762C26.0723 17.5332 26.0723 17.4902 26.0723 17.4473C26.1152 17.3613 26.1582 17.2969 26.2012 17.2539L33.3555 10.2285C33.4844 10.1426 33.6133 10.0996 33.7422 10.0996C33.8711 10.0996 34 10.1426 34.1289 10.2285L41.0898 17.2539C41.2188 17.3398 41.2832 17.4688 41.2832 17.6406C41.2832 17.7695 41.2188 17.877 41.0898 17.9629L34.1289 25.1172C34.0859 25.1602 34.0215 25.2031 33.9355 25.2461C33.8926 25.2891 33.8281 25.3105 33.7422 25.3105ZM27.2969 17.5762L33.7422 24.0215L39.9941 17.5762L33.7422 11.3242L27.2969 17.5762ZM16.4688 20.8633H4.73828C4.17969 20.8633 3.68555 20.7988 3.25586 20.6699C2.82617 20.541 2.43945 20.3262 2.0957 20.0254C1.79492 19.7676 1.51562 19.4668 1.25781 19.123C1.04297 18.7363 0.935547 18.2852 0.935547 17.7695C0.935547 17.4258 1.02148 17.0605 1.19336 16.6738C1.4082 16.2441 1.66602 15.8789 1.9668 15.5781C2.00977 15.5352 2.03125 15.5137 2.03125 15.5137C2.07422 15.4707 2.11719 15.4492 2.16016 15.4492C2.54688 15.2773 2.95508 15.1484 3.38477 15.0625C3.85742 14.9336 4.30859 14.8691 4.73828 14.8691H16.4688C16.6406 14.8691 16.791 14.9336 16.9199 15.0625C17.0488 15.1914 17.1133 15.3418 17.1133 15.5137C17.1133 15.6855 17.0488 15.8359 16.9199 15.9648C16.791 16.0938 16.6406 16.1582 16.4688 16.1582H4.73828C4.4375 16.1582 4.11523 16.2012 3.77148 16.2871C3.42773 16.3301 3.12695 16.416 2.86914 16.5449C2.6543 16.7598 2.48242 16.9961 2.35352 17.2539C2.26758 17.4688 2.22461 17.6406 2.22461 17.7695C2.22461 17.9844 2.26758 18.1992 2.35352 18.4141C2.48242 18.5859 2.67578 18.8008 2.93359 19.0586C3.14844 19.2305 3.40625 19.3594 3.70703 19.4453C4.00781 19.5312 4.35156 19.5742 4.73828 19.5742H16.4688C16.6406 19.5742 16.791 19.6387 16.9199 19.7676C17.0488 19.8965 17.1133 20.0469 17.1133 20.2188C17.1133 20.3906 17.0488 20.541 16.9199 20.6699C16.791 20.7988 16.6406 20.8633 16.4688 20.8633Z" fill="black"/>
</svg>
