<svg width="20" height="21" viewBox="0 0 20 21" fill="none" xmlns="http://www.w3.org/2000/svg">
<g clip-path="url(#clip0_629_16575)">
<path d="M19.75 8.13278L16.0547 5.05337V3.50489C16.0547 3.1813 15.7923 2.91896 15.4688 2.91896H13.4934L10.3751 0.320361C10.1578 0.139307 9.84215 0.139307 9.62488 0.320361L6.5066 2.91896H4.53125C4.20766 2.91896 3.94531 3.1813 3.94531 3.50489V5.05337L0.25 8.13278C0.117891 8.24278 0.0390625 8.40708 0.0390625 8.58302V18.8174C0.0390625 19.5713 0.652383 20.1846 1.40625 20.1846H18.5938C19.3476 20.1846 19.9609 19.5713 19.9609 18.8174V8.58302C19.9609 8.40708 19.8821 8.24278 19.75 8.13278ZM16.0547 6.5788L18.3971 8.53075L16.0547 10.0924V6.5788ZM10 1.53321L11.6629 2.91896H8.33711L10 1.53321ZM5.11719 4.09083H14.8828V10.8736L12.3728 12.547C11.6936 11.9703 10.6998 11.9511 10 12.4901C9.30027 11.9511 8.30648 11.9703 7.62723 12.547L5.11719 10.8736V4.09083ZM11.6585 14.4943L10 16.1528L8.34152 14.4943C8.06199 14.2147 8.06199 13.7599 8.34152 13.4804C8.62105 13.2009 9.07582 13.2009 9.35535 13.4804L9.58566 13.7108C9.81449 13.9396 10.1855 13.9396 10.4143 13.7108L10.6446 13.4804C10.9241 13.2009 11.3789 13.2009 11.6584 13.4804C11.938 13.76 11.938 14.2148 11.6585 14.4943ZM3.94531 6.5788V10.0924L1.60293 8.53075L3.94531 6.5788ZM18.7891 18.8174C18.7891 18.9251 18.7014 19.0127 18.5938 19.0127H1.40625C1.29855 19.0127 1.21094 18.9251 1.21094 18.8174V9.67782L7.0127 13.5457C6.86512 14.1635 7.03172 14.8418 7.51289 15.323L9.5857 17.3958C9.81453 17.6246 10.1855 17.6246 10.4143 17.3958L12.4871 15.323C12.9683 14.8418 13.1349 14.1636 12.9873 13.5457L18.7891 9.67782V18.8174Z" fill="#787878"/>
<path d="M11.3672 7.60645C11.6908 7.60645 11.9531 7.34411 11.9531 7.02051C11.9531 6.6969 11.6908 6.43457 11.3672 6.43457C11.0436 6.43457 10.7812 6.6969 10.7812 7.02051C10.7812 7.34411 11.0436 7.60645 11.3672 7.60645Z" fill="#787878"/>
<path d="M8.63281 7.60645C8.95642 7.60645 9.21875 7.34411 9.21875 7.02051C9.21875 6.6969 8.95642 6.43457 8.63281 6.43457C8.30921 6.43457 8.04688 6.6969 8.04688 7.02051C8.04688 7.34411 8.30921 7.60645 8.63281 7.60645Z" fill="#787878"/>
<path d="M8.22562 8.74763C7.99293 8.97256 7.9866 9.34346 8.21148 9.57615C8.68808 10.0692 9.32324 10.3408 9.99999 10.3408C10.6768 10.3408 11.3119 10.0693 11.7885 9.57619C12.0134 9.34349 12.0071 8.97256 11.7744 8.74767H11.7743C11.5416 8.52279 11.1707 8.52912 10.9458 8.76177C10.6921 9.02431 10.3561 9.16896 9.99999 9.16896C9.64386 9.16896 9.30793 9.02435 9.05414 8.76174C8.82922 8.52904 8.45828 8.52275 8.22562 8.74763Z" fill="#787878"/>
</g>
<defs>
<clipPath id="clip0_629_16575">
<rect width="20" height="20" fill="white" transform="translate(0 0.18457)"/>
</clipPath>
</defs>
</svg>
