<svg width="17" height="18" viewBox="0 0 17 18" fill="none" xmlns="http://www.w3.org/2000/svg">
<path d="M8.5013 16.6149C4.30089 16.6149 0.886719 13.2007 0.886719 9.00033C0.886719 4.79991 4.30089 1.38574 8.5013 1.38574C12.7017 1.38574 16.1159 4.79991 16.1159 9.00033C16.1159 13.2007 12.7017 16.6149 8.5013 16.6149ZM8.5013 2.44824C4.8888 2.44824 1.94922 5.38783 1.94922 9.00033C1.94922 12.6128 4.8888 15.5524 8.5013 15.5524C12.1138 15.5524 15.0534 12.6128 15.0534 9.00033C15.0534 5.38783 12.1138 2.44824 8.5013 2.44824Z" fill="#667085"/>
<path d="M8.5 10.2399C8.20958 10.2399 7.96875 9.99908 7.96875 9.70866V6.16699C7.96875 5.87658 8.20958 5.63574 8.5 5.63574C8.79042 5.63574 9.03125 5.87658 9.03125 6.16699V9.70866C9.03125 9.99908 8.79042 10.2399 8.5 10.2399Z" fill="#667085"/>
<path d="M8.5013 12.542C8.40922 12.542 8.31714 12.5208 8.23214 12.4854C8.14714 12.4499 8.06922 12.4004 7.99839 12.3366C7.93464 12.2658 7.88505 12.1949 7.84964 12.1029C7.81422 12.0179 7.79297 11.9258 7.79297 11.8337C7.79297 11.7416 7.81422 11.6495 7.84964 11.5645C7.88505 11.4795 7.93464 11.4016 7.99839 11.3308C8.06922 11.267 8.14714 11.2174 8.23214 11.182C8.40214 11.1112 8.60047 11.1112 8.77047 11.182C8.85547 11.2174 8.93339 11.267 9.00422 11.3308C9.06797 11.4016 9.11755 11.4795 9.15297 11.5645C9.18839 11.6495 9.20964 11.7416 9.20964 11.8337C9.20964 11.9258 9.18839 12.0179 9.15297 12.1029C9.11755 12.1949 9.06797 12.2658 9.00422 12.3366C8.93339 12.4004 8.85547 12.4499 8.77047 12.4854C8.68547 12.5208 8.59339 12.542 8.5013 12.542Z" fill="#667085"/>
</svg>
