<svg width="33" height="32" viewBox="0 0 33 32" fill="none" xmlns="http://www.w3.org/2000/svg">
<path d="M16.5996 18.8C15.0996 18.8 13.7996 17.6 13.7996 16C13.7996 14.5 14.9996 13.2 16.5996 13.2C18.0996 13.2 19.3996 14.4 19.3996 16C19.3996 17.5 18.0996 18.8 16.5996 18.8Z" fill="white"/>
<path fill-rule="evenodd" clip-rule="evenodd" d="M19.9996 9.2H13.1996C12.3996 9.3 11.9996 9.4 11.6996 9.5C11.2996 9.6 10.9996 9.8 10.6996 10.1C10.4622 10.3374 10.3501 10.5748 10.2145 10.8617C10.1788 10.9373 10.1413 11.0166 10.0996 11.1C10.0841 11.1464 10.0663 11.1952 10.0471 11.2475C9.94252 11.5333 9.79961 11.9238 9.79961 12.6V19.4C9.89961 20.2 9.99961 20.6 10.0996 20.9C10.1996 21.3 10.3996 21.6 10.6996 21.9C10.937 22.1374 11.1744 22.2495 11.4613 22.3851C11.537 22.4209 11.6161 22.4583 11.6996 22.5C11.746 22.5155 11.7948 22.5333 11.8471 22.5525C12.1329 22.6571 12.5234 22.8 13.1996 22.8H19.9996C20.7996 22.7 21.1996 22.6 21.4996 22.5C21.8996 22.4 22.1996 22.2 22.4996 21.9C22.737 21.6626 22.8492 21.4252 22.9847 21.1383C23.0205 21.0626 23.0579 20.9835 23.0996 20.9C23.1151 20.8536 23.1329 20.8048 23.1521 20.7525C23.2567 20.4667 23.3996 20.0762 23.3996 19.4V12.6C23.2996 11.8 23.1996 11.4 23.0996 11.1C22.9996 10.7 22.7996 10.4 22.4996 10.1C22.2622 9.86261 22.0248 9.75045 21.7379 9.61488C21.6623 9.57918 21.583 9.54167 21.4996 9.5C21.4532 9.48453 21.4044 9.46666 21.3521 9.44752C21.0663 9.3429 20.6758 9.2 19.9996 9.2ZM16.5996 11.7C14.1996 11.7 12.2996 13.6 12.2996 16C12.2996 18.4 14.1996 20.3 16.5996 20.3C18.9996 20.3 20.8996 18.4 20.8996 16C20.8996 13.6 18.9996 11.7 16.5996 11.7ZM21.9996 11.6C21.9996 12.1523 21.5519 12.6 20.9996 12.6C20.4473 12.6 19.9996 12.1523 19.9996 11.6C19.9996 11.0477 20.4473 10.6 20.9996 10.6C21.5519 10.6 21.9996 11.0477 21.9996 11.6Z" fill="white"/>
<path fill-rule="evenodd" clip-rule="evenodd" d="M0.599609 16C0.599609 7.16344 7.76305 0 16.5996 0C25.4362 0 32.5996 7.16344 32.5996 16C32.5996 24.8366 25.4362 32 16.5996 32C7.76305 32 0.599609 24.8366 0.599609 16ZM13.1996 7.7H19.9996C20.8996 7.8 21.4996 7.9 21.9996 8.1C22.5996 8.4 22.9996 8.6 23.4996 9.1C23.9996 9.6 24.2996 10.1 24.4996 10.6C24.6996 11.1 24.8996 11.7 24.8996 12.6V19.4C24.7996 20.3 24.6996 20.9 24.4996 21.4C24.1996 22 23.9996 22.4 23.4996 22.9C22.9996 23.4 22.4996 23.7 21.9996 23.9C21.4996 24.1 20.8996 24.3 19.9996 24.3H13.1996C12.2996 24.2 11.6996 24.1 11.1996 23.9C10.5996 23.6 10.1996 23.4 9.69961 22.9C9.19961 22.4 8.89961 21.9 8.69961 21.4C8.49961 20.9 8.29961 20.3 8.29961 19.4V12.6C8.39961 11.7 8.49961 11.1 8.69961 10.6C8.99961 10 9.19961 9.6 9.69961 9.1C10.1996 8.6 10.6996 8.3 11.1996 8.1C11.6996 7.9 12.2996 7.7 13.1996 7.7Z" fill="white"/>
</svg>
