<svg width="84" height="83" viewBox="0 0 84 83" fill="none" xmlns="http://www.w3.org/2000/svg">
<mask id="mask0_505_2809" style="mask-type:luminance" maskUnits="userSpaceOnUse" x="7" y="6" width="70" height="71">
<path d="M7 6.5H77V76.5H7V6.5Z" fill="white"/>
</mask>
<g mask="url(#mask0_505_2809)">
<path d="M68.6944 21.0392C73.0456 26.7077 75.6319 33.8019 75.6319 41.5C75.6319 60.0749 60.5739 75.1328 41.9991 75.1328C34.3207 75.1328 27.2433 72.5598 21.582 68.2288" stroke="#0094D9" stroke-width="2.5" stroke-miterlimit="10" stroke-linecap="round" stroke-linejoin="round"/>
<path d="M22.6289 14.0029C28.1053 10.1376 34.7879 7.86707 42.0007 7.86707C49.7021 7.86707 56.7989 10.4556 62.4685 14.8101" stroke="#0094D9" stroke-width="2.5" stroke-miterlimit="10" stroke-linecap="round" stroke-linejoin="round"/>
<path d="M15.2596 61.9019C10.9356 56.2432 8.36719 49.1716 8.36719 41.5C8.36719 34.5645 10.4664 28.1195 14.064 22.7654" stroke="#0094D9" stroke-width="2.5" stroke-miterlimit="10" stroke-linecap="round" stroke-linejoin="round"/>
<path d="M51.937 57.0859C50.0637 67.8134 46.3168 75.1328 42 75.1328C35.8083 75.1328 30.7891 60.0749 30.7891 41.5C30.7891 39.1587 30.8688 36.8733 31.0205 34.6668" stroke="#0094D9" stroke-width="2.5" stroke-miterlimit="10" stroke-linecap="round" stroke-linejoin="round"/>
<path d="M32.0547 25.9731C33.9246 15.2134 37.6774 7.86705 42.0021 7.86705C48.1937 7.86705 53.213 22.925 53.213 41.4999C53.213 43.8421 53.1332 46.1286 52.9813 48.3359" stroke="#0094D9" stroke-width="2.5" stroke-miterlimit="10" stroke-linecap="round" stroke-linejoin="round"/>
<path d="M10.7812 52.7109H48.196" stroke="#0094D9" stroke-width="2.5" stroke-miterlimit="10" stroke-linecap="round" stroke-linejoin="round"/>
<path d="M36.3047 30.2891H73.2188" stroke="#0094D9" stroke-width="2.5" stroke-miterlimit="10" stroke-linecap="round" stroke-linejoin="round"/>
<path d="M10.7812 30.2891H26.959" stroke="#0094D9" stroke-width="2.5" stroke-miterlimit="10" stroke-linecap="round" stroke-linejoin="round"/>
<path d="M56.9453 52.7109C56.9453 50.2947 54.9865 48.3359 52.5703 48.3359C50.1541 48.3359 48.1953 50.2947 48.1953 52.7109C48.1953 55.1272 50.1541 57.0859 52.5703 57.0859C54.9865 57.0859 56.9453 55.1272 56.9453 52.7109Z" stroke="#0094D9" stroke-width="2.5" stroke-miterlimit="10" stroke-linecap="round" stroke-linejoin="round"/>
<path d="M35.7109 30.2891C35.7109 27.8728 33.7522 25.9141 31.3359 25.9141C28.9197 25.9141 26.9609 27.8728 26.9609 30.2891C26.9609 32.7053 28.9197 34.6641 31.3359 34.6641C33.7522 34.6641 35.7109 32.7053 35.7109 30.2891Z" stroke="#0094D9" stroke-width="2.5" stroke-miterlimit="10" stroke-linecap="round" stroke-linejoin="round"/>
<path d="M70.1641 17.7109C70.1641 15.2947 68.2053 13.3359 65.7891 13.3359C63.3728 13.3359 61.4141 15.2947 61.4141 17.7109C61.4141 20.1272 63.3728 22.0859 65.7891 22.0859C68.2053 22.0859 70.1641 20.1272 70.1641 17.7109Z" stroke="#0094D9" stroke-width="2.5" stroke-miterlimit="10" stroke-linecap="round" stroke-linejoin="round"/>
<path d="M22.5859 65.2891C22.5859 62.8728 20.6272 60.9141 18.2109 60.9141C15.7947 60.9141 13.8359 62.8728 13.8359 65.2891C13.8359 67.7053 15.7947 69.6641 18.2109 69.6641C20.6272 69.6641 22.5859 67.7053 22.5859 65.2891Z" stroke="#0094D9" stroke-width="2.5" stroke-miterlimit="10" stroke-linecap="round" stroke-linejoin="round"/>
<path d="M56.9453 52.7109H73.2154" stroke="#0094D9" stroke-width="2.5" stroke-miterlimit="10" stroke-linecap="round" stroke-linejoin="round"/>
</g>
</svg>
