<svg width="38" height="38" viewBox="0 0 38 38" fill="none" xmlns="http://www.w3.org/2000/svg">
<path d="M15.1508 8.20124C14.85 8.20124 14.5492 8.31207 14.3117 8.54957L4.70082 18.1604C4.24165 18.6196 4.24165 19.3796 4.70082 19.8387L14.3117 29.4496C14.7708 29.9087 15.5308 29.9087 15.99 29.4496C16.4492 28.9904 16.4492 28.2304 15.99 27.7712L7.21832 18.9996L15.99 10.2279C16.4492 9.76873 16.4492 9.00874 15.99 8.54957C15.7683 8.31207 15.4517 8.20124 15.1508 8.20124Z" fill="white"/>
<path d="M32.4561 17.8125H5.80859C5.15943 17.8125 4.62109 18.3508 4.62109 19C4.62109 19.6492 5.15943 20.1875 5.80859 20.1875L32.4561 20.1875C33.1053 20.1875 33.6436 19.6492 33.6436 19C33.6436 18.3508 33.1053 17.8125 32.4561 17.8125Z" fill="white"/>
</svg>
