<svg width="33" height="32" viewBox="0 0 33 32" fill="none" xmlns="http://www.w3.org/2000/svg">
<path fill-rule="evenodd" clip-rule="evenodd" d="M0.200195 16C0.200195 7.16344 7.36364 0 16.2002 0C25.0368 0 32.2002 7.16344 32.2002 16C32.2002 24.8366 25.0368 32 16.2002 32C7.36364 32 0.200195 24.8366 0.200195 16ZM8.40019 13.3V24H11.8002V13.3H8.40019ZM8.2002 9.9C8.2002 11 9.0002 11.8 10.1002 11.8C11.2002 11.8 12.0002 11 12.0002 9.9C12.0002 8.8 11.2002 8 10.1002 8C9.1002 8 8.2002 8.8 8.2002 9.9ZM20.8002 24H24.0002V17.4C24.0002 14.1 22.0002 13 20.1002 13C18.4002 13 17.2002 14.1 16.9002 14.8V13.3H13.7002V24H17.1002V18.3C17.1002 16.8 18.1002 16 19.1002 16C20.1002 16 20.8002 16.5 20.8002 18.2V24Z" fill="white"/>
</svg>
