<svg width="20" height="20" viewBox="0 0 20 20" fill="none" xmlns="http://www.w3.org/2000/svg">
<path d="M6.8915 18.9587H3.52484C1.84984 18.9587 1.0415 18.1837 1.0415 16.5837V3.41699C1.0415 1.81699 1.85817 1.04199 3.52484 1.04199H6.8915C8.5665 1.04199 9.37484 1.81699 9.37484 3.41699V16.5837C9.37484 18.1837 8.55817 18.9587 6.8915 18.9587ZM3.52484 2.29199C2.4665 2.29199 2.2915 2.57533 2.2915 3.41699V16.5837C2.2915 17.4253 2.4665 17.7087 3.52484 17.7087H6.8915C7.94984 17.7087 8.12484 17.4253 8.12484 16.5837V3.41699C8.12484 2.57533 7.94984 2.29199 6.8915 2.29199H3.52484Z" fill="#BDBDBD"/>
<path d="M16.475 18.9587H13.1083C11.4333 18.9587 10.625 18.1837 10.625 16.5837V3.41699C10.625 1.81699 11.4417 1.04199 13.1083 1.04199H16.475C18.15 1.04199 18.9583 1.81699 18.9583 3.41699V16.5837C18.9583 18.1837 18.1417 18.9587 16.475 18.9587ZM13.1083 2.29199C12.05 2.29199 11.875 2.57533 11.875 3.41699V16.5837C11.875 17.4253 12.05 17.7087 13.1083 17.7087H16.475C17.5333 17.7087 17.7083 17.4253 17.7083 16.5837V3.41699C17.7083 2.57533 17.5333 2.29199 16.475 2.29199H13.1083Z" fill="#BDBDBD"/>
</svg>
