<svg width="207" height="55" viewBox="0 0 207 55" fill="none" xmlns="http://www.w3.org/2000/svg">
<path fill-rule="evenodd" clip-rule="evenodd" d="M12.5984 4.9668L2.44964 13.7068C-0.816546 16.6818 -0.816546 19.4639 2.44964 22.4428L22.1451 40.1826C25.1559 42.9112 27.7895 46.0291 29.9761 49.4538L29.681 36.0742C29.5865 35.8617 26.041 32.5326 21.6651 28.3456L30.8536 19.1412L25.3956 13.6714L15.8292 22.7222L11.591 18.3503L26.643 4.97073L12.5984 4.9668ZM45.8427 34.1972C39.9045 39.4939 35.383 43.1969 31.3691 49.4538L31.6643 36.0742C31.7587 35.8696 35.6624 32.1824 39.8494 28.2039L45.8427 34.1972Z" fill="#0094D9"/>
<mask id="mask0_1399_1147" style="mask-type:luminance" maskUnits="userSpaceOnUse" x="28" y="4" width="19" height="6">
<path d="M46.6374 4.9668H28.0752L34.8043 9.70079L46.6374 4.9668Z" fill="white"/>
</mask>
<g mask="url(#mask0_1399_1147)">
<path d="M46.6373 4.97168H28.0752V9.70568H46.6373V4.97168Z" fill="url(#paint0_linear_1399_1147)"/>
</g>
<mask id="mask1_1399_1147" style="mask-type:luminance" maskUnits="userSpaceOnUse" x="22" y="9" width="25" height="25">
<path d="M34.8045 9.70117H22.9951L46.6375 33.4814L34.8045 9.70117Z" fill="white"/>
</mask>
<g mask="url(#mask1_1399_1147)">
<path d="M46.6327 9.70605H22.9902V33.4862H46.6327V9.70605Z" fill="url(#paint1_linear_1399_1147)"/>
</g>
<mask id="mask2_1399_1147" style="mask-type:luminance" maskUnits="userSpaceOnUse" x="34" y="9" width="25" height="25">
<path d="M58.4707 9.70117H34.8047L46.6377 33.4814L58.4707 9.70117Z" fill="white"/>
</mask>
<g mask="url(#mask2_1399_1147)">
<path d="M58.4707 9.70605H34.8047V33.4862H58.4707V9.70605Z" fill="url(#paint2_linear_1399_1147)"/>
</g>
<mask id="mask3_1399_1147" style="mask-type:luminance" maskUnits="userSpaceOnUse" x="34" y="4" width="25" height="6">
<path d="M34.8047 9.70079H58.4707L46.6377 4.9668L34.8047 9.70079Z" fill="white"/>
</mask>
<g mask="url(#mask3_1399_1147)">
<path d="M58.4707 4.97168H34.8047V9.70568H58.4707V4.97168Z" fill="url(#paint3_linear_1399_1147)"/>
</g>
<mask id="mask4_1399_1147" style="mask-type:luminance" maskUnits="userSpaceOnUse" x="46" y="9" width="25" height="25">
<path d="M70.2801 9.70117H58.4707L46.6377 33.4814L70.2801 9.70117Z" fill="white"/>
</mask>
<g mask="url(#mask4_1399_1147)">
<path d="M70.2801 9.70605H46.6377V33.4862H70.2801V9.70605Z" fill="url(#paint4_linear_1399_1147)"/>
</g>
<mask id="mask5_1399_1147" style="mask-type:luminance" maskUnits="userSpaceOnUse" x="46" y="4" width="20" height="6">
<path d="M65.1999 4.9668H46.6377L58.4707 9.70079L65.1999 4.9668Z" fill="white"/>
</mask>
<g mask="url(#mask5_1399_1147)">
<path d="M65.1999 4.97168H46.6377V9.70568H65.1999V4.97168Z" fill="url(#paint5_linear_1399_1147)"/>
</g>
<mask id="mask6_1399_1147" style="mask-type:luminance" maskUnits="userSpaceOnUse" x="22" y="4" width="13" height="6">
<path d="M34.8045 9.70079L28.0754 4.9668L22.9951 9.70079H34.8045Z" fill="white"/>
</mask>
<g mask="url(#mask6_1399_1147)">
<path d="M34.7997 4.97168H22.9902V9.70568H34.7997V4.97168Z" fill="url(#paint6_linear_1399_1147)"/>
</g>
<mask id="mask7_1399_1147" style="mask-type:luminance" maskUnits="userSpaceOnUse" x="58" y="4" width="13" height="6">
<path d="M65.1999 4.9668L58.4707 9.70079H70.2801L65.1999 4.9668Z" fill="white"/>
</mask>
<g mask="url(#mask7_1399_1147)">
<path d="M70.2801 4.97168H58.4707V9.70568H70.2801V4.97168Z" fill="url(#paint7_linear_1399_1147)"/>
</g>
<path d="M79.9404 17.7109H206.333" stroke="#020000" stroke-width="1.6101" stroke-miterlimit="2.61"/>
<path fill-rule="evenodd" clip-rule="evenodd" d="M205.435 0.191955L206.5 4.94884H206.17C205.868 3.90074 205.2 2.996 204.287 2.39944C203.432 1.87156 202.244 1.61062 200.714 1.61062V12.84C200.714 13.8738 200.814 14.5436 201.014 14.8495C201.221 15.1495 201.614 15.3294 202.166 15.3744V15.6953H196.611V15.3744C197.175 15.3294 197.556 15.1555 197.763 14.8495C197.97 14.5436 198.063 13.8748 198.063 12.84V1.61062C196.531 1.61062 195.337 1.87356 194.479 2.39944C193.621 2.92532 192.993 3.77511 192.595 4.94884H192.295L193.387 0.191955C193.521 0.283367 193.671 0.350381 193.828 0.38991C194.025 0.430427 194.227 0.448535 194.428 0.443895H204.356C204.564 0.4502 204.773 0.430046 204.977 0.38391C205.135 0.342765 205.287 0.278062 205.426 0.191955M180.937 2.38444V12.726C180.937 13.8178 181.042 14.5256 181.237 14.8255C181.368 14.9995 181.54 15.1392 181.737 15.2326C181.933 15.3261 182.15 15.3706 182.368 15.3624V15.6833H177.941V15.3624C178.161 15.3695 178.38 15.3232 178.578 15.2277C178.776 15.1321 178.949 14.99 179.081 14.8135C179.287 14.4866 179.38 13.7908 179.38 12.714V3.4132C179.38 2.33645 179.275 1.64062 179.081 1.31369C178.949 1.1372 178.776 0.995127 178.578 0.899566C178.38 0.804005 178.161 0.757782 177.941 0.764822V0.443895H183.588V0.764822C183.522 0.78879 183.463 0.830221 183.418 0.884793C183.379 0.941063 183.359 1.00832 183.361 1.07675C183.361 1.18772 183.472 1.34069 183.69 1.53264L183.771 1.60163L188.813 6.24754V2.1505C188.813 1.66761 188.726 1.34668 188.558 1.19372C188.257 0.984743 187.914 0.8426 187.554 0.776818V0.455895H191.753V0.755825C191.531 0.751688 191.311 0.800395 191.112 0.897923C190.913 0.99545 190.74 1.139 190.607 1.31669C190.394 1.64362 190.289 2.33945 190.289 3.4162V12.729C190.289 13.8058 190.394 14.5016 190.607 14.8285C190.74 15.0062 190.913 15.1498 191.112 15.2473C191.311 15.3448 191.531 15.3935 191.753 15.3894V15.6893H187.338V15.3894C187.559 15.3935 187.779 15.3448 187.978 15.2473C188.177 15.1498 188.351 15.0062 188.483 14.8285C188.696 14.5016 188.801 13.8058 188.801 12.729V9.64875L180.937 2.38444ZM163.67 15.6953V15.3744C163.887 15.3785 164.103 15.3315 164.299 15.2372C164.494 15.1429 164.666 15.004 164.798 14.8315C164.998 14.5096 165.098 13.8098 165.098 12.732V3.4342C165.098 2.35245 164.998 1.65261 164.798 1.33469C164.666 1.16225 164.494 1.02329 164.299 0.928998C164.103 0.834707 163.887 0.787719 163.67 0.791815V0.470888H172.968C173.262 0.477639 173.555 0.440232 173.838 0.359915C174.05 0.297962 174.24 0.177357 174.387 0.0119952L175.586 4.99683H175.268C174.804 3.95381 174.026 3.08152 173.043 2.50142C172 1.88851 170.807 1.57703 169.597 1.60163C168.844 1.60163 168.352 1.7096 168.097 1.92855C167.842 2.1475 167.74 2.62438 167.74 3.35621V4.7089H169.417C170.317 4.7089 170.916 4.60992 171.237 4.40897C171.41 4.27049 171.553 4.09779 171.656 3.90168C171.759 3.70556 171.821 3.49026 171.837 3.26924H172.191L173.061 8.575H172.731C172.359 7.53425 171.918 6.82941 171.405 6.45449C170.892 6.07958 170.125 5.89962 169.087 5.89962H167.761V12.3481C167.761 13.3619 167.932 14.0007 168.274 14.2707C168.616 14.5406 169.24 14.6786 170.155 14.6786C171.484 14.6944 172.784 14.2822 173.862 13.5029C175.052 12.5957 175.997 11.4047 176.609 10.0387H176.909L174.992 15.9473C174.833 15.8582 174.661 15.7935 174.483 15.7553C174.205 15.7067 173.924 15.6866 173.643 15.6953H163.67ZM162.434 9.99667H162.764L160.608 15.9473C160.451 15.8572 160.281 15.7924 160.104 15.7553C159.824 15.7068 159.539 15.6867 159.255 15.6953H150.668V15.3744C150.886 15.3785 151.101 15.3315 151.297 15.2372C151.493 15.1429 151.664 15.004 151.796 14.8315C151.996 14.5096 152.096 13.8098 152.096 12.732V3.4342C152.096 2.34845 151.996 1.64861 151.796 1.33469C151.664 1.16225 151.493 1.02329 151.297 0.928998C151.101 0.834707 150.886 0.787719 150.668 0.791815V0.470888H156.199V0.791815C155.65 0.836805 155.275 1.01676 155.071 1.33469C154.867 1.65261 154.756 2.36045 154.756 3.4342V12.2611C154.756 13.3169 154.876 13.9857 155.113 14.2617C155.35 14.5376 155.8 14.6816 156.457 14.6816C157.64 14.704 158.795 14.3221 159.732 13.5988C160.662 12.869 161.566 11.6703 162.443 10.0027L162.434 9.99667ZM149.423 9.99667H149.753L147.597 15.9473C147.44 15.8572 147.27 15.7924 147.093 15.7553C146.813 15.7068 146.528 15.6867 146.244 15.6953H137.657V15.3744C137.875 15.3785 138.09 15.3315 138.286 15.2372C138.482 15.1429 138.653 15.004 138.785 14.8315C138.985 14.5096 139.085 13.8098 139.085 12.732V3.4342C139.085 2.34845 138.985 1.64861 138.785 1.33469C138.653 1.16225 138.482 1.02329 138.286 0.928998C138.09 0.834707 137.875 0.787719 137.657 0.791815V0.470888H143.185V0.791815C142.968 0.787235 142.753 0.834025 142.557 0.928371C142.362 1.02272 142.192 1.16194 142.06 1.33469C141.85 1.65461 141.75 2.35445 141.76 3.4342V12.2611C141.76 13.3169 141.88 13.9857 142.117 14.2617C142.354 14.5376 142.801 14.6816 143.461 14.6816C144.644 14.704 145.799 14.3221 146.736 13.5988C147.656 12.869 148.555 11.6703 149.432 10.0027L149.423 9.99667ZM123.24 15.6953V15.3744C123.457 15.379 123.672 15.3322 123.867 15.2379C124.063 15.1435 124.233 15.0043 124.364 14.8315C124.564 14.5096 124.664 13.8098 124.664 12.732V3.4342C124.664 2.35245 124.564 1.65261 124.364 1.33469C124.233 1.16194 124.063 1.02272 123.867 0.928371C123.672 0.834025 123.457 0.787235 123.24 0.791815V0.470888H132.537C132.83 0.477474 133.122 0.440068 133.404 0.359915C133.618 0.298779 133.809 0.178086 133.956 0.0119952L135.156 4.99683H134.838C134.373 3.95305 133.594 3.08057 132.609 2.50142C131.566 1.88777 130.373 1.57624 129.163 1.60163C128.413 1.60163 127.921 1.7096 127.682 1.92855C127.442 2.1475 127.325 2.62438 127.325 3.35621V4.7089H129.001C129.901 4.7089 130.508 4.60892 130.822 4.40897C130.998 4.27189 131.143 4.09981 131.249 3.90363C131.355 3.70744 131.419 3.49142 131.437 3.26924H131.755L132.621 8.575H132.3C131.929 7.53425 131.485 6.82941 130.975 6.45449C130.465 6.07958 129.694 5.89962 128.656 5.89962H127.331V12.3481C127.331 13.3619 127.502 14.0007 127.841 14.2707C128.179 14.5406 128.809 14.6786 129.724 14.6786C131.054 14.6944 132.354 14.2822 133.431 13.5029C134.622 12.5957 135.566 11.4047 136.179 10.0387H136.479L134.562 15.9473C134.402 15.8592 134.23 15.7945 134.052 15.7553C133.775 15.7067 133.494 15.6866 133.212 15.6953H123.24ZM121.983 11.0314H122.355L120.453 15.9173L119.967 15.8813C119.809 15.8813 119.623 15.8813 119.409 15.8813C119.065 15.8813 118.564 15.9113 117.91 15.9653C117.256 16.0193 116.785 16.0463 116.476 16.0463C113.739 16.0463 111.578 15.2644 109.995 13.7008C108.411 12.1372 107.618 10.0067 107.616 7.3093C107.616 5.04183 108.254 3.27823 109.53 2.01853C110.805 0.758822 112.584 0.12997 114.866 0.13197C115.498 0.139475 116.13 0.181528 116.758 0.25794C117.505 0.34192 118.006 0.38391 118.258 0.38391C118.722 0.400012 119.178 0.265313 119.559 0L120.603 4.52294H120.303C119.883 3.57934 119.203 2.77508 118.342 2.20448C117.474 1.66484 116.469 1.38968 115.447 1.41267C114.747 1.38486 114.049 1.50998 113.402 1.77933C112.755 2.04868 112.175 2.45579 111.701 2.97231C110.756 4.00807 110.283 5.37875 110.283 7.08435C110.23 9.07633 110.936 11.0139 112.259 12.5041C112.855 13.2093 113.599 13.7738 114.438 14.157C115.278 14.5403 116.192 14.7327 117.115 14.7206C118.125 14.7419 119.113 14.4252 119.922 13.8208C120.829 13.0732 121.539 12.1157 121.992 11.0314H121.983ZM97.8775 15.3744V15.6953H93.4535V15.3744C94.1134 15.2284 94.7902 14.6286 95.4841 13.5748L95.5291 13.5088L99.4521 7.51025L96.7078 3.21225C96.3275 2.57014 95.8844 1.96733 95.3851 1.41267C95.0983 1.11482 94.7475 0.886108 94.3593 0.743825V0.422902H99.8511V0.743825C99.6091 0.767604 99.3826 0.873443 99.2092 1.04376C99.0579 1.2167 98.9785 1.44098 98.9873 1.67061C98.9994 1.82434 99.0444 1.97368 99.1192 2.10851C99.2294 2.33619 99.3557 2.5557 99.4971 2.76536L100.997 5.16479L102.721 2.54941C102.869 2.32169 103.004 2.08532 103.123 1.84157C103.196 1.69926 103.24 1.54459 103.255 1.38568C103.258 1.3082 103.242 1.23123 103.208 1.16127C103.175 1.09132 103.125 1.03043 103.063 0.98377C102.866 0.857429 102.646 0.770827 102.415 0.728828V0.407905H106.893V0.728828C106.358 0.870517 105.861 1.12974 105.439 1.48765C104.928 1.9393 104.486 2.46263 104.125 3.04129L101.837 6.49049L105.409 12.2102C106.207 13.4849 106.797 14.3097 107.208 14.6816C107.556 15.0275 108.002 15.257 108.486 15.3384V15.6593H102.607V15.3384C102.855 15.3032 103.085 15.186 103.258 15.0055C103.414 14.8344 103.498 14.6099 103.492 14.3786C103.486 14.2065 103.453 14.0364 103.393 13.8748C103.329 13.6741 103.237 13.4834 103.12 13.3079L100.316 8.84793L97.3766 13.3259C97.2554 13.5251 97.1549 13.7361 97.0767 13.9557C97.0129 14.1224 96.9794 14.2992 96.9777 14.4776C96.9702 14.5876 96.9861 14.698 97.0244 14.8014C97.0626 14.9048 97.1224 14.9989 97.1997 15.0775C97.392 15.2457 97.6322 15.3496 97.8865 15.3744H97.8775ZM80.1816 15.6953V15.3744C80.3986 15.379 80.6137 15.3322 80.8091 15.2379C81.0046 15.1435 81.175 15.0043 81.3064 14.8315C81.5163 14.5096 81.6163 13.8098 81.6063 12.732V3.4342C81.6063 2.35245 81.5063 1.65261 81.3064 1.33469C81.175 1.16194 81.0046 1.02272 80.8091 0.928371C80.6137 0.834025 80.3986 0.787235 80.1816 0.791815V0.470888H89.4795C89.7723 0.477474 90.0645 0.440068 90.3463 0.359915C90.5596 0.298779 90.751 0.178086 90.8982 0.0119952L92.0979 4.99683H91.7799C91.3154 3.95305 90.5363 3.08057 89.5514 2.50142C88.5082 1.88821 87.3151 1.57671 86.1053 1.60163C85.3554 1.60163 84.8635 1.7096 84.6236 1.92855C84.3837 2.1475 84.2667 2.62438 84.2667 3.35621V4.7089H85.9433C86.8431 4.7089 87.45 4.60892 87.7639 4.40897C87.9397 4.27189 88.0851 4.09981 88.1909 3.90363C88.2967 3.70744 88.3607 3.49142 88.3787 3.26924H88.6967L89.5635 8.575H89.2335C88.8616 7.53425 88.4207 6.82941 87.9108 6.45449C87.401 6.07958 86.6301 5.89962 85.5894 5.89962H84.2667V12.3481C84.2667 13.3619 84.4376 14.0007 84.7766 14.2707C85.1155 14.5406 85.7454 14.6786 86.6601 14.6786C87.989 14.6944 89.2878 14.2822 90.3643 13.5029C91.555 12.595 92.5004 11.4042 93.1146 10.0387H93.4145L91.51 15.9473C91.3501 15.8592 91.1784 15.7945 91.0001 15.7553C90.723 15.7067 90.4416 15.6866 90.1603 15.6953H80.1816Z" fill="#0094D9"/>
<path fill-rule="evenodd" clip-rule="evenodd" d="M192.664 37.5598V37.3649C192.836 37.383 193.009 37.3563 193.166 37.2874C193.324 37.2186 193.461 37.1098 193.564 36.972C193.771 36.5602 193.861 36.0997 193.825 35.6403V29.2518C193.855 28.7238 193.752 28.1969 193.525 27.7191C193.439 27.5566 193.309 27.4217 193.15 27.3299C192.991 27.238 192.809 27.1931 192.625 27.2002H192.58L192.56 26.9603L195.58 26.6604C195.758 26.9364 195.888 27.2407 195.964 27.5602C196.072 27.9886 196.138 28.4266 196.162 28.8678C196.828 28.1486 197.613 27.55 198.483 27.0983C199.244 26.7095 200.085 26.5041 200.94 26.4984C201.989 26.4984 202.739 26.7803 203.168 27.3352C203.597 27.8901 203.822 28.8978 203.822 30.3555V34.7855C203.822 35.7992 203.916 36.4521 204.104 36.744C204.365 37.0829 204.75 37.305 205.175 37.3619V37.5568H200.196V37.3619C200.39 37.3632 200.583 37.3185 200.757 37.2314C200.931 37.1444 201.082 37.0175 201.197 36.861C201.385 36.5691 201.479 36.0012 201.479 35.1574V30.4875C201.479 29.4877 201.345 28.8089 201.078 28.451C200.81 28.093 200.334 27.9161 199.65 27.9201C199.178 27.9253 198.714 28.036 198.291 28.244C197.825 28.4659 197.403 28.7708 197.046 29.1438C196.724 29.4764 196.486 29.8817 196.354 30.3255C196.192 30.9725 196.122 31.6387 196.144 32.3051V35.1064C196.144 35.9372 196.24 36.5041 196.426 36.813C196.538 36.9775 196.687 37.1137 196.861 37.2111C197.034 37.3084 197.228 37.3641 197.427 37.3739V37.5688L192.664 37.5598ZM185.091 27.3622C184.607 27.3445 184.126 27.4444 183.688 27.6534C183.251 27.8623 182.871 28.174 182.581 28.5619C181.959 29.3617 181.648 30.4615 181.648 31.8612C181.648 33.4048 181.979 34.6125 182.641 35.4843C182.949 35.9069 183.357 36.2476 183.827 36.4766C184.298 36.7056 184.817 36.8159 185.34 36.798C185.823 36.8165 186.304 36.7169 186.739 36.5079C187.175 36.2988 187.554 35.9866 187.842 35.5983C188.453 34.7985 188.76 33.6857 188.762 32.2601C188.762 30.7524 188.43 29.5627 187.767 28.6909C187.462 28.2706 187.059 27.931 186.593 27.7016C186.128 27.4721 185.613 27.3598 185.094 27.3742L185.091 27.3622ZM179.06 32.0951C179.044 31.3258 179.192 30.5619 179.495 29.8544C179.797 29.1469 180.247 28.512 180.814 27.9921C182.029 26.9249 183.591 26.3364 185.208 26.3364C186.825 26.3364 188.387 26.9249 189.602 27.9921C190.157 28.5222 190.599 29.1594 190.901 29.8651C191.203 30.5709 191.359 31.3305 191.359 32.0981C191.359 32.8657 191.203 33.6253 190.901 34.3311C190.599 35.0368 190.157 35.674 189.602 36.2041C188.385 37.2685 186.823 37.8552 185.207 37.8552C183.59 37.8552 182.028 37.2685 180.811 36.2041C180.246 35.6844 179.797 35.0503 179.495 34.344C179.193 33.6376 179.045 32.8751 179.06 32.1071V32.0951ZM173.112 37.5478V37.3529C173.28 37.3684 173.45 37.3404 173.604 37.2716C173.759 37.2028 173.893 37.0955 173.994 36.96C174.205 36.5494 174.297 36.0883 174.261 35.6283V29.2548C174.297 28.8018 174.206 28.3476 173.997 27.9441C173.895 27.8095 173.761 27.7031 173.606 27.6349C173.452 27.5667 173.283 27.5389 173.115 27.5542V27.3442L176.606 26.6664V35.1094C176.606 35.9402 176.699 36.5071 176.888 36.816C177 36.9808 177.149 37.1173 177.323 37.2147C177.497 37.312 177.691 37.3676 177.89 37.3769V37.5718L173.112 37.5478ZM175.317 22.1494C175.51 22.149 175.701 22.1888 175.878 22.2663C176.055 22.3437 176.214 22.4571 176.345 22.5993C176.486 22.7399 176.596 22.907 176.672 23.0908C176.747 23.2746 176.785 23.4715 176.783 23.6701C176.787 23.8687 176.752 24.0661 176.678 24.2506C176.604 24.4351 176.494 24.6028 176.354 24.7438C176.22 24.8823 176.058 24.9924 175.88 25.0676C175.702 25.1427 175.511 25.1815 175.318 25.1815C175.125 25.1815 174.934 25.1427 174.756 25.0676C174.578 24.9924 174.416 24.8823 174.282 24.7438C174.008 24.452 173.856 24.067 173.856 23.6671C173.856 23.2671 174.008 22.8821 174.282 22.5903C174.414 22.4501 174.575 22.3395 174.753 22.2656C174.932 22.1917 175.124 22.1562 175.317 22.1614V22.1494ZM172.254 35.3673L172.476 35.4123L171.681 37.3739C171.255 37.5178 170.822 37.6389 170.383 37.7368C170.066 37.8091 169.742 37.8483 169.417 37.8538C168.517 37.8538 167.863 37.5808 167.452 37.0409C167.041 36.5011 166.853 35.6223 166.853 34.4076V27.9621H165.188V27.7671C165.804 27.6107 166.349 27.2482 166.731 26.7397C167.113 26.2312 167.309 25.6073 167.287 24.9718C167.287 24.8518 167.287 24.7048 167.266 24.5429C167.245 24.3809 167.221 24.153 167.179 23.859L169.204 22.8153V26.9153H170.83C170.996 26.9156 171.162 26.8913 171.321 26.8433C171.495 26.7865 171.661 26.709 171.816 26.6124L171.216 28.139C171.072 28.0781 170.921 28.0338 170.767 28.0071C170.537 27.9721 170.306 27.9571 170.074 27.9621H169.198V33.9847C169.198 34.9844 169.291 35.6393 169.477 35.9492C169.581 36.1116 169.728 36.2421 169.902 36.3263C170.075 36.4104 170.269 36.445 170.461 36.4261C170.795 36.4257 171.122 36.3345 171.408 36.1621C171.737 35.9568 172.024 35.6912 172.254 35.3793V35.3673ZM160.755 31.1683C158.955 31.5102 157.59 31.9871 156.658 32.599C155.716 33.1988 155.248 33.9337 155.248 34.7675C155.238 35.0006 155.28 35.2329 155.372 35.4474C155.464 35.6618 155.603 35.8528 155.779 36.0062C156.19 36.3326 156.707 36.497 157.231 36.4681C157.77 36.4706 158.304 36.3571 158.796 36.1352C159.263 35.921 159.674 35.6017 159.996 35.2024C160.27 34.8479 160.464 34.4388 160.566 34.0027C160.7 33.376 160.76 32.7357 160.743 32.0951L160.755 31.1683ZM164.597 37.5358H161.379C161.218 37.334 161.091 37.107 161.004 36.864C160.883 36.5397 160.796 36.2041 160.743 35.8622C160.25 36.5117 159.611 37.0357 158.877 37.3919C158.085 37.7278 157.23 37.8894 156.37 37.8657C155.248 37.8657 154.36 37.6108 153.716 37.0979C153.399 36.8499 153.146 36.5302 152.978 36.1651C152.809 35.8 152.73 35.4001 152.747 34.9984C152.747 33.7987 153.377 32.8159 154.636 32.0501C155.896 31.2843 157.936 30.6704 160.755 30.2085V29.2938C160.776 29.0409 160.737 28.7866 160.64 28.5519C160.544 28.3172 160.393 28.1089 160.2 27.9441C159.822 27.6441 159.246 27.5092 158.466 27.5092C157.481 27.4854 156.51 27.7423 155.665 28.25C154.852 28.763 154.21 29.5078 153.824 30.3885H153.614L154.162 26.8073C154.318 26.8692 154.476 26.9233 154.636 26.9693C154.743 27.005 154.854 27.0252 154.966 27.0293C155.486 26.943 156 26.8299 156.508 26.6904C157.351 26.475 158.217 26.3612 159.087 26.3514C159.754 26.3449 160.419 26.4225 161.067 26.5824C161.543 26.6787 161.991 26.884 162.375 27.1822C162.655 27.4255 162.87 27.7347 163.001 28.082C163.153 28.6693 163.215 29.2758 163.187 29.8816V34.9804C163.187 35.7642 163.287 36.3111 163.487 36.621C163.763 36.9855 164.158 37.2413 164.603 37.3439L164.597 37.5358ZM145.722 29.2338C145.752 28.7068 145.648 28.181 145.422 27.7041C145.342 27.5425 145.217 27.4072 145.063 27.3137C144.908 27.2203 144.73 27.1726 144.55 27.1762H144.46V26.9363L147.483 26.6364C147.654 26.9184 147.789 27.2207 147.885 27.5362C147.976 27.8648 148.029 28.203 148.041 28.5439C148.455 27.886 149.007 27.3254 149.658 26.9003C150.229 26.5252 150.897 26.3232 151.58 26.3184C151.856 26.3288 152.131 26.3538 152.405 26.3934C152.46 26.3964 152.515 26.4034 152.57 26.4144L152.075 28.5889C151.829 28.4685 151.572 28.373 151.307 28.304C151.075 28.2554 150.839 28.2352 150.602 28.244C150.219 28.2232 149.838 28.3079 149.499 28.4887C149.161 28.6696 148.878 28.9397 148.683 29.2698C148.266 29.9476 148.056 31.0004 148.056 32.413V35.0974C148.056 35.9252 148.15 36.4931 148.338 36.801C148.45 36.9658 148.599 37.1023 148.773 37.1997C148.946 37.297 149.141 37.3525 149.34 37.3619V37.5568H144.574V37.3619C144.743 37.3779 144.913 37.3502 145.068 37.2814C145.223 37.2126 145.357 37.105 145.458 36.969C145.669 36.5583 145.76 36.0971 145.722 35.6373V29.2338ZM137 27.3502C136.516 27.332 136.034 27.4317 135.596 27.6406C135.158 27.8496 134.778 28.1616 134.487 28.5499C133.869 29.3497 133.559 30.4495 133.557 31.8492C133.557 33.3928 133.887 34.6005 134.547 35.4723C134.856 35.8946 135.263 36.235 135.734 36.4639C136.204 36.6928 136.723 36.8034 137.246 36.786C137.729 36.8045 138.21 36.7049 138.646 36.4959C139.082 36.2868 139.46 35.9746 139.748 35.5863C140.36 34.7865 140.666 33.6737 140.666 32.2481C140.666 30.7404 140.335 29.5507 139.673 28.6789C139.366 28.2612 138.963 27.9242 138.498 27.6969C138.032 27.4697 137.518 27.3589 137 27.3742V27.3502ZM130.966 32.0831C130.949 31.3134 131.098 30.5491 131.401 29.8414C131.704 29.1338 132.155 28.4991 132.723 27.9801C133.938 26.9131 135.499 26.3247 137.116 26.3247C138.733 26.3247 140.294 26.9131 141.508 27.9801C142.064 28.5102 142.505 29.1474 142.807 29.8531C143.109 30.5589 143.265 31.3185 143.265 32.0861C143.265 32.8537 143.109 33.6133 142.807 34.3191C142.505 35.0248 142.064 35.662 141.508 36.1921C140.292 37.2563 138.731 37.8429 137.114 37.8429C135.498 37.8429 133.937 37.2563 132.72 36.1921C132.155 35.6748 131.706 35.043 131.403 34.3386C131.101 33.6343 130.952 32.8735 130.966 32.1071V32.0831ZM118.51 28.7119C118.547 28.2714 118.455 27.8296 118.246 27.4402C117.977 27.1388 117.604 26.9511 117.202 26.9153V26.6544H122.874C123.753 26.6344 124.632 26.7088 125.495 26.8763C126.134 27.015 126.743 27.2647 127.295 27.6141C128.052 28.0983 128.672 28.7698 129.094 29.5637C129.519 30.3812 129.734 31.2911 129.721 32.2121C129.721 34.0956 129.145 35.4583 127.994 36.3001C126.842 37.1419 124.953 37.5618 122.328 37.5598H120.846V39.5874C120.846 40.4272 120.94 41.001 121.128 41.309C121.239 41.4738 121.388 41.6096 121.562 41.7051C121.737 41.8006 121.931 41.853 122.13 41.8578V42.0558H117.355V41.8578C117.526 41.8766 117.699 41.8505 117.857 41.7821C118.014 41.7138 118.152 41.6055 118.255 41.4679C118.466 41.0596 118.557 40.6001 118.519 40.1422L118.51 28.7119ZM120.852 27.7221V34.0207C120.852 35.0084 121.001 35.6663 121.299 35.9942C121.599 36.3271 122.121 36.4891 122.874 36.4891C124.215 36.4891 125.258 36.1102 126.002 35.3523C126.746 34.5945 127.117 33.5328 127.115 32.1671C127.115 30.7184 126.68 29.6117 125.804 28.8379C124.928 28.064 123.669 27.6771 122.019 27.6771C121.857 27.6771 121.557 27.6771 121.119 27.7101L120.852 27.7221ZM109.908 29.2578C109.937 28.7308 109.834 28.205 109.608 27.7281C109.527 27.5665 109.402 27.4311 109.248 27.3377C109.093 27.2443 108.916 27.1966 108.735 27.2002H108.645V26.9603L111.668 26.6604C111.839 26.9424 111.974 27.2447 112.07 27.5602C112.162 27.8888 112.214 28.227 112.226 28.5679C112.64 27.91 113.192 27.3494 113.843 26.9243C114.414 26.5492 115.082 26.3472 115.765 26.3424C116.041 26.3528 116.317 26.3778 116.59 26.4174C116.646 26.4204 116.701 26.4274 116.755 26.4384L116.26 28.6129C116.015 28.4925 115.757 28.397 115.492 28.328C115.265 28.271 115.031 28.2418 114.797 28.241C114.414 28.2202 114.032 28.3049 113.694 28.4857C113.355 28.6666 113.073 28.9367 112.877 29.2668C112.46 29.9446 112.25 30.9974 112.25 32.41V35.0944C112.25 35.9222 112.344 36.4901 112.532 36.798C112.644 36.9632 112.793 37.0999 112.967 37.1973C113.14 37.2947 113.335 37.35 113.534 37.3589V37.5538H108.759V37.3589C108.93 37.3776 109.103 37.3512 109.261 37.2823C109.419 37.2133 109.556 37.1043 109.659 36.966C109.869 36.5553 109.961 36.0941 109.923 35.6343L109.908 29.2578ZM101.186 27.3742C100.701 27.356 100.219 27.4557 99.7814 27.6646C99.3437 27.8736 98.9631 28.1856 98.6724 28.5739C98.0546 29.3737 97.7446 30.4735 97.7426 31.8732C97.7426 33.4168 98.0726 34.6245 98.7324 35.4963C99.0413 35.9185 99.4487 36.2589 99.9192 36.4879C100.39 36.7168 100.909 36.8274 101.432 36.81C101.915 36.8285 102.395 36.7289 102.831 36.5199C103.267 36.3108 103.645 35.9986 103.933 35.6103C104.545 34.8105 104.851 33.6977 104.851 32.2721C104.851 30.7644 104.52 29.5747 103.858 28.7029C103.554 28.2808 103.152 27.9391 102.687 27.7076C102.221 27.4761 101.706 27.3616 101.186 27.3742ZM95.1512 32.1071C95.1355 31.337 95.2847 30.5724 95.5889 29.8647C95.893 29.157 96.3452 28.5226 96.9148 28.0041C98.1294 26.9371 99.6907 26.3487 101.307 26.3487C102.924 26.3487 104.485 26.9371 105.7 28.0041C106.255 28.5342 106.697 29.1714 106.999 29.8771C107.301 30.5829 107.456 31.3425 107.456 32.1101C107.456 32.8777 107.301 33.6373 106.999 34.3431C106.697 35.0488 106.255 35.686 105.7 36.2161C104.483 37.2803 102.922 37.8668 101.306 37.8668C99.6896 37.8668 98.1283 37.2803 96.9118 36.2161C96.3419 35.6967 95.8899 35.0612 95.5862 34.3524C95.2826 33.6436 95.1342 32.878 95.1512 32.1071ZM94.1165 33.1119H94.4764L92.6318 37.7728C92.4699 37.7728 92.3139 37.7458 92.1579 37.7398C92.002 37.7338 91.825 37.7398 91.6181 37.7398C91.2851 37.7398 90.7993 37.7698 90.1724 37.8208C89.5456 37.8717 89.0837 37.9017 88.7837 37.9017C86.1303 37.9017 84.0308 37.1549 82.4852 35.6613C80.9396 34.1676 80.1717 32.1351 80.1817 29.5637C80.1817 27.4002 80.7996 25.7186 82.0353 24.5189C83.271 23.3191 84.9956 22.7193 87.2091 22.7193C87.8227 22.7259 88.4354 22.7659 89.0447 22.8393C89.7705 22.9172 90.2444 22.9592 90.4993 22.9592C90.723 22.9612 90.946 22.9329 91.1622 22.8753C91.3744 22.8085 91.5762 22.7126 91.762 22.5903L92.7758 26.9063H92.4759C92.0782 25.9972 91.4168 25.2285 90.5772 24.6996C89.7376 24.1707 88.7586 23.9061 87.767 23.94C87.0888 23.9138 86.413 24.0342 85.7857 24.293C85.1583 24.5519 84.5942 24.9429 84.1318 25.4396C83.232 26.4264 82.7581 27.7371 82.7581 29.3627C82.7082 31.2678 83.3947 33.1187 84.6747 34.5305C85.2563 35.2064 85.9792 35.7463 86.7923 36.1122C87.6055 36.4781 88.489 36.661 89.3806 36.648C90.3588 36.6681 91.3162 36.3644 92.104 35.7842C92.9839 35.0721 93.6751 34.1543 94.1165 33.1119Z" fill="white"/>
<path fill-rule="evenodd" clip-rule="evenodd" d="M190.871 49.9717C190.883 49.6851 190.787 49.4044 190.601 49.1859C190.522 49.0982 190.425 49.0285 190.317 48.9814C190.209 48.9343 190.092 48.911 189.974 48.9129C189.851 48.9101 189.729 48.9342 189.616 48.9834C189.503 49.0326 189.402 49.1058 189.32 49.1979C189.14 49.4141 189.05 49.691 189.068 49.9717H190.871ZM190.799 51.1714L191.999 51.3694C191.869 51.7717 191.612 52.121 191.267 52.3651C190.892 52.6039 190.454 52.7232 190.01 52.707C189.676 52.7319 189.341 52.675 189.033 52.5412C188.726 52.4074 188.456 52.2008 188.246 51.9392C187.933 51.4833 187.775 50.9384 187.797 50.3856C187.762 49.7451 187.977 49.1162 188.396 48.631C188.587 48.4246 188.819 48.2614 189.078 48.1522C189.336 48.0431 189.615 47.9905 189.896 47.9981C190.196 47.9837 190.496 48.0357 190.774 48.1502C191.052 48.2648 191.301 48.4392 191.504 48.661C191.904 49.1029 192.09 49.7807 192.065 50.6945H189.044C189.036 50.9975 189.144 51.2921 189.344 51.5193C189.432 51.6154 189.539 51.6919 189.658 51.7436C189.778 51.7953 189.907 51.8211 190.037 51.8193C190.209 51.8249 190.377 51.7709 190.514 51.6663C190.658 51.5371 190.757 51.3662 190.799 51.1774V51.1714ZM187.239 49.4288L186.039 49.6358C186.021 49.4336 185.924 49.2467 185.769 49.1154C185.614 48.9841 185.414 48.9189 185.211 48.9339C185.076 48.9267 184.942 48.9499 184.817 49.0019C184.692 49.0538 184.581 49.1331 184.491 49.2339C184.283 49.5342 184.187 49.8986 184.221 50.2626C184.186 50.6602 184.282 51.0584 184.494 51.3964C184.582 51.5042 184.694 51.5902 184.821 51.6474C184.948 51.7047 185.087 51.7317 185.226 51.7263C185.432 51.7342 185.633 51.6646 185.79 51.5313C185.959 51.349 186.065 51.1162 186.09 50.8685L187.29 51.0664C187.203 51.5432 186.951 51.9743 186.579 52.2841C186.171 52.5786 185.675 52.7246 185.172 52.698C184.877 52.7121 184.583 52.6638 184.308 52.5563C184.033 52.4488 183.784 52.2845 183.576 52.0742C183.189 51.5798 182.979 50.97 182.979 50.3421C182.979 49.7142 183.189 49.1044 183.576 48.61C183.788 48.3994 184.042 48.2354 184.321 48.1285C184.6 48.0216 184.898 47.9741 185.196 47.9891C185.664 47.9645 186.128 48.0884 186.522 48.3431C186.879 48.6141 187.132 48.9995 187.239 49.4348V49.4288ZM182.032 52.5931H180.832V50.2986C180.849 49.9836 180.822 49.6678 180.754 49.3598C180.708 49.2238 180.619 49.1067 180.499 49.0269C180.374 48.944 180.226 48.9021 180.076 48.9069C179.874 48.9046 179.676 48.9642 179.509 49.0779C179.346 49.1822 179.224 49.3403 179.165 49.5248C179.084 49.8635 179.052 50.2118 179.069 50.5595V52.5931H177.869V48.0941H178.988V48.754C179.161 48.5192 179.387 48.3284 179.647 48.1971C179.908 48.0658 180.195 47.9977 180.487 47.9981C180.739 47.9956 180.989 48.0435 181.222 48.1391C181.418 48.2156 181.591 48.3404 181.726 48.502C181.84 48.6491 181.921 48.8189 181.963 48.9999C182.014 49.2636 182.037 49.5322 182.029 49.8007L182.032 52.5931ZM175.688 49.9657C175.701 49.6791 175.604 49.3984 175.418 49.1799C175.34 49.0922 175.243 49.0225 175.135 48.9754C175.026 48.9283 174.909 48.905 174.792 48.9069C174.668 48.9041 174.546 48.9282 174.433 48.9774C174.32 49.0266 174.219 49.0998 174.138 49.1919C173.958 49.4081 173.868 49.685 173.886 49.9657H175.688ZM175.616 51.1654L176.816 51.3634C176.686 51.7657 176.429 52.115 176.084 52.3591C175.71 52.5979 175.271 52.7172 174.828 52.701C174.493 52.7259 174.158 52.669 173.851 52.5352C173.544 52.4014 173.273 52.1948 173.064 51.9332C172.751 51.4773 172.593 50.9324 172.614 50.3796C172.579 49.7391 172.794 49.1102 173.214 48.625C173.404 48.4186 173.637 48.2554 173.895 48.1462C174.154 48.0371 174.433 47.9845 174.714 47.9921C175.014 47.9777 175.313 48.0297 175.591 48.1442C175.869 48.2588 176.118 48.4332 176.321 48.655C176.721 49.0969 176.908 49.7747 176.882 50.6885H173.862C173.854 50.9915 173.961 51.2861 174.162 51.5133C174.249 51.6094 174.357 51.6859 174.476 51.7376C174.595 51.7893 174.724 51.8151 174.855 51.8132C175.026 51.8194 175.195 51.7653 175.331 51.6603C175.474 51.5327 175.574 51.364 175.616 51.1774V51.1654ZM170.518 52.5871V46.3905H171.717V52.5991L170.518 52.5871ZM168.07 52.5871V46.3905H169.27V52.5991L168.07 52.5871ZM165.884 49.9597C165.896 49.6731 165.8 49.3924 165.614 49.1739C165.535 49.0865 165.438 49.017 165.33 48.9699C165.222 48.9229 165.105 48.8993 164.987 48.9009C164.864 48.8981 164.741 48.9222 164.629 48.9714C164.516 49.0206 164.415 49.0938 164.333 49.1859C164.153 49.4022 164.063 49.679 164.081 49.9597H165.884ZM165.812 51.1594L167.011 51.3574C166.881 51.7605 166.623 52.1101 166.277 52.3531C165.903 52.5922 165.466 52.7115 165.023 52.695C164.689 52.7202 164.353 52.6633 164.046 52.5295C163.739 52.3957 163.469 52.189 163.259 51.9272C162.946 51.4713 162.788 50.9264 162.809 50.3736C162.775 49.7331 162.99 49.1042 163.409 48.619C163.6 48.4126 163.832 48.2494 164.091 48.1402C164.349 48.0311 164.628 47.9785 164.909 47.9861C165.209 47.9717 165.509 48.0237 165.787 48.1382C166.064 48.2528 166.314 48.4272 166.516 48.649C166.916 49.0909 167.103 49.7687 167.077 50.6825H164.057C164.049 50.9855 164.156 51.2801 164.357 51.5073C164.445 51.6034 164.552 51.6799 164.671 51.7316C164.791 51.7833 164.92 51.8091 165.05 51.8073C165.222 51.8129 165.39 51.7589 165.527 51.6543C165.668 51.5283 165.768 51.3618 165.812 51.1774V51.1594ZM162.251 49.4168L161.052 49.6238C161.029 49.4211 160.932 49.2341 160.779 49.0989C160.622 48.9758 160.426 48.913 160.227 48.9219C160.092 48.9147 159.957 48.9379 159.833 48.9899C159.708 49.0418 159.597 49.1211 159.507 49.2219C159.299 49.5222 159.203 49.8866 159.237 50.2506C159.202 50.6482 159.298 51.0464 159.51 51.3844C159.598 51.4922 159.71 51.5782 159.837 51.6354C159.964 51.6927 160.103 51.7197 160.242 51.7143C160.448 51.7222 160.649 51.6526 160.806 51.5193C160.975 51.337 161.081 51.1042 161.106 50.8565L162.305 51.0544C162.218 51.5308 161.966 51.9615 161.595 52.2721C161.187 52.5666 160.69 52.7126 160.188 52.686C159.893 52.7001 159.599 52.6518 159.324 52.5443C159.049 52.4368 158.799 52.2725 158.592 52.0622C158.205 51.5678 157.995 50.958 157.995 50.3301C157.995 49.7022 158.205 49.0924 158.592 48.598C158.804 48.3877 159.057 48.2238 159.335 48.1169C159.613 48.01 159.911 47.9624 160.209 47.9772C160.678 47.9521 161.143 48.076 161.538 48.3311C161.899 48.6041 162.155 48.9943 162.26 49.4348L162.251 49.4168ZM152.783 52.5811L154.429 50.2626L152.855 48.0821H154.327L155.134 49.3178L155.992 48.0821H157.414L155.866 50.2116L157.555 52.5811H156.082L155.14 51.1864L154.204 52.5811H152.783ZM147.501 52.5811V46.3905H152.171V47.4403H148.779V48.82H151.934V49.8667H148.779V51.5493H152.315V52.5991L147.501 52.5811ZM141.97 50.9255V49.7257H144.349V50.9255H141.97ZM138.818 48.1001V49.0449H137.987V50.8655C137.98 51.0817 137.988 51.2982 138.011 51.5133C138.028 51.5746 138.066 51.6277 138.119 51.6633C138.18 51.7041 138.253 51.7251 138.326 51.7233C138.493 51.712 138.657 51.6735 138.812 51.6093L138.914 52.5331C138.612 52.6574 138.287 52.7187 137.96 52.713C137.755 52.7173 137.551 52.6806 137.36 52.6051C137.209 52.5473 137.077 52.4499 136.976 52.3231C136.885 52.1823 136.827 52.0221 136.808 51.8552C136.774 51.5767 136.761 51.296 136.769 51.0154V49.0449H136.215V48.1001H136.769V47.2003L137.969 46.4985V48.0941L138.818 48.1001ZM131.407 51.3394L132.606 51.1564C132.644 51.364 132.756 51.5508 132.921 51.6813C133.116 51.8126 133.349 51.8759 133.584 51.8612C133.831 51.8783 134.077 51.8186 134.289 51.6903C134.34 51.6544 134.38 51.6066 134.408 51.5512C134.436 51.4957 134.45 51.4343 134.448 51.3724C134.449 51.331 134.442 51.2898 134.427 51.2512C134.412 51.2126 134.39 51.1773 134.361 51.1474C134.24 51.064 134.101 51.0096 133.956 50.9884C132.981 50.7785 132.363 50.5835 132.103 50.4096C131.931 50.3024 131.79 50.1522 131.694 49.9738C131.599 49.7955 131.551 49.5952 131.557 49.3928C131.556 49.2039 131.597 49.0172 131.679 48.8468C131.76 48.6763 131.88 48.5267 132.028 48.409C132.45 48.1092 132.965 47.9679 133.482 48.0101C133.966 47.9764 134.45 48.0803 134.877 48.3101C135.189 48.5228 135.412 48.8431 135.504 49.2099L134.367 49.4168C134.327 49.2519 134.228 49.1076 134.088 49.0119C133.908 48.9032 133.698 48.8539 133.488 48.8709C133.252 48.8534 133.015 48.8989 132.801 49.0029C132.76 49.0285 132.726 49.0638 132.701 49.1055C132.677 49.1473 132.663 49.1944 132.66 49.2429C132.661 49.2866 132.673 49.3295 132.694 49.3677C132.716 49.4059 132.746 49.4382 132.783 49.4618C133.146 49.6205 133.527 49.7324 133.917 49.7947C134.401 49.8737 134.862 50.0547 135.27 50.3256C135.398 50.4363 135.499 50.5751 135.564 50.7312C135.63 50.8873 135.658 51.0564 135.648 51.2254C135.647 51.4307 135.6 51.6332 135.509 51.8172C135.418 52.0013 135.286 52.162 135.123 52.2871C134.674 52.6158 134.124 52.7742 133.569 52.734C133.049 52.7606 132.533 52.6311 132.088 52.3621C131.741 52.1178 131.499 51.7531 131.407 51.3394ZM129.478 52.6051V51.9392C129.305 52.1808 129.078 52.3779 128.814 52.5145C128.55 52.6511 128.258 52.7232 127.96 52.725C127.672 52.7306 127.387 52.6614 127.133 52.5241C126.897 52.4024 126.71 52.2047 126.602 51.9632C126.477 51.6455 126.421 51.3053 126.437 50.9645V48.1001H127.637V50.1726C127.624 50.5634 127.652 50.9544 127.721 51.3394C127.761 51.4775 127.848 51.5974 127.966 51.6783C128.098 51.7665 128.255 51.8106 128.413 51.8043C128.612 51.8063 128.807 51.7477 128.971 51.6363C129.126 51.538 129.244 51.3915 129.307 51.2194C129.388 50.8249 129.418 50.4218 129.397 50.0197V48.1001H130.597V52.5991L129.478 52.6051ZM124.181 52.6051H122.982V48.1061H124.1V48.745C124.229 48.5099 124.407 48.3054 124.622 48.1451C124.78 48.0487 124.962 47.9998 125.147 48.0041C125.428 48.0056 125.702 48.0833 125.942 48.2291L125.57 49.2638C125.402 49.147 125.205 49.0795 125 49.0689C124.845 49.0649 124.693 49.1135 124.568 49.2069C124.427 49.3403 124.331 49.5142 124.292 49.7047C124.203 50.1994 124.169 50.7023 124.19 51.2044L124.181 52.6051ZM119.559 52.6051V47.4403H117.691V46.3905H122.694V47.4403H120.837V52.5991L119.559 52.6051ZM112.607 50.9495V49.7497H114.986V50.9495H112.607ZM104.809 48.1061H106.096L107.193 51.2974L108.264 48.1061H109.515L107.925 52.4311L107.625 53.2109C107.547 53.4208 107.446 53.6219 107.325 53.8108C107.236 53.9426 107.123 54.0566 106.992 54.1467C106.852 54.2406 106.695 54.3086 106.53 54.3477C106.327 54.3981 106.119 54.4222 105.91 54.4196C105.679 54.4168 105.45 54.3897 105.226 54.3387L105.118 53.4119C105.288 53.4457 105.46 53.4637 105.634 53.4659C105.749 53.4753 105.866 53.4584 105.974 53.4163C106.082 53.3742 106.179 53.3081 106.258 53.2229C106.399 53.0375 106.501 52.8252 106.557 52.5991L104.809 48.1061ZM104.545 48.1061V49.0509H103.726V50.8715C103.719 51.0877 103.727 51.3042 103.75 51.5193C103.766 51.5811 103.805 51.6346 103.858 51.6693C103.918 51.7101 103.989 51.731 104.062 51.7293C104.23 51.7184 104.395 51.6799 104.551 51.6153L104.653 52.5391C104.351 52.6634 104.026 52.7247 103.699 52.719C103.494 52.7239 103.29 52.6872 103.099 52.6111C102.948 52.5533 102.816 52.4559 102.715 52.3291C102.624 52.1879 102.566 52.028 102.544 51.8612C102.513 51.5825 102.501 51.3019 102.508 51.0214V49.0509H101.954V48.1001H102.526V47.2003L103.726 46.4985V48.0941L104.545 48.1061ZM100.01 52.6051V48.1061H101.21V52.6051H100.01ZM100.01 47.5063V46.3905H101.21V47.4913L100.01 47.5063ZM97.5626 52.6051V46.3905H98.7623V52.5991L97.5626 52.6051ZM95.1901 50.4396C95.0372 50.4906 94.7912 50.5505 94.4553 50.6225C94.2269 50.6569 94.0053 50.7267 93.7985 50.8295C93.7267 50.873 93.6672 50.9341 93.6257 51.0071C93.5843 51.0801 93.5622 51.1625 93.5615 51.2464C93.5618 51.3279 93.5787 51.4085 93.6112 51.4833C93.6437 51.5581 93.6911 51.6254 93.7505 51.6813C93.8146 51.7415 93.89 51.7884 93.9724 51.8193C94.0548 51.8502 94.1425 51.8644 94.2304 51.8612C94.4562 51.8591 94.6756 51.7856 94.8572 51.6513C94.9991 51.5571 95.1048 51.4175 95.1571 51.2554C95.1985 51.0654 95.2147 50.8707 95.2051 50.6765L95.1901 50.4396ZM93.5705 49.4768L92.4758 49.2878C92.5687 48.8976 92.7946 48.5519 93.1146 48.3101C93.52 48.0735 93.987 47.9638 94.4553 47.9951C94.8637 47.9747 95.272 48.038 95.655 48.1811C95.8867 48.2787 96.0818 48.4465 96.2129 48.661C96.3463 48.9992 96.4016 49.3632 96.3749 49.7257L96.3569 51.1144C96.3489 51.4065 96.3679 51.6987 96.4138 51.9872C96.4603 52.1955 96.5329 52.397 96.6298 52.5871H95.4301C95.4001 52.5091 95.3611 52.3951 95.3161 52.2392C95.2951 52.1702 95.2831 52.1222 95.2741 52.1012C95.0828 52.2907 94.8581 52.4433 94.6113 52.5511C94.3741 52.6513 94.119 52.7023 93.8614 52.701C93.4566 52.7229 93.059 52.5875 92.7517 52.3231C92.6193 52.2028 92.5146 52.0553 92.4447 51.8906C92.3748 51.726 92.3414 51.5481 92.3468 51.3694C92.3434 51.1304 92.4079 50.8953 92.5328 50.6915C92.6573 50.492 92.8377 50.3334 93.0516 50.2356C93.3593 50.1048 93.6815 50.0111 94.0114 49.9567C94.4105 49.8921 94.803 49.7918 95.1841 49.6568V49.5368C95.193 49.4468 95.1823 49.3561 95.1528 49.2706C95.1233 49.1852 95.0757 49.1072 95.0132 49.0419C94.8177 48.9213 94.5878 48.8686 94.3593 48.8919C94.183 48.8814 94.0078 48.9265 93.8584 49.0209C93.7145 49.1404 93.6134 49.3037 93.5705 49.4858V49.4768ZM90.3103 52.5991V51.9392C90.1398 52.179 89.9151 52.3752 89.6545 52.5117C89.394 52.6483 89.1048 52.7214 88.8106 52.725C88.5211 52.7301 88.235 52.661 87.9798 52.5241C87.746 52.4015 87.5601 52.204 87.4519 51.9632C87.3275 51.6455 87.2713 51.3053 87.287 50.9645V48.1001H88.4867V50.1726C88.4688 50.5619 88.4919 50.9519 88.5557 51.3364C88.5935 51.4748 88.6797 51.595 88.7986 51.6753C88.9314 51.7639 89.089 51.808 89.2485 51.8013C89.4463 51.8036 89.6401 51.745 89.8034 51.6333C89.9581 51.5342 90.0769 51.3881 90.1423 51.2164C90.2228 50.8219 90.2531 50.4188 90.2323 50.0167V48.1001H91.432V52.5991H90.3103ZM84.4916 51.0994C84.661 50.8975 84.7866 50.6626 84.8605 50.4096C84.9455 50.1092 84.9859 49.7979 84.9805 49.4858C85.0253 48.908 84.8543 48.3342 84.5006 47.8752C84.3366 47.7068 84.1405 47.5729 83.9239 47.4815C83.7073 47.3901 83.4745 47.343 83.2394 47.343C83.0043 47.343 82.7716 47.3901 82.555 47.4815C82.3384 47.5729 82.1423 47.7068 81.9782 47.8752C81.6214 48.3328 81.4481 48.9072 81.4923 49.4858C81.4923 50.2116 81.6543 50.7575 81.9782 51.1174C82.1295 51.2926 82.3177 51.4321 82.5293 51.5259C82.7408 51.6198 82.9705 51.6657 83.2019 51.6603C83.3799 51.6615 83.5566 51.631 83.7238 51.5703C83.4786 51.4098 83.2147 51.2799 82.938 51.1834L83.2949 50.4546C83.7261 50.6074 84.1301 50.8282 84.4916 51.1084V51.0994ZM85.5144 51.8043C85.8277 52.0267 86.1711 52.2034 86.5342 52.3291L86.0633 53.2289C85.8689 53.1701 85.6809 53.0917 85.5024 52.995C85.4634 52.974 85.1815 52.791 84.6566 52.4431C84.2216 52.6246 83.7542 52.7154 83.2829 52.71C82.8652 52.7336 82.4471 52.6706 82.0549 52.5251C81.6626 52.3795 81.3047 52.1546 81.0034 51.8642C80.4546 51.3004 80.1816 50.5116 80.1816 49.4918C80.1816 48.472 80.4576 47.6922 81.0064 47.1223C81.3011 46.8341 81.6524 46.6102 82.038 46.4646C82.4237 46.319 82.8353 46.255 83.2469 46.2765C83.6563 46.2551 84.0656 46.3192 84.4488 46.4648C84.832 46.6105 85.1806 46.8344 85.4724 47.1223C86.0223 47.6862 86.2962 48.476 86.2942 49.4918C86.3035 49.9735 86.2263 50.453 86.0663 50.9075C85.9385 51.2402 85.7515 51.5471 85.5144 51.8132V51.8043Z" fill="white"/>
<defs>
<linearGradient id="paint0_linear_1399_1147" x1="28.0752" y1="7.33671" x2="46.6373" y2="7.33671" gradientUnits="userSpaceOnUse">
<stop stop-color="white"/>
<stop offset="1" stop-color="#C4C5C5"/>
</linearGradient>
<linearGradient id="paint1_linear_1399_1147" x1="34.8154" y1="33.4862" x2="34.8154" y2="9.70605" gradientUnits="userSpaceOnUse">
<stop stop-color="#A6A8AB"/>
<stop offset="1" stop-color="white"/>
</linearGradient>
<linearGradient id="paint2_linear_1399_1147" x1="46.6377" y1="33.4862" x2="46.6377" y2="9.70605" gradientUnits="userSpaceOnUse">
<stop stop-color="white"/>
<stop offset="1" stop-color="#C4C5C5"/>
</linearGradient>
<linearGradient id="paint3_linear_1399_1147" x1="46.6377" y1="9.70568" x2="46.6377" y2="4.97168" gradientUnits="userSpaceOnUse">
<stop stop-color="#E5E6E7"/>
<stop offset="1" stop-color="white"/>
</linearGradient>
<linearGradient id="paint4_linear_1399_1147" x1="58.4589" y1="33.4862" x2="58.4589" y2="9.70605" gradientUnits="userSpaceOnUse">
<stop stop-color="#A6A8AB"/>
<stop offset="1" stop-color="white"/>
</linearGradient>
<linearGradient id="paint5_linear_1399_1147" x1="46.6377" y1="7.33671" x2="65.1999" y2="7.33671" gradientUnits="userSpaceOnUse">
<stop stop-color="#BBBCBF"/>
<stop offset="1" stop-color="white"/>
</linearGradient>
<linearGradient id="paint6_linear_1399_1147" x1="22.9902" y1="7.33671" x2="34.8036" y2="7.33671" gradientUnits="userSpaceOnUse">
<stop stop-color="#E5E6E7"/>
<stop offset="1" stop-color="white"/>
</linearGradient>
<linearGradient id="paint7_linear_1399_1147" x1="58.4707" y1="7.33671" x2="70.2801" y2="7.33671" gradientUnits="userSpaceOnUse">
<stop stop-color="white"/>
<stop offset="1" stop-color="#EAEBEB"/>
</linearGradient>
</defs>
</svg>
