<svg width="69" height="68" viewBox="0 0 69 68" fill="none" xmlns="http://www.w3.org/2000/svg">
<g clip-path="url(#clip0_505_3604)">
<path d="M61.8525 52.8735C63.1957 51.0266 63.9237 48.8038 63.9333 46.5201C63.9478 46.2198 63.8424 45.926 63.6402 45.7035C63.4381 45.4809 63.1558 45.3478 62.8555 45.3335C62.2327 45.3102 61.7055 45.7891 61.6689 46.4113C61.6774 48.2212 61.1199 49.9885 60.0743 51.4659C57.8632 54.2585 53.6676 54.4001 52.8482 54.4001C52.2223 54.4001 51.7148 54.9075 51.7148 55.5335C51.7148 56.1594 52.2223 56.6668 52.8482 56.6668C53.85 56.6668 58.992 56.4843 61.8525 52.8735Z" fill="#37BFFF"/>
<path d="M39.0323 38.5332C39.0323 37.9073 38.5249 37.3999 37.899 37.3999C37.273 37.3999 36.7656 37.9073 36.7656 38.5332C36.7656 41.0369 38.7953 43.0666 41.299 43.0666V44.1999C41.299 44.8258 41.8064 45.3332 42.4323 45.3332C43.0582 45.3332 43.5656 44.8258 43.5656 44.1999V43.0666C46.0693 43.0666 48.099 41.0369 48.099 38.5332C48.099 36.0295 46.0693 33.9999 43.5656 33.9999V29.4666C44.8175 29.4666 45.8323 30.4814 45.8323 31.7332C45.8323 32.3592 46.3397 32.8666 46.9656 32.8666C47.5915 32.8666 48.099 32.3592 48.099 31.7332C48.099 29.2295 46.0693 27.1999 43.5656 27.1999V26.0666C43.5656 25.4406 43.0582 24.9332 42.4323 24.9332C41.8064 24.9332 41.299 25.4406 41.299 26.0666V27.1999C38.7953 27.1999 36.7656 29.2295 36.7656 31.7332C36.7656 34.2369 38.7953 36.2666 41.299 36.2666V40.7999C40.0471 40.7999 39.0323 39.7851 39.0323 38.5332ZM39.0323 31.7332C39.0323 30.4814 40.0471 29.4666 41.299 29.4666V33.9999C40.0471 33.9999 39.0323 32.9851 39.0323 31.7332ZM43.5656 36.2666C44.8175 36.2666 45.8323 37.2814 45.8323 38.5332C45.8323 39.7851 44.8175 40.7999 43.5656 40.7999V36.2666Z" fill="#37BFFF"/>
<path d="M67.5525 38.2738C64.76 26.4067 58.5516 19.5307 54.0681 15.9392C59.6906 16.3631 61.5005 18.7023 61.5538 18.7725C61.9089 19.2794 62.6049 19.4077 63.1174 19.0608C63.6298 18.7139 63.7693 18.02 63.4306 17.5021C63.349 17.3797 61.7748 15.1311 57.1973 14.1021C58.3678 13.1398 59.0602 11.7148 59.0933 10.2C58.9418 7.68846 57.1934 5.55873 54.7595 4.92092C54.8593 4.10227 54.91 3.27837 54.9113 2.45366C54.9101 1.69387 54.5283 0.985229 53.8945 0.566303C53.2606 0.147376 52.459 0.0738926 51.7595 0.370591C51.1874 0.629643 50.6559 0.97057 50.1819 1.38266C49.6258 1.95422 48.8601 2.27359 48.0626 2.26666C47.2664 2.27226 46.5023 1.95303 45.9467 1.38266C43.9493 -0.462025 40.8697 -0.462025 38.8724 1.38266C38.3161 1.95547 37.5492 2.27501 36.7508 2.26666C35.9547 2.27327 35.1906 1.95386 34.636 1.38266C34.1632 0.971454 33.6334 0.630938 33.0629 0.371724C32.3639 0.0770145 31.5639 0.151502 30.9313 0.57018C30.2987 0.988857 29.9175 1.69622 29.9157 2.45479C29.9157 5.27452 30.4733 10.3043 34.0036 13.6816C32.1483 14.8098 30.4155 16.1281 28.8333 17.6154V9.06666C28.8333 6.48266 25.1783 4.53332 20.3333 4.53332C15.4883 4.53332 11.8333 6.48266 11.8333 9.06666V20.485C7.85873 20.8817 5.03333 22.6667 5.03333 24.9333V53.7597C2.2952 54.4952 0.5 55.9867 0.5 57.8V63.4667C0.5 66.0507 4.155 68 9 68C13.3327 68 16.7067 66.4394 17.3719 64.26C19.3282 65.2958 21.5208 65.8036 23.7333 65.7333C28.5783 65.7333 32.2333 63.784 32.2333 61.2V46.4667C32.2333 43.8827 28.5783 41.9333 23.7333 41.9333C23.1656 41.9329 22.5982 41.9613 22.0333 42.0183V24.9333C22.0333 22.4513 18.6594 20.5609 14.1 20.4147V12.2049C16.0281 13.1848 18.1715 13.6646 20.3333 13.6C22.4952 13.6646 24.6386 13.1848 26.5667 12.2049V19.9342C25.8198 20.7695 25.0695 21.6795 24.3295 22.6882C23.9906 23.1928 24.1102 23.875 24.6005 24.2343C25.0909 24.5935 25.7774 24.5019 26.1564 24.0267C26.8843 23.0412 27.6644 22.0954 28.4933 21.1933C28.5024 21.1831 28.5103 21.1729 28.5194 21.1639C30.6829 18.7595 33.2234 16.7234 36.0413 15.1357C36.5969 15.4036 37.1846 15.599 37.7901 15.7171L34.8683 18.4439C34.4108 18.8714 34.3864 19.5888 34.8139 20.0464C35.2414 20.5039 35.9589 20.5283 36.4165 20.1008L40.9498 15.8723H41.3113V19.2723C41.3113 19.8982 41.8187 20.4057 42.4447 20.4057C43.0706 20.4057 43.578 19.8982 43.578 19.2723V15.8667H43.9395L48.4729 20.0951C48.7689 20.3717 49.1899 20.4693 49.5774 20.3513C49.9649 20.2332 50.2599 19.9174 50.3514 19.5228C50.443 19.1282 50.317 18.7147 50.021 18.4382L47.08 15.7001C47.6818 15.5809 48.2658 15.3848 48.8174 15.1164C51.8128 16.7371 61.6592 23.1404 65.3471 38.7929C66.9507 45.6065 66.3727 50.8187 63.6301 54.281C60.1213 58.7067 54.033 58.9333 52.8487 58.9333H36.7667C36.1407 58.9333 35.6333 59.4407 35.6333 60.0667C35.6333 60.6926 36.1407 61.2 36.7667 61.2H52.8487C54.7753 61.2 61.3543 60.8022 65.406 55.6886C68.5997 51.6551 69.3228 45.7957 67.5525 38.2738ZM9 55.5333C12.7479 55.5333 15.2333 56.8933 15.2333 57.8C15.2333 58.7067 12.7479 60.0667 9 60.0667C5.25207 60.0667 2.76667 58.7067 2.76667 57.8C2.76667 56.8933 5.25207 55.5333 9 55.5333ZM9 65.7333C5.25207 65.7333 2.76667 64.3733 2.76667 63.4667V60.9382C4.69473 61.9182 6.83815 62.3979 9 62.3333C11.1619 62.3979 13.3053 61.9182 15.2333 60.9382V63.4667C15.2333 64.3733 12.7479 65.7333 9 65.7333ZM23.7333 63.4667C19.9854 63.4667 17.5 62.1067 17.5 61.2V49.6049C19.4281 50.5848 21.5715 51.0646 23.7333 51C25.8952 51.0646 28.0386 50.5848 29.9667 49.6049V61.2C29.9667 62.1067 27.4813 63.4667 23.7333 63.4667ZM29.9667 46.4667C29.9667 47.3733 27.4813 48.7333 23.7333 48.7333C19.9854 48.7333 17.5 47.3733 17.5 46.4667C17.5 45.56 19.9854 44.2 23.7333 44.2C27.4813 44.2 29.9667 45.56 29.9667 46.4667ZM15.2333 46.4667V54.6618C13.3053 53.6818 11.1619 53.2021 9 53.2667C8.43226 53.2663 7.86487 53.2947 7.3 53.3517V28.0715C9.22806 29.0515 11.3715 29.5312 13.5333 29.4667C15.6952 29.5312 17.8386 29.0515 19.7667 28.0715V42.4263C17.0285 43.1619 15.2333 44.6533 15.2333 46.4667ZM19.7667 24.9333C19.7667 25.84 17.2813 27.2 13.5333 27.2C9.7854 27.2 7.3 25.84 7.3 24.9333C7.3 24.0267 9.7854 22.6667 13.5333 22.6667C17.2813 22.6667 19.7667 24.0267 19.7667 24.9333ZM20.3333 11.3333C16.5854 11.3333 14.1 9.97332 14.1 9.06666C14.1 8.15999 16.5854 6.79999 20.3333 6.79999C24.0813 6.79999 26.5667 8.15999 26.5667 9.06666C26.5667 9.97332 24.0813 11.3333 20.3333 11.3333ZM56.8267 10.2C56.8267 12.0575 54.815 13.5819 52.2933 13.6C51.8716 13.5973 51.4513 13.5491 51.0399 13.4561C52.6848 11.7012 53.8281 9.53663 54.3503 7.18872C55.7145 7.59068 56.6957 8.78384 56.8267 10.2ZM33.2171 3.15066C34.1742 4.0475 35.4392 4.54248 36.7508 4.53332C38.0632 4.54318 39.3292 4.04815 40.2868 3.15066C40.847 2.58506 41.6101 2.26685 42.4061 2.26685C43.2022 2.26685 43.9653 2.58506 44.5255 3.15066C45.4831 4.04882 46.7497 4.54393 48.0626 4.53332C49.3754 4.54347 50.6418 4.04842 51.5997 3.15066C51.9138 2.87308 52.2633 2.63832 52.639 2.45252C52.639 4.55712 52.248 9.76026 48.5964 12.6129C47.7749 13.2298 46.779 13.5707 45.7517 13.5864C46.7328 11.9013 47.5094 10.1051 48.0649 8.23592C48.1734 7.8456 48.0654 7.42703 47.7816 7.1379C47.4979 6.84876 47.0814 6.73298 46.6891 6.83416C46.2968 6.93535 45.9883 7.23813 45.8798 7.62846C45.2521 9.75885 44.2871 11.7749 43.0215 13.6H41.8565C40.5934 11.7733 39.6282 9.75772 38.9971 7.62846C38.829 7.02538 38.2039 6.67273 37.6008 6.84079C36.9977 7.00885 36.6451 7.63398 36.8131 8.23706C37.3692 10.1078 38.1465 11.9055 39.1285 13.5921C38.0807 13.5867 37.0625 13.2437 36.2249 12.614C32.5733 9.76252 32.1823 4.55939 32.1823 2.46159C32.5579 2.64153 32.9062 2.8735 33.2171 3.15066Z" fill="#37BFFF"/>
<path d="M61.8525 52.8734C63.1957 51.0265 63.9237 48.8037 63.9333 46.52C63.9478 46.2197 63.8424 45.9259 63.6402 45.7034C63.4381 45.4809 63.1558 45.3478 62.8555 45.3334C62.2331 45.3113 61.7066 45.7895 61.6689 46.4112C61.6774 48.2211 61.1199 49.9884 60.0743 51.4658C57.8632 54.2584 53.6676 54.4 52.8482 54.4C52.2223 54.4 51.7148 54.9075 51.7148 55.5334C51.7148 56.1593 52.2223 56.6667 52.8482 56.6667C53.85 56.6667 58.992 56.4842 61.8525 52.8734Z" fill="#37BFFF"/>
</g>
<defs>
<clipPath id="clip0_505_3604">
<rect width="68" height="68" fill="white" transform="translate(0.5)"/>
</clipPath>
</defs>
</svg>
