<svg width="76" height="105" viewBox="0 0 76 105" fill="none" xmlns="http://www.w3.org/2000/svg">
<path fill-rule="evenodd" clip-rule="evenodd" d="M1.80952 57.9048C2.16741 57.9048 2.51727 58.0109 2.81484 58.2097C3.11242 58.4086 3.34435 58.6912 3.48131 59.0218C3.61826 59.3525 3.6541 59.7163 3.58428 60.0673C3.51446 60.4183 3.34212 60.7408 3.08905 60.9938C2.83598 61.2469 2.51356 61.4192 2.16254 61.4891C1.81153 61.5589 1.4477 61.523 1.11705 61.3861C0.786401 61.2491 0.503793 61.0172 0.30496 60.7196C0.106127 60.422 0 60.0722 0 59.7143C0 59.2344 0.190646 58.7741 0.529998 58.4348C0.869349 58.0954 1.32961 57.9048 1.80952 57.9048Z" fill="white"/>
<path d="M39.8095 101.334H57.9048V95.905C57.9119 95.5478 58.0117 95.1987 58.1943 94.8916L72.381 73.6478V47.3735C71.6158 47.6319 70.9218 48.0656 70.3543 48.6402C69.3359 49.6573 68.7632 51.0371 68.7619 52.4764V65.9393C68.7661 66.212 68.7061 66.4819 68.5866 66.7271C68.4672 66.9723 68.2917 67.1859 68.0743 67.3507L49.1105 86.3145C48.9423 86.4841 48.7421 86.6187 48.5216 86.7106C48.3011 86.8025 48.0646 86.8498 47.8257 86.8498C47.5868 86.8498 47.3503 86.8025 47.1298 86.7106C46.9093 86.6187 46.7092 86.4841 46.541 86.3145C46.3679 86.152 46.2299 85.9558 46.1356 85.738C46.0413 85.5201 45.9926 85.2852 45.9926 85.0478C45.9926 84.8104 46.0413 84.5756 46.1356 84.3577C46.2299 84.1398 46.3679 83.9436 46.541 83.7812L54.9371 75.385C55.2836 75.0398 55.4788 74.5712 55.48 74.0821C55.4829 73.8448 55.4361 73.6095 55.3426 73.3913C55.2491 73.1732 55.111 72.977 54.9371 72.8155C54.7747 72.6424 54.5785 72.5044 54.3606 72.4101C54.1427 72.3158 53.9079 72.2671 53.6705 72.2671C53.4331 72.2671 53.1982 72.3158 52.9803 72.4101C52.7625 72.5044 52.5663 72.6424 52.4038 72.8155L40.8591 84.324C40.5236 84.6622 40.2583 85.0632 40.0782 85.5042C39.8981 85.9451 39.8068 86.4173 39.8095 86.8935V101.334ZM17.4438 71.7297C17.7053 71.1782 18.0604 70.6762 18.4933 70.2459C19.5158 69.2381 20.8938 68.6731 22.3295 68.6731C23.7652 68.6731 25.1432 69.2381 26.1657 70.2459L37.6743 81.7545L38 82.0802L38.3257 81.7545L49.8343 70.2459C50.8568 69.2381 52.2348 68.6731 53.6705 68.6731C55.1062 68.6731 56.4842 69.2381 57.5067 70.2459C57.9396 70.6762 58.2947 71.1782 58.5562 71.7297L65.1429 65.1793V52.4764C65.1381 51.2869 65.3688 50.1082 65.8218 49.0084C66.2748 47.9085 66.9411 46.9092 67.7822 46.0681C68.6233 45.227 69.6226 44.5607 70.7225 44.1077C71.8223 43.6548 73.001 43.424 74.1905 43.4288C74.6704 43.4288 75.1307 43.6194 75.47 43.9588C75.8094 44.2981 76 44.7584 76 45.2383V74.1907C75.9981 74.5486 75.898 74.8991 75.7105 75.204L61.5238 96.4478V101.334H63.3333C63.8132 101.334 64.2735 101.524 64.6129 101.864C64.9522 102.203 65.1429 102.663 65.1429 103.143C65.1429 103.623 64.9522 104.083 64.6129 104.423C64.2735 104.762 63.8132 104.953 63.3333 104.953H12.6667C12.1868 104.953 11.7265 104.762 11.3871 104.423C11.0478 104.083 10.8571 103.623 10.8571 103.143C10.8571 102.663 11.0478 102.203 11.3871 101.864C11.7265 101.524 12.1868 101.334 12.6667 101.334H14.4762V96.4478L0.289524 75.204C0.102042 74.8991 0.00189234 74.5486 0 74.1907V66.9526C0 66.4727 0.190646 66.0124 0.529998 65.6731C0.869349 65.3337 1.32961 65.1431 1.80952 65.1431C2.28944 65.1431 2.7497 65.3337 3.08905 65.6731C3.4284 66.0124 3.61905 66.4727 3.61905 66.9526V73.6478L17.8057 94.8916C17.9883 95.1987 18.0881 95.5478 18.0952 95.905V101.334H36.1905V86.8574C36.1932 86.3811 36.1019 85.9089 35.9218 85.468C35.7417 85.027 35.4764 84.626 35.141 84.2878L23.5238 72.8155C23.3614 72.6424 23.1651 72.5044 22.9473 72.4101C22.7294 72.3158 22.4945 72.2671 22.2571 72.2671C22.0197 72.2671 21.7849 72.3158 21.567 72.4101C21.3491 72.5044 21.1529 72.6424 20.9905 72.8155C20.8166 72.977 20.6785 73.1732 20.585 73.3913C20.4915 73.6095 20.4447 73.8448 20.4476 74.0821C20.4477 74.5362 20.6153 74.9743 20.9181 75.3126L29.3867 83.7812C29.5598 83.9436 29.6977 84.1398 29.792 84.3577C29.8864 84.5756 29.935 84.8104 29.935 85.0478C29.935 85.2852 29.8864 85.5201 29.792 85.738C29.6977 85.9558 29.5598 86.152 29.3867 86.3145C29.1091 86.5761 28.7532 86.7391 28.3739 86.7783C27.9945 86.8176 27.6128 86.7309 27.2876 86.5316C27.1331 86.4693 26.9964 86.3699 26.8895 86.2421L7.85333 67.3145C7.66489 67.1374 7.51347 66.9246 7.40786 66.6885C7.30225 66.4525 7.24455 66.1978 7.2381 65.9393V52.4764C7.23683 51.0371 6.66406 49.6573 5.64571 48.6402C5.07824 48.0656 4.38418 47.6319 3.61905 47.3735V52.4764C3.61905 52.9563 3.4284 53.4166 3.08905 53.7559C2.7497 54.0953 2.28944 54.2859 1.80952 54.2859C1.32961 54.2859 0.869349 54.0953 0.529998 53.7559C0.190646 53.4166 0 52.9563 0 52.4764V45.2383C0 44.7584 0.190646 44.2981 0.529998 43.9588C0.869349 43.6194 1.32961 43.4288 1.80952 43.4288C2.99901 43.424 4.17768 43.6548 5.27755 44.1077C6.37742 44.5607 7.37673 45.227 8.21783 46.0681C9.05893 46.9092 9.72519 47.9085 10.1782 49.0084C10.6312 50.1082 10.8619 51.2869 10.8571 52.4764V65.1793L17.4438 71.7297Z" fill="white"/>
<path d="M12.6648 36.1903H5.42671C4.9468 36.1903 4.48654 35.9997 4.14718 35.6603C3.80783 35.321 3.61719 34.8607 3.61719 34.3808C3.61719 33.9009 3.80783 33.4406 4.14718 33.1013C4.48654 32.7619 4.9468 32.5713 5.42671 32.5713H12.6648C13.1447 32.5713 13.605 32.7619 13.9443 33.1013C14.2837 33.4406 14.4743 33.9009 14.4743 34.3808C14.4743 34.8607 14.2837 35.321 13.9443 35.6603C13.605 35.9997 13.1447 36.1903 12.6648 36.1903Z" fill="white"/>
<path d="M20.086 18.2759C19.8487 18.2788 19.6134 18.232 19.3952 18.1385C19.1771 18.045 18.9809 17.9069 18.8193 17.733L13.6803 12.6664C13.5092 12.4953 13.3735 12.2922 13.2809 12.0686C13.1883 11.8451 13.1406 11.6055 13.1406 11.3635C13.1406 11.1216 13.1883 10.882 13.2809 10.6584C13.3735 10.4349 13.5092 10.2318 13.6803 10.0607C13.8514 9.88956 14.0545 9.75384 14.278 9.66125C14.5016 9.56865 14.7412 9.521 14.9831 9.521C15.2251 9.521 15.4647 9.56865 15.6882 9.66125C15.9118 9.75384 16.1149 9.88956 16.286 10.0607L21.3527 15.1997C21.5258 15.3622 21.6637 15.5584 21.758 15.7762C21.8524 15.9941 21.901 16.229 21.901 16.4664C21.901 16.7038 21.8524 16.9386 21.758 17.1565C21.6637 17.3744 21.5258 17.5706 21.3527 17.733C21.1911 17.9069 20.9949 18.045 20.7768 18.1385C20.5586 18.232 20.3233 18.2788 20.086 18.2759Z" fill="white"/>
<path d="M38.0009 10.8571C37.521 10.8571 37.0608 10.6665 36.7214 10.3271C36.3821 9.9878 36.1914 9.52754 36.1914 9.04762V1.80952C36.1914 1.32961 36.3821 0.869349 36.7214 0.529997C37.0608 0.190646 37.521 0 38.0009 0C38.4808 0 38.9411 0.190646 39.2805 0.529997C39.6198 0.869349 39.8105 1.32961 39.8105 1.80952V9.04762C39.8105 9.52754 39.6198 9.9878 39.2805 10.3271C38.9411 10.6665 38.4808 10.8571 38.0009 10.8571Z" fill="white"/>
<path d="M56.0963 18.2762C55.8589 18.2791 55.6236 18.2323 55.4055 18.1388C55.1873 18.0453 54.9912 17.9072 54.8296 17.7334C54.6565 17.5709 54.5185 17.3747 54.4242 17.1568C54.3299 16.939 54.2812 16.7041 54.2812 16.4667C54.2812 16.2293 54.3299 15.9944 54.4242 15.7766C54.5185 15.5587 54.6565 15.3625 54.8296 15.2L59.7153 10.061C59.884 9.89226 60.0843 9.75842 60.3048 9.66711C60.5252 9.57581 60.7615 9.52881 61.0001 9.52881C61.2387 9.52881 61.4749 9.57581 61.6954 9.66711C61.9158 9.75842 62.1161 9.89226 62.2848 10.061C62.4536 10.2297 62.5874 10.43 62.6787 10.6504C62.77 10.8709 62.817 11.1071 62.817 11.3457C62.817 11.5843 62.77 11.8206 62.6787 12.041C62.5874 12.2615 62.4536 12.4618 62.2848 12.6305L57.182 17.7334C57.0204 17.9072 56.8242 18.0453 56.6061 18.1388C56.3879 18.2323 56.1526 18.2791 55.9153 18.2762H56.0963Z" fill="white"/>
<path d="M70.5711 36.1903H63.333C62.853 36.1903 62.3928 35.9997 62.0534 35.6603C61.7141 35.321 61.5234 34.8607 61.5234 34.3808C61.5234 33.9009 61.7141 33.4406 62.0534 33.1013C62.3928 32.7619 62.853 32.5713 63.333 32.5713H70.5711C71.051 32.5713 71.5112 32.7619 71.8506 33.1013C72.1899 33.4406 72.3806 33.9009 72.3806 34.3808C72.3806 34.8607 72.1899 35.321 71.8506 35.6603C71.5112 35.9997 71.051 36.1903 70.5711 36.1903Z" fill="white"/>
<path d="M37.9992 65.1431C37.7834 65.1776 37.5635 65.1776 37.3477 65.1431L35.683 64.4555C30.4636 62.3845 25.9917 58.7852 22.8531 54.129C19.7146 49.4729 18.0559 43.9772 18.0944 38.3621V27.1431C18.0913 26.7847 18.1968 26.4338 18.3971 26.1367C18.5974 25.8395 18.883 25.61 19.2163 25.4783L37.3116 18.2402C37.7521 18.0592 38.2462 18.0592 38.6868 18.2402L56.782 25.4783C57.1153 25.61 57.401 25.8395 57.6012 26.1367C57.8015 26.4338 57.907 26.7847 57.9039 27.1431V38.3621C57.9206 43.9587 56.2516 49.4306 53.1145 54.0653C49.9774 58.7 45.5174 62.2827 40.3154 64.3469L38.6506 65.0345C38.4348 65.069 38.2149 65.069 37.9992 65.0345V65.1431ZM21.7135 28.3736V38.3621C21.6952 43.2389 23.1457 48.0082 25.8762 52.0491C28.6067 56.0899 32.4905 59.2149 37.022 61.0174L37.9992 61.3793L38.9401 61.0174C43.4784 59.2207 47.37 56.098 50.1072 52.0568C52.8444 48.0155 54.3003 43.2431 54.2849 38.3621V28.3736L37.9992 21.8593L21.7135 28.3736Z" fill="white"/>
<path d="M34.3791 47.0479C34.1418 47.0507 33.9065 47.0039 33.6884 46.9104C33.4702 46.817 33.274 46.6788 33.1125 46.505L29.4934 42.8859C29.1575 42.55 28.9687 42.0944 28.9688 41.6193C28.9688 41.1442 29.1575 40.6886 29.4934 40.3526C29.8294 40.0167 30.285 39.8279 30.7601 39.8279C31.2352 39.8279 31.6908 40.0167 32.0268 40.3526L34.3791 42.6688L43.9696 33.1145C44.1359 32.9482 44.3334 32.8162 44.5508 32.7262C44.7681 32.6362 45.001 32.5898 45.2363 32.5898C45.4715 32.5898 45.7045 32.6362 45.9218 32.7262C46.1391 32.8162 46.3366 32.9482 46.5029 33.1145C46.6693 33.2809 46.8012 33.4783 46.8913 33.6957C46.9813 33.913 47.0276 34.1459 47.0276 34.3812C47.0276 34.6164 46.9813 34.8494 46.8913 35.0667C46.8012 35.284 46.6693 35.4815 46.5029 35.6479L35.6458 46.505C35.4842 46.6788 35.2881 46.817 35.0699 46.9104C34.8518 47.0039 34.6165 47.0507 34.3791 47.0479Z" fill="white"/>
</svg>
