<svg width="66" height="30" viewBox="0 0 66 30" fill="none" xmlns="http://www.w3.org/2000/svg">
<path d="M51.1758 18.123C50.7891 18.123 50.4238 18.0586 50.0801 17.9297C49.7363 17.8008 49.3926 17.6074 49.0488 17.3496C48.748 17.0488 48.5117 16.7266 48.3398 16.3828C48.2109 15.9961 48.1465 15.5664 48.1465 15.0938C48.1465 14.9219 48.1895 14.6426 48.2754 14.2559C48.3613 13.8262 48.5977 13.418 48.9844 13.0312C49.3711 12.7305 49.7363 12.5371 50.0801 12.4512C50.4238 12.3223 50.7891 12.2578 51.1758 12.2578C51.6484 12.2578 52.0566 12.3223 52.4004 12.4512C52.7871 12.5801 53.1094 12.7734 53.3672 13.0312C53.7539 13.418 53.9902 13.8262 54.0762 14.2559C54.1621 14.6426 54.2051 14.9219 54.2051 15.0938C54.2051 15.5664 54.1406 15.9961 54.0117 16.3828C53.8828 16.7266 53.668 17.0273 53.3672 17.2852C53.1094 17.543 52.7871 17.7578 52.4004 17.9297C52.0566 18.0586 51.6484 18.123 51.1758 18.123ZM51.1758 13.0957C50.875 13.0957 50.5957 13.1387 50.3379 13.2246C50.123 13.3105 49.8652 13.4609 49.5645 13.6758C49.3066 13.9336 49.1562 14.2129 49.1133 14.5137C49.0703 14.8145 49.0488 15.0078 49.0488 15.0938C49.0488 15.4375 49.0918 15.7383 49.1777 15.9961C49.2637 16.2539 49.3926 16.4902 49.5645 16.7051C49.8652 16.877 50.123 17.0059 50.3379 17.0918C50.5957 17.1777 50.875 17.2207 51.1758 17.2207C51.5195 17.2207 51.8203 17.1777 52.0781 17.0918C52.3359 17.0059 52.5723 16.877 52.7871 16.7051C52.959 16.4902 53.0879 16.2539 53.1738 15.9961C53.3027 15.7383 53.3672 15.4375 53.3672 15.0938C53.3672 15.0078 53.3242 14.8145 53.2383 14.5137C53.1953 14.2129 53.0449 13.9336 52.7871 13.6758C52.5723 13.5039 52.3359 13.375 52.0781 13.2891C51.8203 13.1602 51.5195 13.0957 51.1758 13.0957ZM12.1172 22.957C11.9023 22.957 11.5801 22.8926 11.1504 22.7637C10.7637 22.6348 10.3984 22.3555 10.0547 21.9258C9.83984 21.7109 9.625 21.4531 9.41016 21.1523C9.19531 20.8086 9.08789 20.4004 9.08789 19.9277C9.08789 19.541 9.17383 19.1543 9.3457 18.7676C9.51758 18.3809 9.77539 18.0371 10.1191 17.7363C10.291 17.4785 10.5488 17.2852 10.8926 17.1562C11.2363 16.9844 11.6445 16.8984 12.1172 16.8984C12.5898 16.8984 12.998 16.9629 13.3418 17.0918C13.7285 17.1777 14.0938 17.3711 14.4375 17.6719C14.7383 17.9727 14.9316 18.3379 15.0176 18.7676C15.1035 19.1973 15.1465 19.584 15.1465 19.9277C15.1465 20.3574 15.082 20.7656 14.9531 21.1523C14.8672 21.4961 14.7168 21.7754 14.502 21.9902C14.0293 22.334 13.6211 22.5918 13.2773 22.7637C12.9336 22.8926 12.5469 22.957 12.1172 22.957ZM12.1172 17.7363C11.9453 17.7363 11.709 17.7793 11.4082 17.8652C11.1074 17.9082 10.8926 18.0371 10.7637 18.252C10.5059 18.5098 10.3125 18.7891 10.1836 19.0898C10.0547 19.3906 9.99023 19.6699 9.99023 19.9277C9.99023 20.1855 10.0332 20.4219 10.1191 20.6367C10.248 20.8516 10.4414 21.0879 10.6992 21.3457C10.957 21.6465 11.2148 21.8613 11.4727 21.9902C11.7305 22.0762 11.9453 22.1191 12.1172 22.1191C12.418 22.1191 12.6973 22.0762 12.9551 21.9902C13.2129 21.8613 13.5352 21.6465 13.9219 21.3457C14.0508 21.2168 14.1367 21.0234 14.1797 20.7656C14.2656 20.5078 14.3086 20.2285 14.3086 19.9277C14.3086 19.541 14.2656 19.2188 14.1797 18.9609C14.1367 18.6602 14.0508 18.4453 13.9219 18.3164C13.6211 18.1016 13.3418 17.9512 13.084 17.8652C12.8262 17.7793 12.5039 17.7363 12.1172 17.7363ZM6.76758 22.957C6.33789 22.957 5.95117 22.8926 5.60742 22.7637C5.30664 22.5918 5.02734 22.334 4.76953 21.9902C4.46875 21.7754 4.25391 21.4961 4.125 21.1523C3.99609 20.8086 3.93164 20.4004 3.93164 19.9277C3.93164 19.3691 3.99609 18.918 4.125 18.5742C4.25391 18.1875 4.44727 17.9082 4.70508 17.7363C5.00586 17.3496 5.32812 17.1133 5.67188 17.0273C6.05859 16.9414 6.42383 16.8984 6.76758 16.8984C7.24023 16.8984 7.64844 16.9629 7.99219 17.0918C8.33594 17.2207 8.61523 17.4355 8.83008 17.7363C9.13086 17.9512 9.36719 18.252 9.53906 18.6387C9.71094 19.0254 9.79688 19.4551 9.79688 19.9277C9.79688 20.3145 9.71094 20.7012 9.53906 21.0879C9.36719 21.4316 9.13086 21.7109 8.83008 21.9258C8.6582 22.2695 8.40039 22.5273 8.05664 22.6992C7.71289 22.8711 7.2832 22.957 6.76758 22.957ZM6.76758 17.7363C6.33789 17.7363 6.01562 17.8008 5.80078 17.9297C5.62891 18.0156 5.5 18.123 5.41406 18.252C5.41406 18.2949 5.39258 18.3379 5.34961 18.3809C5.34961 18.3809 5.32812 18.3809 5.28516 18.3809C5.11328 18.5098 4.98438 18.7031 4.89844 18.9609C4.8125 19.2188 4.76953 19.541 4.76953 19.9277C4.76953 20.0996 4.79102 20.3359 4.83398 20.6367C4.91992 20.9375 5.07031 21.1523 5.28516 21.2812C5.32812 21.3242 5.34961 21.3457 5.34961 21.3457C5.34961 21.3457 5.37109 21.3672 5.41406 21.4102C5.62891 21.7109 5.84375 21.9043 6.05859 21.9902C6.27344 22.0332 6.50977 22.0547 6.76758 22.0547C7.24023 22.0547 7.5625 21.9902 7.73438 21.8613C7.90625 21.7324 8.03516 21.6035 8.12109 21.4746C8.12109 21.4316 8.14258 21.4102 8.18555 21.4102C8.22852 21.3672 8.25 21.3242 8.25 21.2812C8.46484 21.1523 8.63672 20.959 8.76562 20.7012C8.89453 20.4434 8.95898 20.1855 8.95898 19.9277C8.95898 19.584 8.89453 19.2832 8.76562 19.0254C8.63672 18.7246 8.46484 18.5098 8.25 18.3809C8.25 18.3809 8.22852 18.3809 8.18555 18.3809C8.18555 18.3379 8.16406 18.2949 8.12109 18.252C7.99219 18.0371 7.77734 17.9082 7.47656 17.8652C7.21875 17.7793 6.98242 17.7363 6.76758 17.7363ZM17.6602 13.418C17.1875 13.418 16.7793 13.3535 16.4355 13.2246C16.1348 13.0527 15.8555 12.7734 15.5977 12.3867C15.3828 12.1719 15.168 11.9141 14.9531 11.6133C14.7383 11.2695 14.6309 10.8828 14.6309 10.4531C14.6309 10.0664 14.6953 9.74414 14.8242 9.48633C14.9961 9.22852 15.1895 8.9707 15.4043 8.71289L15.5977 8.45508C15.8984 8.1543 16.1992 7.93945 16.5 7.81055C16.8438 7.63867 17.2305 7.55273 17.6602 7.55273C18.1758 7.55273 18.584 7.61719 18.8848 7.74609C19.2285 7.875 19.5508 8.08984 19.8516 8.39062C20.0664 8.69141 20.2598 9.01367 20.4316 9.35742C20.6035 9.6582 20.6895 10.0234 20.6895 10.4531C20.6895 10.8828 20.625 11.2266 20.4961 11.4844C20.3672 11.7422 20.2168 11.9785 20.0449 12.1934L19.916 12.3867C19.5723 12.8164 19.2285 13.0957 18.8848 13.2246C18.541 13.3535 18.1328 13.418 17.6602 13.418ZM17.6602 8.45508C17.3594 8.45508 17.1016 8.49805 16.8867 8.58398C16.6719 8.66992 16.457 8.79883 16.2422 8.9707L16.1133 9.22852C15.8984 9.48633 15.748 9.70117 15.6621 9.87305C15.5762 10.002 15.5332 10.1953 15.5332 10.4531C15.5332 10.668 15.5762 10.9043 15.6621 11.1621C15.791 11.377 15.9844 11.6133 16.2422 11.8711C16.5 12.1719 16.7363 12.3652 16.9512 12.4512C17.166 12.5371 17.4023 12.5801 17.6602 12.5801C18.0469 12.5801 18.3477 12.5371 18.5625 12.4512C18.7773 12.3652 18.9922 12.1719 19.207 11.8711L19.3359 11.6777C19.5078 11.4629 19.6367 11.291 19.7227 11.1621C19.8086 10.9902 19.8516 10.7539 19.8516 10.4531C19.8516 10.1523 19.7871 9.89453 19.6582 9.67969C19.5293 9.42188 19.3789 9.16406 19.207 8.90625C19.0352 8.73438 18.8203 8.62695 18.5625 8.58398C18.3477 8.49805 18.0469 8.45508 17.6602 8.45508ZM17.6602 22.957C17.1875 22.957 16.7793 22.8711 16.4355 22.6992C16.1348 22.5273 15.8555 22.2695 15.5977 21.9258C15.3828 21.7109 15.168 21.4531 14.9531 21.1523C14.7383 20.8086 14.6309 20.4004 14.6309 19.9277C14.6309 19.541 14.7168 19.1543 14.8887 18.7676C15.0605 18.3809 15.2969 18.0371 15.5977 17.7363C15.8555 17.3496 16.1562 17.1133 16.5 17.0273C16.8867 16.9414 17.2734 16.8984 17.6602 16.8984C18.1758 16.8984 18.584 16.9629 18.8848 17.0918C19.2285 17.2207 19.5508 17.4355 19.8516 17.7363C20.0664 18.0371 20.2598 18.3594 20.4316 18.7031C20.6035 19.0039 20.6895 19.4121 20.6895 19.9277C20.6895 20.3574 20.6035 20.7227 20.4316 21.0234C20.2598 21.3242 20.0879 21.6035 19.916 21.8613C19.5723 22.334 19.2285 22.6348 18.8848 22.7637C18.541 22.8926 18.1328 22.957 17.6602 22.957ZM17.6602 17.7363C17.2305 17.7363 16.9082 17.8008 16.6934 17.9297C16.5215 18.0156 16.3926 18.123 16.3066 18.252C16.0488 18.5098 15.8555 18.7891 15.7266 19.0898C15.5977 19.3906 15.5332 19.6699 15.5332 19.9277C15.5332 20.1855 15.5762 20.4219 15.6621 20.6367C15.791 20.8516 15.9844 21.0879 16.2422 21.3457C16.5 21.6465 16.7363 21.8613 16.9512 21.9902C17.166 22.0762 17.4023 22.1191 17.6602 22.1191C18.0469 22.1191 18.3477 22.0762 18.5625 21.9902C18.7773 21.8613 18.9922 21.668 19.207 21.4102C19.3789 21.1523 19.5293 20.916 19.6582 20.7012C19.7871 20.4863 19.8516 20.2285 19.8516 19.9277C19.8516 19.541 19.7871 19.2402 19.6582 19.0254C19.5293 18.7676 19.3789 18.5098 19.207 18.252C19.0352 18.0801 18.8203 17.9512 18.5625 17.8652C18.3477 17.7793 18.0469 17.7363 17.6602 17.7363ZM62.2617 18.123C61.7461 18.123 61.3164 18.0586 60.9727 17.9297C60.6289 17.8008 60.3066 17.5859 60.0059 17.2852C59.748 17.0273 59.5547 16.7266 59.4258 16.3828C59.2969 15.9961 59.2324 15.5664 59.2324 15.0938C59.2324 14.8359 59.2969 14.5137 59.4258 14.127C59.5547 13.6973 59.748 13.332 60.0059 13.0312C60.3066 12.7734 60.6289 12.5801 60.9727 12.4512C61.3164 12.3223 61.7461 12.2578 62.2617 12.2578C62.6914 12.2578 63.0566 12.3223 63.3574 12.4512C63.7012 12.5801 64.002 12.7734 64.2598 13.0312C64.4316 13.2891 64.6035 13.6113 64.7754 13.998C64.9902 14.3848 65.0977 14.75 65.0977 15.0938C65.0977 15.4375 65.0332 15.7812 64.9043 16.125C64.7754 16.4688 64.582 16.834 64.3242 17.2207C64.0234 17.5645 63.7012 17.8008 63.3574 17.9297C63.0566 18.0586 62.6914 18.123 62.2617 18.123ZM62.2617 13.0957C61.875 13.0957 61.5527 13.1387 61.2949 13.2246C61.0801 13.3105 60.8652 13.4609 60.6504 13.6758C60.4355 13.8906 60.2852 14.1484 60.1992 14.4492C60.1133 14.707 60.0703 14.9219 60.0703 15.0938C60.0703 15.4375 60.1133 15.7383 60.1992 15.9961C60.3281 16.2539 60.4785 16.4902 60.6504 16.7051C60.8652 16.9199 61.0801 17.0703 61.2949 17.1562C61.5527 17.1992 61.875 17.2207 62.2617 17.2207C62.5625 17.2207 62.8203 17.1777 63.0352 17.0918C63.25 17.0059 63.4648 16.877 63.6797 16.7051C63.7656 16.5332 63.873 16.2969 64.002 15.9961C64.1738 15.6953 64.2598 15.3945 64.2598 15.0938C64.2598 14.9219 64.1953 14.707 64.0664 14.4492C63.9375 14.1484 63.7871 13.8691 63.6152 13.6113C63.4434 13.4395 63.25 13.3105 63.0352 13.2246C62.8203 13.1387 62.5625 13.0957 62.2617 13.0957ZM59.4902 13.418C58.9746 13.418 58.5234 13.332 58.1367 13.1602C57.793 12.9883 57.4922 12.7305 57.2344 12.3867C56.9336 12.1289 56.7188 11.8496 56.5898 11.5488C56.5039 11.248 56.4609 10.8828 56.4609 10.4531C56.4609 10.0234 56.5254 9.6582 56.6543 9.35742C56.7832 9.01367 56.998 8.69141 57.2988 8.39062C57.5566 8.13281 57.8574 7.93945 58.2012 7.81055C58.5879 7.63867 59.0176 7.55273 59.4902 7.55273C59.6621 7.55273 59.9414 7.5957 60.3281 7.68164C60.7578 7.76758 61.1445 8.00391 61.4883 8.39062C61.7891 8.69141 62.0039 9.01367 62.1328 9.35742C62.2617 9.6582 62.3262 10.0234 62.3262 10.4531C62.3262 10.8828 62.2617 11.248 62.1328 11.5488C62.0469 11.8496 61.832 12.1504 61.4883 12.4512C61.1875 12.8809 60.8223 13.1602 60.3926 13.2891C60.0059 13.375 59.7051 13.418 59.4902 13.418ZM59.4902 8.45508C59.1465 8.45508 58.8242 8.49805 58.5234 8.58398C58.2656 8.66992 58.0508 8.79883 57.8789 8.9707C57.6641 9.18555 57.5137 9.40039 57.4277 9.61523C57.3418 9.83008 57.2988 10.1094 57.2988 10.4531C57.2988 10.7969 57.3418 11.0762 57.4277 11.291C57.5137 11.4629 57.6641 11.6562 57.8789 11.8711C58.0938 12.1289 58.3086 12.3223 58.5234 12.4512C58.7812 12.5371 59.1035 12.5801 59.4902 12.5801C59.6621 12.5801 59.877 12.5371 60.1348 12.4512C60.3926 12.3652 60.6289 12.1719 60.8438 11.8711C61.1016 11.6562 61.2734 11.4629 61.3594 11.291C61.4453 11.0762 61.4883 10.7969 61.4883 10.4531C61.4883 10.1094 61.4453 9.83008 61.3594 9.61523C61.2734 9.40039 61.123 9.18555 60.9082 8.9707C60.6504 8.71289 60.3711 8.5625 60.0703 8.51953C59.7695 8.47656 59.5762 8.45508 59.4902 8.45508ZM53.9473 13.418C53.4746 13.418 53.0664 13.3535 52.7227 13.2246C52.4219 13.0527 52.1426 12.7734 51.8848 12.3867C51.627 12.1719 51.3906 11.9355 51.1758 11.6777C51.0039 11.377 50.918 10.9688 50.918 10.4531C50.918 9.98047 51.0254 9.59375 51.2402 9.29297C51.4551 8.94922 51.6699 8.64844 51.8848 8.39062C52.1855 8.08984 52.4863 7.875 52.7871 7.74609C53.1309 7.61719 53.5176 7.55273 53.9473 7.55273C54.4199 7.55273 54.8281 7.63867 55.1719 7.81055C55.5156 7.93945 55.7949 8.13281 56.0098 8.39062C56.3105 8.60547 56.5469 8.90625 56.7188 9.29297C56.8906 9.63672 56.9766 10.0234 56.9766 10.4531C56.9766 10.8828 56.8906 11.2695 56.7188 11.6133C56.5469 11.957 56.3105 12.2363 56.0098 12.4512C55.8379 12.7949 55.5801 13.0527 55.2363 13.2246C54.8926 13.3535 54.4629 13.418 53.9473 13.418ZM53.9473 8.45508C53.6465 8.45508 53.3887 8.49805 53.1738 8.58398C52.959 8.66992 52.7441 8.79883 52.5293 8.9707C52.2715 9.27148 52.0781 9.5293 51.9492 9.74414C51.8203 9.95898 51.7559 10.1953 51.7559 10.4531C51.7559 10.7969 51.8203 11.0547 51.9492 11.2266C52.0781 11.3984 52.2715 11.6133 52.5293 11.8711C52.7441 12.1719 52.959 12.3652 53.1738 12.4512C53.3887 12.5371 53.6465 12.5801 53.9473 12.5801C54.4199 12.5801 54.7422 12.5156 54.9141 12.3867C55.0859 12.2148 55.2148 12.0645 55.3008 11.9355C55.3008 11.9355 55.3008 11.9141 55.3008 11.8711C55.3438 11.8281 55.3867 11.8066 55.4297 11.8066C55.6875 11.6348 55.8594 11.4414 55.9453 11.2266C56.0742 11.0117 56.1387 10.7539 56.1387 10.4531C56.1387 10.1523 56.0742 9.87305 55.9453 9.61523C55.8164 9.35742 55.6445 9.16406 55.4297 9.03516C55.4297 9.03516 55.4082 9.03516 55.3652 9.03516C55.3652 8.99219 55.3438 8.94922 55.3008 8.90625C55.1719 8.69141 54.957 8.5625 54.6562 8.51953C54.3555 8.47656 54.1191 8.45508 53.9473 8.45508ZM56.5254 18.123C56.0957 18.123 55.709 18.0586 55.3652 17.9297C55.0645 17.8008 54.7852 17.5859 54.5273 17.2852C54.2266 16.8984 54.0117 16.5332 53.8828 16.1895C53.7539 15.8027 53.6895 15.4375 53.6895 15.0938C53.6895 14.75 53.7754 14.3848 53.9473 13.998C54.1621 13.6113 54.334 13.3105 54.4629 13.0957C54.7637 12.7949 55.0645 12.5801 55.3652 12.4512C55.709 12.3223 56.0957 12.2578 56.5254 12.2578C57.041 12.2578 57.4707 12.3223 57.8145 12.4512C58.1582 12.5801 58.459 12.7734 58.7168 13.0312C59.1035 13.418 59.3398 13.8262 59.4258 14.2559C59.5117 14.6426 59.5547 14.9219 59.5547 15.0938C59.5547 15.5664 59.4902 15.9961 59.3613 16.3828C59.2324 16.7266 59.0176 17.0273 58.7168 17.2852C58.459 17.5859 58.1582 17.8008 57.8145 17.9297C57.4707 18.0586 57.041 18.123 56.5254 18.123ZM56.5254 13.0957C56.2246 13.0957 55.9668 13.1387 55.752 13.2246C55.5371 13.3105 55.3223 13.4609 55.1074 13.6758C54.9355 13.9336 54.7852 14.1914 54.6562 14.4492C54.5703 14.707 54.5273 14.9219 54.5273 15.0938C54.5273 15.3945 54.5918 15.6953 54.7207 15.9961C54.8926 16.2969 55.043 16.5547 55.1719 16.7695C55.3438 16.9414 55.5371 17.0703 55.752 17.1562C55.9668 17.1992 56.2246 17.2207 56.5254 17.2207C56.9121 17.2207 57.2129 17.1992 57.4277 17.1562C57.6855 17.0703 57.9219 16.9199 58.1367 16.7051C58.3086 16.4902 58.4375 16.2539 58.5234 15.9961C58.6523 15.7383 58.7168 15.4375 58.7168 15.0938C58.7168 15.0078 58.6738 14.8145 58.5879 14.5137C58.5449 14.2129 58.3945 13.9336 58.1367 13.6758C57.9219 13.4609 57.6855 13.3105 57.4277 13.2246C57.2129 13.1387 56.9121 13.0957 56.5254 13.0957ZM53.7539 22.957C53.4102 22.957 53.0664 22.8926 52.7227 22.7637C52.4219 22.5918 52.0996 22.334 51.7559 21.9902C51.498 21.8184 51.2832 21.5605 51.1113 21.2168C50.9824 20.8301 50.918 20.4004 50.918 19.9277C50.918 19.3691 50.9824 18.918 51.1113 18.5742C51.2832 18.1875 51.5195 17.8867 51.8203 17.6719C52.0781 17.4141 52.3574 17.2207 52.6582 17.0918C52.959 16.9629 53.3242 16.8984 53.7539 16.8984C54.2266 16.8984 54.6348 16.9629 54.9785 17.0918C55.3652 17.2207 55.709 17.4355 56.0098 17.7363C56.2676 17.9082 56.4824 18.209 56.6543 18.6387C56.8691 19.0254 56.9766 19.4551 56.9766 19.9277C56.9766 20.3574 56.8906 20.7441 56.7188 21.0879C56.5469 21.4316 56.2891 21.7324 55.9453 21.9902C55.6875 22.291 55.3652 22.5273 54.9785 22.6992C54.6348 22.8711 54.2266 22.957 53.7539 22.957ZM53.7539 17.7363C53.4531 17.7363 53.1953 17.8008 52.9805 17.9297C52.7656 18.0156 52.5508 18.1445 52.3359 18.3164C52.1641 18.4453 52.0137 18.6602 51.8848 18.9609C51.7988 19.2188 51.7559 19.541 51.7559 19.9277C51.7559 20.0996 51.7773 20.3359 51.8203 20.6367C51.9062 20.9375 52.0566 21.1523 52.2715 21.2812C52.6582 21.625 52.959 21.8398 53.1738 21.9258C53.3887 22.0117 53.582 22.0547 53.7539 22.0547C54.1406 22.0547 54.4414 22.0117 54.6562 21.9258C54.9141 21.7969 55.1289 21.625 55.3008 21.4102C55.3438 21.3672 55.3652 21.3457 55.3652 21.3457C55.4082 21.3457 55.4297 21.3242 55.4297 21.2812C55.6875 21.1523 55.8594 20.9805 55.9453 20.7656C56.0742 20.5078 56.1387 20.2285 56.1387 19.9277C56.1387 19.584 56.0742 19.2832 55.9453 19.0254C55.8164 18.7246 55.6445 18.5098 55.4297 18.3809C55.2148 18.166 54.957 18.0156 54.6562 17.9297C54.3984 17.8008 54.0977 17.7363 53.7539 17.7363ZM59.4902 22.957C59.1035 22.957 58.6953 22.9141 58.2656 22.8281C57.8359 22.6992 57.4922 22.3984 57.2344 21.9258C56.9766 21.625 56.7832 21.3242 56.6543 21.0234C56.5254 20.7227 56.4609 20.3574 56.4609 19.9277C56.4609 19.4121 56.5254 19.0039 56.6543 18.7031C56.7832 18.3594 56.998 18.0371 57.2988 17.7363C57.4707 17.4785 57.7285 17.2852 58.0723 17.1562C58.459 16.9844 58.9316 16.8984 59.4902 16.8984C59.9629 16.8984 60.3711 16.9629 60.7148 17.0918C61.0586 17.2207 61.3164 17.4355 61.4883 17.7363C61.7891 17.9082 62.0039 18.1875 62.1328 18.5742C62.2617 18.918 62.3262 19.3691 62.3262 19.9277C62.3262 20.4004 62.2617 20.8086 62.1328 21.1523C62.0039 21.4961 61.7891 21.7754 61.4883 21.9902C61.1445 22.4199 60.7793 22.6992 60.3926 22.8281C60.0059 22.9141 59.7051 22.957 59.4902 22.957ZM59.4902 17.7363C59.0605 17.7363 58.7168 17.7793 58.459 17.8652C58.2012 17.9512 58.0293 18.0801 57.9434 18.252C57.6855 18.5098 57.5137 18.7676 57.4277 19.0254C57.3418 19.2402 57.2988 19.541 57.2988 19.9277C57.2988 20.2285 57.3418 20.4863 57.4277 20.7012C57.5137 20.916 57.6641 21.1309 57.8789 21.3457C57.8789 21.3457 57.8789 21.3672 57.8789 21.4102C57.9219 21.4102 57.9434 21.4316 57.9434 21.4746C58.0723 21.6895 58.2441 21.8613 58.459 21.9902C58.7168 22.0762 59.0605 22.1191 59.4902 22.1191C59.6621 22.1191 59.877 22.0762 60.1348 21.9902C60.3926 21.8613 60.6289 21.668 60.8438 21.4102C60.8867 21.3672 60.9082 21.3457 60.9082 21.3457C60.9082 21.3457 60.9297 21.3242 60.9727 21.2812C61.1875 21.1523 61.3164 20.959 61.3594 20.7012C61.4453 20.4004 61.4883 20.1426 61.4883 19.9277C61.4883 19.541 61.4453 19.2188 61.3594 18.9609C61.2734 18.7031 61.1445 18.5098 60.9727 18.3809C60.9297 18.3809 60.8867 18.3809 60.8438 18.3809C60.8438 18.3379 60.8438 18.2949 60.8438 18.252C60.7148 18.0371 60.5 17.9082 60.1992 17.8652C59.8984 17.7793 59.6621 17.7363 59.4902 17.7363ZM6.76758 13.418C6.33789 13.418 5.95117 13.3535 5.60742 13.2246C5.30664 13.0527 5.02734 12.7949 4.76953 12.4512C4.38281 12.1934 4.14648 11.8926 4.06055 11.5488C3.97461 11.1621 3.93164 10.7969 3.93164 10.4531C3.93164 9.9375 3.99609 9.50781 4.125 9.16406C4.29688 8.82031 4.5332 8.54102 4.83398 8.32617C5.0918 8.06836 5.37109 7.875 5.67188 7.74609C5.97266 7.61719 6.33789 7.55273 6.76758 7.55273C7.24023 7.55273 7.64844 7.63867 7.99219 7.81055C8.33594 7.93945 8.61523 8.13281 8.83008 8.39062C9.13086 8.60547 9.36719 8.90625 9.53906 9.29297C9.71094 9.63672 9.79688 10.0234 9.79688 10.4531C9.79688 10.8828 9.71094 11.2695 9.53906 11.6133C9.41016 11.9141 9.17383 12.1934 8.83008 12.4512C8.6582 12.7949 8.40039 13.0527 8.05664 13.2246C7.71289 13.3535 7.2832 13.418 6.76758 13.418ZM6.76758 8.45508C6.4668 8.45508 6.20898 8.49805 5.99414 8.58398C5.7793 8.66992 5.56445 8.79883 5.34961 8.9707C5.0918 9.14258 4.91992 9.37891 4.83398 9.67969C4.79102 9.98047 4.76953 10.2383 4.76953 10.4531C4.76953 10.8828 4.8125 11.1836 4.89844 11.3555C4.98438 11.5273 5.11328 11.6777 5.28516 11.8066C5.32812 11.8066 5.34961 11.8281 5.34961 11.8711C5.34961 11.8711 5.37109 11.8711 5.41406 11.8711C5.62891 12.1719 5.84375 12.3652 6.05859 12.4512C6.27344 12.5371 6.50977 12.5801 6.76758 12.5801C7.24023 12.5801 7.5625 12.5156 7.73438 12.3867C7.90625 12.2148 8.03516 12.0645 8.12109 11.9355C8.12109 11.9355 8.14258 11.9141 8.18555 11.8711C8.22852 11.8281 8.25 11.8066 8.25 11.8066C8.50781 11.6348 8.67969 11.4414 8.76562 11.2266C8.89453 11.0117 8.95898 10.7539 8.95898 10.4531C8.95898 10.1523 8.89453 9.87305 8.76562 9.61523C8.63672 9.35742 8.46484 9.16406 8.25 9.03516C8.25 9.03516 8.22852 9.03516 8.18555 9.03516C8.18555 8.99219 8.16406 8.94922 8.12109 8.90625C7.99219 8.69141 7.77734 8.5625 7.47656 8.51953C7.21875 8.47656 6.98242 8.45508 6.76758 8.45508ZM48.4043 13.418C47.9316 13.418 47.5234 13.3535 47.1797 13.2246C46.8359 13.0527 46.5566 12.7949 46.3418 12.4512C46.041 12.2363 45.8047 11.957 45.6328 11.6133C45.4609 11.2695 45.375 10.8828 45.375 10.4531C45.375 10.0234 45.4609 9.63672 45.6328 9.29297C45.8477 8.90625 46.1055 8.60547 46.4062 8.39062C46.5781 8.13281 46.8359 7.93945 47.1797 7.81055C47.5234 7.63867 47.9316 7.55273 48.4043 7.55273C48.834 7.55273 49.1992 7.61719 49.5 7.74609C49.8438 7.875 50.166 8.08984 50.4668 8.39062C50.8535 8.77734 51.1113 9.12109 51.2402 9.42188C51.3691 9.67969 51.4336 10.0234 51.4336 10.4531C51.4336 10.8828 51.3477 11.2695 51.1758 11.6133C51.0469 11.9141 50.8105 12.1934 50.4668 12.4512C50.166 12.7949 49.8652 13.0527 49.5645 13.2246C49.2637 13.3535 48.877 13.418 48.4043 13.418ZM48.4043 8.45508C48.2324 8.45508 47.9961 8.47656 47.6953 8.51953C47.3945 8.5625 47.1797 8.69141 47.0508 8.90625C47.0508 8.94922 47.0293 8.99219 46.9863 9.03516C46.9863 9.03516 46.9648 9.03516 46.9219 9.03516C46.75 9.16406 46.5996 9.35742 46.4707 9.61523C46.3418 9.87305 46.2773 10.1523 46.2773 10.4531C46.2773 10.7539 46.3203 11.0117 46.4062 11.2266C46.5352 11.4414 46.707 11.6348 46.9219 11.8066C46.9648 11.8066 46.9863 11.8281 46.9863 11.8711C47.0293 11.9141 47.0508 11.9355 47.0508 11.9355C47.1367 12.0645 47.2656 12.2148 47.4375 12.3867C47.6094 12.5156 47.9316 12.5801 48.4043 12.5801C48.7051 12.5801 48.9629 12.5371 49.1777 12.4512C49.3926 12.3652 49.6074 12.1719 49.8223 11.8711C49.8652 11.8281 49.8867 11.8066 49.8867 11.8066C50.1875 11.5918 50.3809 11.377 50.4668 11.1621C50.5527 10.9473 50.5957 10.7109 50.5957 10.4531C50.5957 10.1523 50.5527 9.91602 50.4668 9.74414C50.3809 9.57227 50.166 9.31445 49.8223 8.9707C49.6504 8.79883 49.4355 8.66992 49.1777 8.58398C48.9629 8.49805 48.7051 8.45508 48.4043 8.45508ZM48.4043 22.957C47.9316 22.957 47.5234 22.8711 47.1797 22.6992C46.8359 22.5273 46.5566 22.2695 46.3418 21.9258C46.041 21.7109 45.8047 21.4316 45.6328 21.0879C45.4609 20.7012 45.375 20.3145 45.375 19.9277C45.375 19.4551 45.4609 19.0254 45.6328 18.6387C45.8047 18.252 46.0625 17.9512 46.4062 17.7363C46.6641 17.3496 46.9648 17.1133 47.3086 17.0273C47.6953 16.9414 48.0605 16.8984 48.4043 16.8984C48.834 16.8984 49.1992 16.9629 49.5 17.0918C49.8438 17.2207 50.166 17.4355 50.4668 17.7363C50.7246 17.9941 50.9395 18.2949 51.1113 18.6387C51.3262 18.9824 51.4336 19.4121 51.4336 19.9277C51.4336 20.4004 51.3262 20.8086 51.1113 21.1523C50.8965 21.4531 50.6816 21.7324 50.4668 21.9902C50.209 22.334 49.9082 22.5918 49.5645 22.7637C49.2637 22.8926 48.877 22.957 48.4043 22.957ZM48.4043 17.7363C47.9746 17.7363 47.6523 17.8008 47.4375 17.9297C47.2656 18.0156 47.1367 18.123 47.0508 18.252C47.0508 18.2949 47.0293 18.3379 46.9863 18.3809C46.9863 18.3809 46.9648 18.3809 46.9219 18.3809C46.707 18.5098 46.5352 18.7246 46.4062 19.0254C46.3203 19.2832 46.2773 19.584 46.2773 19.9277C46.2773 20.1855 46.3418 20.4434 46.4707 20.7012C46.5996 20.959 46.75 21.1523 46.9219 21.2812C46.9648 21.3242 46.9863 21.3672 46.9863 21.4102C47.0293 21.4102 47.0508 21.4316 47.0508 21.4746C47.1367 21.6035 47.2656 21.7539 47.4375 21.9258C47.6094 22.0547 47.9316 22.1191 48.4043 22.1191C48.7051 22.1191 48.9629 22.0762 49.1777 21.9902C49.3926 21.9043 49.6074 21.7109 49.8223 21.4102C50.0801 21.1094 50.2734 20.8516 50.4023 20.6367C50.5312 20.4219 50.5957 20.1855 50.5957 19.9277C50.5957 19.584 50.5312 19.3047 50.4023 19.0898C50.2734 18.832 50.0801 18.5742 49.8223 18.3164C49.6504 18.1445 49.4355 18.0156 49.1777 17.9297C48.9629 17.8008 48.7051 17.7363 48.4043 17.7363ZM12.1172 13.418C11.9023 13.418 11.5801 13.375 11.1504 13.2891C10.7637 13.1602 10.3984 12.8594 10.0547 12.3867C9.83984 12.1719 9.625 11.9141 9.41016 11.6133C9.19531 11.2695 9.08789 10.8828 9.08789 10.4531C9.08789 10.0664 9.15234 9.74414 9.28125 9.48633C9.45312 9.22852 9.64648 8.9707 9.86133 8.71289L10.0547 8.45508C10.4414 8.06836 10.8281 7.83203 11.2148 7.74609C11.6445 7.61719 11.9453 7.55273 12.1172 7.55273C12.5898 7.55273 12.998 7.61719 13.3418 7.74609C13.7285 7.875 14.0938 8.06836 14.4375 8.32617C14.6953 8.58398 14.8672 8.88477 14.9531 9.22852C15.082 9.57227 15.1465 9.98047 15.1465 10.4531C15.1465 10.9258 15.082 11.334 14.9531 11.6777C14.8672 11.9785 14.7168 12.2363 14.502 12.4512C14.1582 12.8379 13.793 13.0957 13.4062 13.2246C13.0625 13.3535 12.6328 13.418 12.1172 13.418ZM12.1172 8.45508C12.0312 8.45508 11.8379 8.47656 11.5371 8.51953C11.2363 8.5625 10.957 8.71289 10.6992 8.9707L10.5703 9.22852C10.3555 9.48633 10.2051 9.70117 10.1191 9.87305C10.0332 10.002 9.99023 10.1953 9.99023 10.4531C9.99023 10.668 10.0332 10.9043 10.1191 11.1621C10.248 11.377 10.4414 11.6133 10.6992 11.8711C10.957 12.1719 11.2148 12.3652 11.4727 12.4512C11.7305 12.5371 11.9453 12.5801 12.1172 12.5801C12.5039 12.5801 12.8047 12.5371 13.0195 12.4512C13.2773 12.3652 13.5781 12.1719 13.9219 11.8711C14.0078 11.7422 14.0938 11.5918 14.1797 11.4199C14.2656 11.2051 14.3086 10.8828 14.3086 10.4531C14.3086 10.1094 14.2656 9.80859 14.1797 9.55078C14.0938 9.29297 14.0078 9.09961 13.9219 8.9707C13.6211 8.79883 13.3418 8.66992 13.084 8.58398C12.8262 8.49805 12.5039 8.45508 12.1172 8.45508ZM14.8887 18.123C14.459 18.123 14.0723 18.0586 13.7285 17.9297C13.4277 17.8008 13.1484 17.5859 12.8906 17.2852C12.5898 17.0273 12.375 16.7266 12.2461 16.3828C12.1172 15.9961 12.0527 15.5664 12.0527 15.0938C12.0527 14.9219 12.0957 14.6426 12.1816 14.2559C12.2676 13.8262 12.5039 13.418 12.8906 13.0312C13.1484 12.7734 13.4277 12.5801 13.7285 12.4512C14.0723 12.3223 14.459 12.2578 14.8887 12.2578C15.3613 12.2578 15.7695 12.3223 16.1133 12.4512C16.5 12.5801 16.8223 12.7734 17.0801 13.0312C17.4668 13.418 17.7031 13.8262 17.7891 14.2559C17.875 14.6426 17.918 14.9219 17.918 15.0938C17.918 15.5664 17.8535 15.9961 17.7246 16.3828C17.5957 16.7266 17.3809 17.0273 17.0801 17.2852C16.8223 17.543 16.5 17.7578 16.1133 17.9297C15.7695 18.0586 15.3613 18.123 14.8887 18.123ZM14.8887 13.0957C14.5879 13.0957 14.3301 13.1387 14.1152 13.2246C13.9004 13.3105 13.6855 13.4609 13.4707 13.6758C13.2129 13.9336 13.041 14.2129 12.9551 14.5137C12.9121 14.8145 12.8906 15.0078 12.8906 15.0938C12.8906 15.4375 12.9336 15.7383 13.0195 15.9961C13.1484 16.2539 13.2988 16.4902 13.4707 16.7051C13.6855 16.877 13.9004 17.0059 14.1152 17.0918C14.3301 17.1777 14.5879 17.2207 14.8887 17.2207C15.2324 17.2207 15.5332 17.1777 15.791 17.0918C16.0918 17.0059 16.3281 16.877 16.5 16.7051C16.6719 16.4902 16.8008 16.2539 16.8867 15.9961C17.0156 15.7383 17.0801 15.4375 17.0801 15.0938C17.0801 15.0078 17.0371 14.8145 16.9512 14.5137C16.9082 14.2129 16.7578 13.9336 16.5 13.6758C16.3281 13.5039 16.0918 13.375 15.791 13.2891C15.5332 13.1602 15.2324 13.0957 14.8887 13.0957ZM9.53906 18.123C9.15234 18.123 8.76562 18.0801 8.37891 17.9941C8.03516 17.8652 7.73438 17.6074 7.47656 17.2207C7.17578 16.9629 6.93945 16.6406 6.76758 16.2539C6.5957 15.8672 6.50977 15.4805 6.50977 15.0938C6.50977 14.793 6.5957 14.4492 6.76758 14.0625C6.93945 13.6758 7.17578 13.332 7.47656 13.0312C7.73438 12.6875 8.03516 12.4727 8.37891 12.3867C8.76562 12.3008 9.15234 12.2578 9.53906 12.2578C9.96875 12.2578 10.334 12.3223 10.6348 12.4512C10.9785 12.5801 11.3008 12.7734 11.6016 13.0312C11.6016 13.0742 11.6016 13.1172 11.6016 13.1602C11.6445 13.1602 11.666 13.1602 11.666 13.1602C11.8809 13.6328 12.0527 14.0195 12.1816 14.3203C12.3105 14.6211 12.375 14.8789 12.375 15.0938C12.375 15.3945 12.2891 15.7383 12.1172 16.125C11.9883 16.4688 11.8379 16.8125 11.666 17.1562C11.666 17.1992 11.6445 17.2422 11.6016 17.2852C11.3008 17.5859 10.9785 17.8008 10.6348 17.9297C10.334 18.0586 9.96875 18.123 9.53906 18.123ZM9.53906 13.0957C9.10938 13.0957 8.78711 13.1387 8.57227 13.2246C8.40039 13.3105 8.27148 13.4395 8.18555 13.6113C7.92773 13.8691 7.73438 14.127 7.60547 14.3848C7.47656 14.6426 7.41211 14.8789 7.41211 15.0938C7.41211 15.3516 7.47656 15.6309 7.60547 15.9316C7.73438 16.1895 7.90625 16.4473 8.12109 16.7051C8.25 16.877 8.40039 17.0059 8.57227 17.0918C8.78711 17.1777 9.10938 17.2207 9.53906 17.2207C9.83984 17.2207 10.0977 17.1992 10.3125 17.1562C10.5273 17.0703 10.7207 16.9199 10.8926 16.7051C11.0645 16.4473 11.2148 16.168 11.3438 15.8672C11.4727 15.5664 11.5371 15.3086 11.5371 15.0938C11.5371 14.9648 11.4512 14.75 11.2793 14.4492C11.1504 14.1484 11.0215 13.8691 10.8926 13.6113C10.7207 13.4395 10.5273 13.3105 10.3125 13.2246C10.0977 13.1387 9.83984 13.0957 9.53906 13.0957ZM3.99609 18.123C3.52344 18.123 3.09375 18.0586 2.70703 17.9297C2.36328 17.7578 2.10547 17.5215 1.93359 17.2207C1.67578 16.9629 1.48242 16.6836 1.35352 16.3828C1.22461 16.0391 1.16016 15.6094 1.16016 15.0938C1.16016 14.9219 1.20312 14.6426 1.28906 14.2559C1.375 13.8262 1.61133 13.418 1.99805 13.0312C2.25586 12.7734 2.53516 12.5801 2.83594 12.4512C3.17969 12.3223 3.56641 12.2578 3.99609 12.2578C4.42578 12.2578 4.79102 12.3223 5.0918 12.4512C5.43555 12.5371 5.80078 12.7305 6.1875 13.0312C6.57422 13.418 6.81055 13.8262 6.89648 14.2559C6.98242 14.6426 7.02539 14.9219 7.02539 15.0938C7.02539 15.5664 6.96094 15.9961 6.83203 16.3828C6.70312 16.7266 6.48828 17.0273 6.1875 17.2852C5.80078 17.5859 5.43555 17.8008 5.0918 17.9297C4.79102 18.0586 4.42578 18.123 3.99609 18.123ZM3.99609 13.0957C3.69531 13.0957 3.4375 13.1387 3.22266 13.2246C3.00781 13.3105 2.79297 13.4609 2.57812 13.6758C2.32031 13.9336 2.14844 14.2129 2.0625 14.5137C2.01953 14.8145 1.99805 15.0078 1.99805 15.0938C1.99805 15.4805 2.04102 15.8027 2.12695 16.0605C2.21289 16.2754 2.36328 16.4902 2.57812 16.7051C2.75 16.9199 2.98633 17.0703 3.28711 17.1562C3.58789 17.1992 3.82422 17.2207 3.99609 17.2207C4.29688 17.2207 4.57617 17.1777 4.83398 17.0918C5.0918 17.0059 5.37109 16.8555 5.67188 16.6406C5.84375 16.4688 5.97266 16.2539 6.05859 15.9961C6.14453 15.7383 6.1875 15.4375 6.1875 15.0938C6.1875 15.0078 6.14453 14.8145 6.05859 14.5137C6.01562 14.2129 5.86523 13.9336 5.60742 13.6758C5.34961 13.4609 5.0918 13.3105 4.83398 13.2246C4.57617 13.1387 4.29688 13.0957 3.99609 13.0957ZM57.4277 23.5371H44.0859C43.9141 23.5371 43.7637 23.4727 43.6348 23.3438C43.5059 23.2148 43.4414 23.0645 43.4414 22.8926C43.4414 22.6777 43.5059 22.5273 43.6348 22.4414C43.7637 22.3125 43.9141 22.248 44.0859 22.248H57.4277C58.459 22.248 59.3828 22.0762 60.1992 21.7324C61.0156 21.3887 61.7676 20.873 62.4551 20.1855C63.1426 19.498 63.6582 18.7246 64.002 17.8652C64.3457 17.0059 64.5176 16.082 64.5176 15.0938C64.5176 14.2344 64.3457 13.3965 64.002 12.5801C63.6582 11.7637 63.1426 10.8828 62.4551 9.9375C61.7676 9.42188 60.9727 9.03516 60.0703 8.77734C59.2109 8.47656 58.3301 8.32617 57.4277 8.32617H44.2793C44.1074 8.32617 43.957 8.26172 43.8281 8.13281C43.6992 8.00391 43.6348 7.85352 43.6348 7.68164C43.6348 7.4668 43.6992 7.31641 43.8281 7.23047C43.957 7.10156 44.1074 7.03711 44.2793 7.03711H57.4277C58.502 7.03711 59.5332 7.20898 60.5215 7.55273C61.5527 7.89648 62.498 8.39062 63.3574 9.03516C64.2168 10.1094 64.8398 11.1406 65.2266 12.1289C65.6133 13.0742 65.8066 14.0625 65.8066 15.0938C65.8066 16.2539 65.5918 17.3496 65.1621 18.3809C64.7754 19.4121 64.1738 20.3145 63.3574 21.0879C62.541 21.9043 61.6387 22.5273 60.6504 22.957C59.7051 23.3438 58.6309 23.5371 57.4277 23.5371ZM33.0645 25.5996C32.9785 25.5996 32.8926 25.5781 32.8066 25.5352C32.7207 25.4922 32.6562 25.4492 32.6133 25.4062L22.752 15.5449C22.666 15.502 22.6016 15.4375 22.5586 15.3516C22.5586 15.2656 22.5586 15.1797 22.5586 15.0938C22.5586 15.0078 22.5586 14.9219 22.5586 14.8359C22.6016 14.75 22.666 14.6855 22.752 14.6426L32.6133 4.78125C32.6562 4.73828 32.6992 4.69531 32.7422 4.65234C32.8281 4.60938 32.9355 4.58789 33.0645 4.58789C33.1504 4.58789 33.2148 4.60938 33.2578 4.65234C33.3438 4.69531 33.4297 4.73828 33.5156 4.78125L43.1836 14.6426C43.3125 14.7715 43.377 14.9219 43.377 15.0938C43.377 15.2656 43.3125 15.416 43.1836 15.5449L33.5156 25.4062C33.4297 25.4492 33.3438 25.4922 33.2578 25.5352C33.2148 25.5781 33.1504 25.5996 33.0645 25.5996ZM24.1055 15.0938L33.0645 23.9883L41.8301 15.0938L33.0645 6.13477L24.1055 15.0938ZM21.9785 23.5371H8.50781C7.30469 23.5371 6.20898 23.3223 5.2207 22.8926C4.23242 22.4629 3.4375 21.8398 2.83594 21.0234C1.97656 20.293 1.33203 19.4336 0.902344 18.4453C0.472656 17.457 0.257812 16.3398 0.257812 15.0938C0.257812 14.0195 0.472656 13.0098 0.902344 12.0645C1.33203 11.0762 1.97656 10.0879 2.83594 9.09961C3.65234 8.41211 4.5332 7.89648 5.47852 7.55273C6.42383 7.20898 7.43359 7.03711 8.50781 7.03711H21.9785C22.1504 7.03711 22.3008 7.10156 22.4297 7.23047C22.5586 7.31641 22.623 7.4668 22.623 7.68164C22.623 7.85352 22.5586 8.00391 22.4297 8.13281C22.3008 8.26172 22.1504 8.32617 21.9785 8.32617H8.50781C7.60547 8.32617 6.74609 8.47656 5.92969 8.77734C5.15625 9.03516 4.42578 9.46484 3.73828 10.0664C3.00781 10.8828 2.44922 11.6992 2.0625 12.5156C1.71875 13.332 1.54688 14.1914 1.54688 15.0938C1.54688 16.125 1.71875 17.0703 2.0625 17.9297C2.44922 18.7461 3.00781 19.4766 3.73828 20.1211C4.42578 20.9805 5.19922 21.5605 6.05859 21.8613C6.96094 22.1191 7.77734 22.248 8.50781 22.248H21.9785C22.1504 22.248 22.3008 22.3125 22.4297 22.4414C22.5586 22.5273 22.623 22.6777 22.623 22.8926C22.623 23.0645 22.5586 23.2148 22.4297 23.3438C22.3008 23.4727 22.1504 23.5371 21.9785 23.5371ZM33.1934 29.4023C31.2598 29.4023 29.4336 29.0586 27.7148 28.3711C26.0391 27.6406 24.4922 26.5879 23.0742 25.2129C22.7734 24.9551 22.4727 24.6758 22.1719 24.375C21.8711 24.0742 21.5703 23.752 21.2695 23.4082C20.4961 22.1621 19.8945 20.8516 19.4648 19.4766C19.0781 18.1016 18.8848 16.6406 18.8848 15.0938C18.8848 13.5469 19.0781 12.1074 19.4648 10.7754C19.8945 9.40039 20.4961 8.19727 21.2695 7.16602C21.4844 6.73633 21.7422 6.34961 22.043 6.00586C22.3867 5.66211 22.752 5.36133 23.1387 5.10352C24.4707 3.68555 25.9746 2.63281 27.6504 1.94531C29.3262 1.25781 31.1738 0.914062 33.1934 0.914062C35.2988 0.914062 37.168 1.25781 38.8008 1.94531C40.4336 2.63281 41.873 3.68555 43.1191 5.10352C43.377 5.27539 43.5703 5.46875 43.6992 5.68359C43.8711 5.89844 44.043 6.0918 44.2148 6.26367C44.3008 6.39258 44.3867 6.52148 44.4727 6.65039C44.6016 6.7793 44.7305 6.9082 44.8594 7.03711C45.7188 8.06836 46.3418 9.25 46.7285 10.582C47.1582 11.9141 47.373 13.418 47.373 15.0938C47.373 16.6836 47.1582 18.1875 46.7285 19.6055C46.2988 20.9805 45.6543 22.248 44.7949 23.4082L44.6016 23.6016C44.3867 23.9023 44.1504 24.2031 43.8926 24.5039C43.6777 24.7617 43.3984 25.0195 43.0547 25.2773C41.8086 26.6523 40.3477 27.6836 38.6719 28.3711C37.0391 29.0586 35.2129 29.4023 33.1934 29.4023ZM33.1934 2.6543C31.3457 2.6543 29.6914 2.95508 28.2305 3.55664C26.8125 4.1582 25.5234 5.08203 24.3633 6.32812C24.3203 6.37109 24.2773 6.41406 24.2344 6.45703C24.2344 6.45703 24.2129 6.47852 24.1699 6.52148C23.8691 6.69336 23.5898 6.9082 23.332 7.16602C23.1172 7.42383 22.9238 7.72461 22.752 8.06836C22.0215 9.01367 21.4844 10.0879 21.1406 11.291C20.7969 12.4512 20.625 13.7188 20.625 15.0938C20.625 16.4688 20.7969 17.7793 21.1406 19.0254C21.4844 20.2285 22 21.3457 22.6875 22.377C22.9023 22.6777 23.1387 22.957 23.3965 23.2148C23.6543 23.4297 23.9336 23.666 24.2344 23.9238C25.5234 25.2129 26.8984 26.1797 28.3594 26.8242C29.8633 27.4258 31.4746 27.7266 33.1934 27.7266C34.9551 27.7266 36.5664 27.4258 38.0273 26.8242C39.4883 26.1797 40.7773 25.2344 41.8945 23.9883C42.2383 23.7734 42.4961 23.5586 42.668 23.3438C42.8398 23.1289 43.0332 22.8711 43.248 22.5703L43.377 22.377C44.1504 21.3457 44.709 20.2285 45.0527 19.0254C45.4395 17.8223 45.6328 16.5117 45.6328 15.0938C45.6328 13.6328 45.4609 12.3223 45.1172 11.1621C44.7734 10.002 44.2793 9.01367 43.6348 8.19727C43.5059 8.06836 43.377 7.93945 43.248 7.81055C43.1191 7.63867 42.9902 7.48828 42.8613 7.35938C42.7324 7.1875 42.6035 7.03711 42.4746 6.9082C42.3457 6.73633 42.1953 6.58594 42.0234 6.45703C41.9805 6.41406 41.9375 6.39258 41.8945 6.39258C41.8945 6.39258 41.8945 6.37109 41.8945 6.32812C40.8203 5.08203 39.5527 4.1582 38.0918 3.55664C36.6738 2.95508 35.041 2.6543 33.1934 2.6543Z" fill="black"/>
</svg>
