<svg width="33" height="32" viewBox="0 0 33 32" fill="none" xmlns="http://www.w3.org/2000/svg">
<path fill-rule="evenodd" clip-rule="evenodd" d="M0.799805 16C0.799805 7.16344 7.96325 0 16.7998 0C25.6364 0 32.7998 7.16344 32.7998 16C32.7998 24.8366 25.6364 32 16.7998 32C7.96325 32 0.799805 24.8366 0.799805 16ZM8.7998 16C8.7998 11.6 12.3998 8 16.7998 8C21.1998 8 24.7998 11.6 24.6998 15.6C24.6998 20 21.0998 23.6 16.6998 23.6C15.8998 23.6 15.0998 23.5 14.3998 23.3C14.6998 22.8 14.9998 22.2 15.1998 21.6C15.2998 21.2 15.7998 19.4 15.7998 19.4C16.0998 19.9 16.8998 20.4 17.7998 20.4C20.3998 20.4 22.0998 18 22.0998 14.9C22.0998 12.5 20.0998 10.3 16.9998 10.3C13.1998 10.3 11.2998 13 11.2998 15.3C11.2998 16.7 11.7998 17.9 12.8998 18.4C13.0998 18.5 13.1998 18.4 13.2998 18.2C13.3998 18.1 13.4998 17.7 13.4998 17.6C13.5705 17.4586 13.5412 17.4172 13.4826 17.3343C13.4584 17.3 13.4291 17.2586 13.3998 17.2C13.0998 16.8 12.8998 16.3 12.8998 15.6C12.8998 13.6 14.3998 11.8 16.7998 11.8C18.8998 11.8 20.0998 13.1 20.0998 14.9C20.0998 17.3 19.0998 19.2 17.5998 19.2C16.6998 19.2 16.0998 18.5 16.2998 17.7C16.3833 17.2826 16.519 16.8477 16.6489 16.4318C16.8301 15.8514 16.9998 15.3078 16.9998 14.9C16.9998 14.2 16.5998 13.7 15.8998 13.7C15.0998 13.7 14.3998 14.6 14.3998 15.8C14.3998 16.6 14.6998 17.1 14.6998 17.1C14.6998 17.1 13.8998 20.8 13.6998 21.5C13.5998 22.1 13.5998 22.6999 13.5998 23.2999C10.7998 22.0999 8.7998 19.3 8.7998 16Z" fill="white"/>
</svg>
