<svg width="38" height="38" viewBox="0 0 38 38" fill="none" xmlns="http://www.w3.org/2000/svg">
<path d="M22.8477 29.7988C23.1486 29.7988 23.4494 29.6879 23.6869 29.4504L33.2977 19.8396C33.7569 19.3804 33.7569 18.6204 33.2977 18.1613L23.6869 8.55043C23.2277 8.09126 22.4677 8.09126 22.0085 8.55043C21.5494 9.0096 21.5494 9.7696 22.0085 10.2288L30.7802 19.0004L22.0085 27.7721C21.5494 28.2313 21.5494 28.9913 22.0085 29.4504C22.2302 29.6879 22.5469 29.7988 22.8477 29.7988Z" fill="white"/>
<path d="M5.54147 20.1875L32.189 20.1875C32.8381 20.1875 33.3765 19.6492 33.3765 19C33.3765 18.3508 32.8381 17.8125 32.189 17.8125L5.54147 17.8125C4.8923 17.8125 4.35397 18.3508 4.35397 19C4.35397 19.6492 4.8923 20.1875 5.54147 20.1875Z" fill="white"/>
</svg>
