<svg width="24" height="24" viewBox="0 0 24 24" fill="none" xmlns="http://www.w3.org/2000/svg">
<g clip-path="url(#clip0_505_2707)">
<path d="M15.9993 8C14.8691 8.00096 13.7519 8.24218 12.722 8.70767C11.6921 9.17316 10.7728 9.85228 10.0253 10.7C9.5488 10.4684 9.04715 10.2925 8.5303 10.176L10.2163 6.8L8.4133 5H5.5853L3.7853 6.8L5.4713 10.171C4.44227 10.3976 3.47767 10.8535 2.64942 11.5049C1.82118 12.1562 1.15066 12.9862 0.687873 13.9328C0.225086 14.8794 -0.0180313 15.9183 -0.0233484 16.9719C-0.0286654 18.0256 0.203955 19.0669 0.657165 20.0181C1.11038 20.9693 1.77248 21.806 2.59411 22.4656C3.41574 23.1253 4.3757 23.591 5.40239 23.8279C6.42908 24.0649 7.49602 24.067 8.52364 23.8341C9.55127 23.6013 10.5131 23.1394 11.3373 22.483C12.3606 23.2229 13.5445 23.71 14.7922 23.9045C16.0399 24.099 17.316 23.9954 18.5159 23.6021C19.7159 23.2089 20.8057 22.5372 21.6963 21.6419C22.5868 20.7466 23.2528 19.6533 23.6397 18.4513C24.0267 17.2492 24.1235 15.9727 23.9225 14.726C23.7214 13.4794 23.228 12.298 22.4828 11.2786C21.7376 10.2592 20.7616 9.43071 19.6347 8.86086C18.5078 8.29101 17.2621 7.99602 15.9993 8ZM11.2333 19.63C10.5693 18.7672 10.1548 17.7386 10.0353 16.6564C9.91573 15.5742 10.0956 14.48 10.5553 13.493C11.3476 14.2874 11.8463 15.3275 11.9695 16.4427C12.0927 17.5579 11.8331 18.6818 11.2333 19.63ZM1.9993 17C1.99719 16.1803 2.19717 15.3727 2.58153 14.6487C2.96589 13.9247 3.52279 13.3066 4.20295 12.8491C4.8831 12.3917 5.66554 12.1089 6.48102 12.0258C7.29651 11.9428 8.11989 12.062 8.8783 12.373C8.16475 13.7623 7.87585 15.331 8.04763 16.8834C8.21941 18.4358 8.84426 19.9033 9.8443 21.103C9.09549 21.6254 8.21771 21.9323 7.30653 21.9904C6.39536 22.0484 5.48573 21.8553 4.67668 21.4322C3.86763 21.0091 3.19018 20.3721 2.7181 19.5906C2.24602 18.8091 1.99739 17.913 1.9993 17ZM15.9993 22C14.8342 22.0004 13.6946 21.6593 12.7213 21.019C13.7059 19.6273 14.1457 17.9227 13.9573 16.2283C13.7689 14.5339 12.9655 12.9675 11.6993 11.826C12.3889 11.114 13.2441 10.5838 14.1885 10.283C15.133 9.98218 16.1373 9.92003 17.1116 10.1021C18.086 10.2842 19 10.7048 19.7721 11.3264C20.5442 11.948 21.1503 12.7512 21.5361 13.6642C21.922 14.5772 22.0757 15.5716 21.9834 16.5585C21.8912 17.5454 21.5558 18.4941 21.0074 19.3198C20.459 20.1454 19.7146 20.8224 18.8406 21.2901C17.9667 21.7578 16.9905 22.0017 15.9993 22Z" fill="url(#paint0_linear_505_2707)"/>
<path d="M11.2921 0.292857L9.00391 2.58105L10.4181 3.99527L12.7063 1.70707L11.2921 0.292857Z" fill="url(#paint1_linear_505_2707)"/>
<path d="M2.70718 0.292818L1.29297 1.70703L3.54298 3.95705L4.9572 2.54283L2.70718 0.292818Z" fill="url(#paint2_linear_505_2707)"/>
<path d="M8 0H6V3H8V0Z" fill="url(#paint3_linear_505_2707)"/>
</g>
<defs>
<linearGradient id="paint0_linear_505_2707" x1="-0.0234376" y1="15.7996" x2="24.1585" y2="15.6379" gradientUnits="userSpaceOnUse">
<stop stop-color="#04AFFF"/>
<stop offset="1" stop-color="#58C1F1"/>
</linearGradient>
<linearGradient id="paint1_linear_505_2707" x1="9.80744" y1="3.38459" x2="12.0886" y2="1.06404" gradientUnits="userSpaceOnUse">
<stop stop-color="#04AFFF"/>
<stop offset="1" stop-color="#58C1F1"/>
</linearGradient>
<linearGradient id="paint2_linear_505_2707" x1="2.57139" y1="2.98545" x2="3.9888" y2="1.55859" gradientUnits="userSpaceOnUse">
<stop stop-color="#04AFFF"/>
<stop offset="1" stop-color="#58C1F1"/>
</linearGradient>
<linearGradient id="paint3_linear_505_2707" x1="6" y1="1.70455" x2="8.0112" y2="1.69746" gradientUnits="userSpaceOnUse">
<stop stop-color="#04AFFF"/>
<stop offset="1" stop-color="#58C1F1"/>
</linearGradient>
<clipPath id="clip0_505_2707">
<rect width="24" height="24" fill="white"/>
</clipPath>
</defs>
</svg>
