<svg width="30" height="31" viewBox="0 0 30 31" fill="none" xmlns="http://www.w3.org/2000/svg">
<path fill-rule="evenodd" clip-rule="evenodd" d="M22.1339 4.37881C21.8995 4.1444 21.5815 4.0127 21.25 4.0127H8.75001C8.41849 4.0127 8.10055 4.1444 7.86613 4.37881L2.86613 9.37881C2.42626 9.81868 2.37678 10.515 2.75001 11.0127L14 26.0127C14.236 26.3274 14.6065 26.5127 15 26.5127C15.3934 26.5127 15.7639 26.3274 16 26.0127L27.25 11.0127C27.6233 10.515 27.5738 9.81868 27.1339 9.37881L22.1339 4.37881ZM20.7323 6.5127L24.5995 10.38L15 23.1793L5.40049 10.38L9.26778 6.5127H20.7323Z" fill="black"/>
</svg>
