<svg width="30" height="31" viewBox="0 0 30 31" fill="none" xmlns="http://www.w3.org/2000/svg">
<g clip-path="url(#clip0_947_16581)">
<path d="M19.6209 7.86857L18.3068 5.52881C18.1366 5.22559 17.8161 5.03809 17.4684 5.03809H12.5004C12.153 5.03809 11.8325 5.22559 11.662 5.52881L10.3479 7.86857C10.1335 8.25031 10.204 8.7282 10.5187 9.03172L14.0963 12.4811C14.3511 12.7355 14.6784 12.8625 15.004 12.8625C15.3264 12.8625 15.6476 12.7378 15.8953 12.49L19.453 9.0285C19.7651 8.72434 19.834 8.24867 19.6209 7.86857ZM14.9985 10.6798L12.3882 8.16277L13.0632 6.96148H16.9059L17.5822 8.166L14.9985 10.6798Z" fill="black"/>
<path d="M15.0006 0.262695C14.4695 0.262695 14.0391 0.693125 14.0391 1.22422V3.27553C14.0391 3.80662 14.4695 4.23705 15.0006 4.23705C15.5317 4.23705 15.9621 3.80662 15.9621 3.27553V1.22422C15.9621 0.693125 15.5317 0.262695 15.0006 0.262695Z" fill="black"/>
<path d="M21.6634 2.24068C21.2522 1.90606 20.6461 1.96822 20.3108 2.38043L19.0609 3.91887C18.7262 4.33108 18.7888 4.93652 19.2009 5.27145C19.3791 5.41629 19.5935 5.48684 19.8066 5.48684C20.0861 5.48684 20.3634 5.36537 20.5534 5.1317L21.8034 3.59326C22.1381 3.18111 22.0756 2.57566 21.6634 2.24068Z" fill="black"/>
<path d="M10.9385 3.91919L9.6885 2.38075C9.35387 1.96855 8.74842 1.90573 8.33592 2.24071C7.92342 2.57564 7.86091 3.18109 8.19589 3.59329L9.44587 5.13173C9.63594 5.36569 9.91286 5.48687 10.1926 5.48687C10.4055 5.48687 10.6199 5.41638 10.7984 5.27183C11.2109 4.93685 11.2734 4.3314 10.9385 3.91919Z" fill="black"/>
<path d="M15.0005 11.1602C9.73389 11.1602 5.44922 15.4451 5.44922 20.7115C5.44922 25.9778 9.73389 30.2627 15.0005 30.2627C20.2669 30.2627 24.5518 25.9781 24.5518 20.7114C24.5518 15.4447 20.2672 11.1602 15.0005 11.1602ZM15.0005 28.3397C10.7944 28.3397 7.37232 24.9176 7.37232 20.7115C7.37232 16.5054 10.7944 13.0832 15.0005 13.0832C19.2066 13.0832 22.6287 16.5053 22.6287 20.7114C22.6287 24.9175 19.2066 28.3397 15.0005 28.3397Z" fill="black"/>
</g>
<defs>
<clipPath id="clip0_947_16581">
<rect width="30" height="30" fill="white" transform="translate(0 0.262695)"/>
</clipPath>
</defs>
</svg>
