<svg width="24" height="25" viewBox="0 0 24 25" fill="none" xmlns="http://www.w3.org/2000/svg">
<path d="M9 14.4619L15 17.4619M15 8.46191L9 11.4619M18 21.9619C16.3431 21.9619 15 20.6188 15 18.9619C15 17.3051 16.3431 15.9619 18 15.9619C19.6569 15.9619 21 17.3051 21 18.9619C21 20.6188 19.6569 21.9619 18 21.9619ZM6 15.9619C4.34315 15.9619 3 14.6188 3 12.9619C3 11.3051 4.34315 9.96191 6 9.96191C7.65685 9.96191 9 11.3051 9 12.9619C9 14.6188 7.65685 15.9619 6 15.9619ZM18 9.96191C16.3431 9.96191 15 8.61877 15 6.96191C15 5.30506 16.3431 3.96191 18 3.96191C19.6569 3.96191 21 5.30506 21 6.96191C21 8.61877 19.6569 9.96191 18 9.96191Z" stroke="#141414" stroke-width="2" stroke-linecap="round" stroke-linejoin="round"/>
</svg>
