<svg width="24" height="25" viewBox="0 0 24 25" fill="none" xmlns="http://www.w3.org/2000/svg">
<g clip-path="url(#clip0_949_16672)">
<path d="M18.581 2.40294L12.316 0.313936C12.1109 0.245615 11.8891 0.245615 11.684 0.313936L5.419 2.40294C4.42291 2.73382 3.55642 3.37019 2.94265 4.22165C2.32887 5.0731 1.99904 6.09632 2 7.14594V12.2629C2 19.8259 11.2 24.0029 11.594 24.1769C11.7218 24.2337 11.8601 24.2631 12 24.2631C12.1399 24.2631 12.2782 24.2337 12.406 24.1769C12.8 24.0029 22 19.8259 22 12.2629V7.14594C22.001 6.09632 21.6711 5.0731 21.0574 4.22165C20.4436 3.37019 19.5771 2.73382 18.581 2.40294ZM20 12.2629C20 17.7179 13.681 21.2959 12 22.1519C10.317 21.2989 4 17.7319 4 12.2629V7.14594C4.00006 6.51621 4.19828 5.90248 4.56657 5.39168C4.93486 4.88088 5.45455 4.49893 6.052 4.29994L12 2.31694L17.948 4.29994C18.5455 4.49893 19.0651 4.88088 19.4334 5.39168C19.8017 5.90248 19.9999 6.51621 20 7.14594V12.2629Z" fill="black"/>
<path d="M15.3008 8.56277L11.1128 12.7628L8.86877 10.4228C8.77871 10.3243 8.66986 10.2449 8.54863 10.1891C8.4274 10.1334 8.29623 10.1025 8.16287 10.0982C8.0295 10.0939 7.89663 10.1164 7.77207 10.1643C7.64752 10.2121 7.53381 10.2844 7.43764 10.3769C7.34147 10.4694 7.26478 10.5803 7.2121 10.7028C7.15942 10.8254 7.1318 10.9573 7.13088 11.0908C7.12996 11.2242 7.15576 11.3565 7.20675 11.4798C7.25773 11.6031 7.33288 11.715 7.42777 11.8088L9.73377 14.2088C9.90574 14.3945 10.1136 14.5435 10.3448 14.6466C10.576 14.7497 10.8257 14.8049 11.0788 14.8088H11.1118C11.3598 14.8096 11.6056 14.7611 11.8347 14.6662C12.0639 14.5713 12.272 14.4318 12.4468 14.2558L16.7188 9.98377C16.8121 9.89066 16.8861 9.78009 16.9367 9.65836C16.9873 9.53664 17.0134 9.40614 17.0135 9.27433C17.0136 9.14252 16.9878 9.01197 16.9375 8.89014C16.8872 8.7683 16.8134 8.65757 16.7203 8.56427C16.6272 8.47097 16.5166 8.39691 16.3949 8.34634C16.2731 8.29577 16.1426 8.26967 16.0108 8.26953C15.879 8.26939 15.7485 8.29522 15.6266 8.34553C15.5048 8.39584 15.3941 8.46966 15.3008 8.56277Z" fill="black"/>
</g>
<defs>
<clipPath id="clip0_949_16672">
<rect width="24" height="24" fill="white" transform="translate(0 0.262695)"/>
</clipPath>
</defs>
</svg>
