<svg width="32" height="34" viewBox="0 0 32 34" fill="none" xmlns="http://www.w3.org/2000/svg">
<path d="M24.1664 19.8047C21.9422 19.8047 20.1328 21.6707 20.1328 23.9644C20.1328 26.2581 21.9422 28.124 24.1664 28.124C26.391 28.124 28.2001 26.2581 28.2001 23.9644C28.2001 21.6707 26.3906 19.8047 24.1664 19.8047ZM24.1664 26.0442C23.0542 26.0442 22.1496 25.1114 22.1496 23.9644C22.1496 22.8174 23.0542 21.8845 24.1664 21.8845C25.2787 21.8845 26.1833 22.8174 26.1833 23.9644C26.1833 25.1114 25.2787 26.0442 24.1664 26.0442Z" fill="#333333"/>
<path d="M10.3852 19.8047C8.161 19.8047 6.35156 21.6707 6.35156 23.9644C6.35156 26.2581 8.161 28.124 10.3852 28.124C12.6094 28.124 14.4188 26.2581 14.4188 23.9644C14.4188 21.6707 12.6094 19.8047 10.3852 19.8047ZM10.3852 26.0442C9.27294 26.0442 8.36838 25.1114 8.36838 23.9644C8.36838 22.8174 9.27294 21.8845 10.3852 21.8845C11.4971 21.8845 12.402 22.8174 12.402 23.9644C12.402 25.1114 11.4974 26.0442 10.3852 26.0442Z" fill="#333333"/>
<path d="M26.884 7.89786C26.7126 7.54672 26.364 7.3252 25.9828 7.3252H20.6719V9.40504H25.3609L28.1068 15.0372L29.9092 14.1026L26.884 7.89786Z" fill="#333333"/>
<path d="M21.142 22.959H13.5117V25.0388H21.142V22.959Z" fill="#333333"/>
<path d="M7.35959 22.959H3.86384C3.30684 22.959 2.85547 23.4245 2.85547 23.9989C2.85547 24.5733 3.30691 25.0388 3.86384 25.0388H7.35966C7.91666 25.0388 8.36803 24.5732 8.36803 23.9989C8.36803 23.4245 7.91659 22.959 7.35959 22.959Z" fill="#333333"/>
<path d="M31.7865 16.602L29.803 13.9675C29.6125 13.7138 29.3183 13.5654 29.0067 13.5654H21.679V6.28598C21.679 5.71157 21.2275 5.24609 20.6706 5.24609H3.86384C3.30684 5.24609 2.85547 5.71164 2.85547 6.28598C2.85547 6.86032 3.30691 7.32587 3.86384 7.32587H19.6622V14.6053C19.6622 15.1797 20.1136 15.6452 20.6705 15.6452H28.5129L29.9815 17.596V22.9592H27.1915C26.6345 22.9592 26.1832 23.4248 26.1832 23.9991C26.1832 24.5735 26.6346 25.039 27.1915 25.039H30.9898C31.5468 25.039 31.9982 24.5735 31.9983 23.9991V17.2398C31.9983 17.0089 31.9237 16.7843 31.7865 16.602Z" fill="#333333"/>
<path d="M7.2955 17.6895H2.65681C2.09981 17.6895 1.64844 18.155 1.64844 18.7293C1.64844 19.3037 2.09987 19.7692 2.65681 19.7692H7.29544C7.85244 19.7692 8.30381 19.3037 8.30381 18.7293C8.30387 18.155 7.85244 17.6895 7.2955 17.6895Z" fill="#333333"/>
<path d="M9.61344 13.5996H1.00838C0.451438 13.5996 0 14.0652 0 14.6396C0 15.214 0.451438 15.6794 1.00838 15.6794H9.61344C10.1704 15.6794 10.6218 15.2139 10.6218 14.6396C10.6218 14.0652 10.1704 13.5996 9.61344 13.5996Z" fill="#333333"/>
<path d="M11.2619 9.50977H2.65681C2.09981 9.50977 1.64844 9.97531 1.64844 10.5497C1.64844 11.1241 2.09987 11.5895 2.65681 11.5895H11.2619C11.8189 11.5895 12.2703 11.124 12.2703 10.5497C12.2703 9.97531 11.8189 9.50977 11.2619 9.50977Z" fill="#333333"/>
</svg>
