<svg width="66" height="29" viewBox="0 0 66 29" fill="none" xmlns="http://www.w3.org/2000/svg">
<path d="M9.15234 17.7676H3.80273C3.24414 17.7676 2.77148 17.6816 2.38477 17.5098C2.04102 17.2949 1.67578 17.0586 1.28906 16.8008C0.945312 16.6289 0.666016 16.3496 0.451172 15.9629C0.279297 15.5762 0.193359 15.1465 0.193359 14.6738C0.193359 14.2441 0.279297 13.8359 0.451172 13.4492C0.666016 13.0195 0.945312 12.6758 1.28906 12.418C1.71875 12.0742 2.14844 11.8809 2.57812 11.8379C3.00781 11.7949 3.41602 11.7734 3.80273 11.7734H9.15234C9.32422 11.7734 9.47461 11.8379 9.60352 11.9668C9.73242 12.0957 9.79688 12.2461 9.79688 12.418C9.79688 12.5898 9.73242 12.7402 9.60352 12.8691C9.47461 12.998 9.32422 13.0625 9.15234 13.0625H3.80273C3.45898 13.0625 3.13672 13.084 2.83594 13.127C2.57812 13.1699 2.32031 13.2773 2.0625 13.4492C1.80469 13.6641 1.63281 13.8789 1.54688 14.0938C1.50391 14.3086 1.48242 14.502 1.48242 14.6738C1.48242 14.8457 1.50391 15.0391 1.54688 15.2539C1.63281 15.4258 1.7832 15.5547 1.99805 15.6406C2.38477 15.9414 2.68555 16.1562 2.90039 16.2852C3.1582 16.4141 3.45898 16.4785 3.80273 16.4785H9.15234C9.32422 16.4785 9.47461 16.543 9.60352 16.6719C9.73242 16.8008 9.79688 16.9512 9.79688 17.123C9.79688 17.2949 9.73242 17.4453 9.60352 17.5742C9.47461 17.7031 9.32422 17.7676 9.15234 17.7676ZM33 25.0508C32.9141 25.0938 32.8281 25.0938 32.7422 25.0508C32.6562 25.0078 32.5918 24.9434 32.5488 24.8574L22.8164 14.9961C22.6875 14.8672 22.623 14.7168 22.623 14.5449C22.623 14.3301 22.6875 14.1582 22.8164 14.0293L32.3555 4.29688C32.3984 4.25391 32.4629 4.21094 32.5488 4.16797C32.6348 4.125 32.7207 4.10352 32.8066 4.10352C32.8926 4.10352 32.9785 4.125 33.0645 4.16797C33.1504 4.21094 33.2148 4.25391 33.2578 4.29688L43.1836 14.2227C43.2266 14.2656 43.2695 14.3301 43.3125 14.416C43.3555 14.502 43.377 14.5879 43.377 14.6738C43.377 14.7598 43.3555 14.8457 43.3125 14.9316C43.2695 15.0176 43.2266 15.082 43.1836 15.125L33.4512 24.8574C33.4082 24.9434 33.3438 25.0078 33.2578 25.0508C33.1719 25.0508 33.0859 25.0508 33 25.0508ZM24.1699 14.4805L33 23.5039L41.8301 14.6738L32.8066 5.71484L24.1699 14.4805ZM62.3906 17.7676H56.7832C56.6113 17.7676 56.4609 17.7031 56.332 17.5742C56.2031 17.4453 56.1387 17.2949 56.1387 17.123C56.1387 16.9512 56.2031 16.8008 56.332 16.6719C56.4609 16.543 56.6113 16.4785 56.7832 16.4785H62.3906C62.6914 16.4785 62.9492 16.4141 63.1641 16.2852C63.4219 16.1562 63.7227 15.9629 64.0664 15.7051C64.2812 15.5762 64.4316 15.4258 64.5176 15.2539C64.6035 15.082 64.6465 14.8887 64.6465 14.6738C64.6465 14.459 64.582 14.2441 64.4531 14.0293C64.3672 13.7715 64.2383 13.5996 64.0664 13.5137C63.8086 13.2988 63.5508 13.1699 63.293 13.127C63.0781 13.084 62.7773 13.0625 62.3906 13.0625H56.7832C56.6113 13.0625 56.4609 12.998 56.332 12.8691C56.2031 12.7402 56.1387 12.5898 56.1387 12.418C56.1387 12.2461 56.2031 12.0957 56.332 11.9668C56.4609 11.8379 56.6113 11.7734 56.7832 11.7734H62.3906C62.8203 11.7734 63.2285 11.7949 63.6152 11.8379C64.002 11.8809 64.4102 12.0742 64.8398 12.418C65.1836 12.6328 65.4629 12.9551 65.6777 13.3848C65.8926 13.7715 66 14.2012 66 14.6738C66 15.1035 65.8926 15.5117 65.6777 15.8984C65.4629 16.2422 65.1836 16.543 64.8398 16.8008C64.4531 17.0586 64.0664 17.2949 63.6797 17.5098C63.3359 17.6816 62.9062 17.7676 62.3906 17.7676ZM56.7832 17.7676C56.7402 17.7676 56.6758 17.7676 56.5898 17.7676C56.5469 17.7246 56.4824 17.6816 56.3965 17.6387C56.2676 17.5527 56.1816 17.4238 56.1387 17.252C56.1387 17.0371 56.1816 16.8652 56.2676 16.7363C56.4824 16.4355 56.6328 16.1348 56.7188 15.834C56.8047 15.5332 56.8477 15.1465 56.8477 14.6738C56.8477 14.2012 56.8047 13.8359 56.7188 13.5781C56.6328 13.2773 56.5039 13.041 56.332 12.8691C56.2031 12.7402 56.1387 12.5898 56.1387 12.418C56.1387 12.2461 56.2031 12.0957 56.332 11.9668C56.4609 11.8379 56.6113 11.7734 56.7832 11.7734C56.998 11.7734 57.1699 11.8379 57.2988 11.9668C57.6855 12.3535 57.9219 12.8047 58.0078 13.3203C58.0938 13.793 58.1367 14.2441 58.1367 14.6738C58.1367 15.2754 58.0723 15.8125 57.9434 16.2852C57.8145 16.7148 57.5996 17.123 57.2988 17.5098C57.2559 17.5957 57.1914 17.6602 57.1055 17.7031C57.0195 17.7461 56.9121 17.7676 56.7832 17.7676ZM13.5352 20.2168C12.6758 20.2168 11.9238 20.0879 11.2793 19.8301C10.6777 19.5293 10.0977 19.0566 9.53906 18.4121C9.53906 18.4121 9.49609 18.3691 9.41016 18.2832C9.36719 18.1973 9.32422 18.1113 9.28125 18.0254L8.76562 17.6387C8.63672 17.5098 8.55078 17.3594 8.50781 17.1875C8.50781 17.0156 8.55078 16.8652 8.63672 16.7363C8.76562 16.5645 8.91602 16.4785 9.08789 16.4785C9.25977 16.4355 9.41016 16.4785 9.53906 16.6074L10.248 17.123C10.334 17.166 10.3984 17.252 10.4414 17.3809C10.4844 17.4668 10.5059 17.5527 10.5059 17.6387C10.9355 18.0684 11.3652 18.3906 11.7949 18.6055C12.2676 18.8203 12.8477 18.9277 13.5352 18.9277C14.1797 18.9277 14.7168 18.8203 15.1465 18.6055C15.6191 18.3906 16.0703 18.0469 16.5 17.5742L16.8867 17.1875C17.1875 16.7578 17.4238 16.3281 17.5957 15.8984C17.8105 15.4688 17.918 15.0605 17.918 14.6738C17.918 14.1152 17.832 13.6211 17.6602 13.1914C17.4883 12.7617 17.2305 12.375 16.8867 12.0312C16.8438 11.9453 16.8008 11.8809 16.7578 11.8379C16.7148 11.752 16.6934 11.666 16.6934 11.5801C16.6504 11.5801 16.6289 11.5801 16.6289 11.5801C16.6289 11.5801 16.6074 11.5586 16.5645 11.5156C16.1348 11.1719 15.6621 10.9141 15.1465 10.7422C14.6309 10.5703 14.0938 10.4844 13.5352 10.4844C12.8906 10.4844 12.332 10.5703 11.8594 10.7422C11.3867 10.8711 10.9141 11.1289 10.4414 11.5156C10.3984 11.6016 10.3555 11.6875 10.3125 11.7734C10.2695 11.8594 10.2051 11.9453 10.1191 12.0312C10.1191 12.0312 10.0977 12.0527 10.0547 12.0957C10.0117 12.2246 9.96875 12.3535 9.92578 12.4824C9.88281 12.5684 9.81836 12.6758 9.73242 12.8047C9.60352 12.9336 9.45312 13.0195 9.28125 13.0625C9.10938 13.1055 8.95898 13.084 8.83008 12.998C8.6582 12.8691 8.55078 12.7188 8.50781 12.5469C8.50781 12.375 8.55078 12.2031 8.63672 12.0312C8.67969 11.9453 8.72266 11.8594 8.76562 11.7734C8.80859 11.6875 8.85156 11.623 8.89453 11.5801C8.89453 11.4941 8.91602 11.4082 8.95898 11.3223C9.04492 11.1934 9.13086 11.1074 9.2168 11.0645C9.25977 10.9785 9.32422 10.8711 9.41016 10.7422C9.49609 10.6133 9.60352 10.5059 9.73242 10.4199C10.291 9.99023 10.8711 9.68945 11.4727 9.51758C12.0742 9.30273 12.7617 9.19531 13.5352 9.19531C14.2227 9.19531 14.8887 9.30273 15.5332 9.51758C16.1777 9.73242 16.7578 10.0332 17.2734 10.4199C17.4453 10.5059 17.5742 10.6348 17.6602 10.8066C17.7891 10.9355 17.875 11.0859 17.918 11.2578C18.3477 11.6875 18.6699 12.2031 18.8848 12.8047C19.0996 13.3633 19.207 13.9863 19.207 14.6738C19.207 15.3613 19.0566 16.0059 18.7559 16.6074C18.4551 17.166 18.1543 17.6387 17.8535 18.0254L17.4668 18.4766C16.9082 19.0781 16.3281 19.5293 15.7266 19.8301C15.125 20.0879 14.3945 20.2168 13.5352 20.2168ZM9.15234 17.7676C9.02344 17.7676 8.89453 17.7461 8.76562 17.7031C8.67969 17.6172 8.61523 17.5098 8.57227 17.3809C8.40039 16.9082 8.25 16.457 8.12109 16.0273C8.03516 15.5547 7.99219 15.1035 7.99219 14.6738C7.99219 14.2441 8.03516 13.8145 8.12109 13.3848C8.25 12.9121 8.40039 12.5039 8.57227 12.1602C8.6582 11.9883 8.78711 11.8809 8.95898 11.8379C9.13086 11.752 9.30273 11.752 9.47461 11.8379C9.64648 11.9238 9.75391 12.0527 9.79688 12.2246C9.83984 12.3965 9.81836 12.5684 9.73242 12.7402C9.60352 12.998 9.49609 13.3203 9.41016 13.707C9.32422 14.0508 9.28125 14.373 9.28125 14.6738C9.28125 15.0176 9.32422 15.3828 9.41016 15.7695C9.49609 16.1133 9.625 16.4785 9.79688 16.8652C9.83984 17.0371 9.81836 17.209 9.73242 17.3809C9.68945 17.5527 9.58203 17.6602 9.41016 17.7031C9.36719 17.7461 9.32422 17.7676 9.28125 17.7676C9.23828 17.7676 9.19531 17.7676 9.15234 17.7676ZM52.4648 20.2168C51.6914 20.2168 50.9824 20.0879 50.3379 19.8301C49.7363 19.5293 49.1348 19.0781 48.5332 18.4766C48.4902 18.4336 48.4473 18.3906 48.4043 18.3477C48.4043 18.3047 48.3828 18.2617 48.3398 18.2188C48.3398 18.1758 48.3184 18.1328 48.2754 18.0898C48.2754 18.0469 48.2539 18.0039 48.2109 17.9609C47.8672 17.5742 47.5879 17.123 47.373 16.6074C47.2012 16.0488 47.0508 15.3828 46.9219 14.6094C46.9219 14.5664 46.9219 14.5449 46.9219 14.5449C46.9219 14.502 46.9219 14.459 46.9219 14.416C47.0078 13.8145 47.1367 13.2559 47.3086 12.7402C47.5234 12.2246 47.7812 11.709 48.082 11.1934L48.4688 10.6777C48.4688 10.6348 48.4688 10.6133 48.4688 10.6133C48.5117 10.5703 48.5547 10.5273 48.5977 10.4844C49.2422 10.0547 49.8652 9.73242 50.4668 9.51758C51.1113 9.30273 51.7773 9.19531 52.4648 9.19531C53.2383 9.19531 53.9473 9.30273 54.5918 9.51758C55.2363 9.68945 55.7949 9.99023 56.2676 10.4199C56.4395 10.4629 56.5684 10.5703 56.6543 10.7422C56.7832 10.8711 56.8691 10.9785 56.9121 11.0645C56.9551 11.0645 56.9766 11.0859 56.9766 11.1289C57.0195 11.1719 57.041 11.2148 57.041 11.2578C57.041 11.2578 57.084 11.3438 57.1699 11.5156C57.2559 11.6875 57.3418 11.9238 57.4277 12.2246C57.4707 12.3965 57.4492 12.5684 57.3633 12.7402C57.3203 12.8691 57.2129 12.9766 57.041 13.0625C56.8691 13.1055 56.6973 13.084 56.5254 12.998C56.3535 12.9121 56.2461 12.7832 56.2031 12.6113C56.1172 12.4395 56.0527 12.2891 56.0098 12.1602C55.9668 12.0312 55.9238 11.9453 55.8809 11.9023C55.8809 11.8594 55.8594 11.8164 55.8164 11.7734C55.7734 11.7305 55.752 11.6875 55.752 11.6445C55.709 11.6445 55.666 11.6445 55.623 11.6445C55.5801 11.6016 55.5371 11.5586 55.4941 11.5156C55.1504 11.1719 54.7207 10.9141 54.2051 10.7422C53.6895 10.5703 53.1094 10.4844 52.4648 10.4844C51.9062 10.4844 51.3906 10.5703 50.918 10.7422C50.4883 10.8711 49.9941 11.1289 49.4355 11.5156L49.1777 11.9023C48.9199 12.332 48.7051 12.7617 48.5332 13.1914C48.4043 13.5781 48.3184 14.0293 48.2754 14.5449C48.3613 15.1895 48.4688 15.7266 48.5977 16.1562C48.7695 16.5859 48.9844 16.9297 49.2422 17.1875C49.2852 17.2305 49.3066 17.2734 49.3066 17.3164C49.3496 17.3594 49.3926 17.4023 49.4355 17.4453C49.4355 17.4453 49.457 17.4668 49.5 17.5098C49.543 17.5527 49.5645 17.5957 49.5645 17.6387C50.123 18.1543 50.6172 18.498 51.0469 18.6699C51.5195 18.8418 51.9922 18.9277 52.4648 18.9277C53.1523 18.9277 53.7324 18.8203 54.2051 18.6055C54.6777 18.3906 55.0859 18.0684 55.4297 17.6387C55.4297 17.5957 55.4512 17.5527 55.4941 17.5098C55.5371 17.4668 55.5801 17.4238 55.623 17.3809C55.709 17.3809 55.7734 17.3809 55.8164 17.3809C55.8594 17.3379 55.9023 17.2949 55.9453 17.252L56.2676 16.7363C56.3535 16.6074 56.4824 16.5215 56.6543 16.4785C56.8691 16.4355 57.041 16.4785 57.1699 16.6074C57.2988 16.6934 57.3848 16.8223 57.4277 16.9941C57.4707 17.166 57.4492 17.3379 57.3633 17.5098L57.1055 17.8965C57.0195 18.0684 56.9121 18.1973 56.7832 18.2832C56.6543 18.3691 56.5469 18.4336 56.4609 18.4766C56.4609 18.4766 56.4395 18.4766 56.3965 18.4766C56.3965 18.4766 56.375 18.498 56.332 18.541C55.7734 19.2715 55.1289 19.7441 54.3984 19.959C53.668 20.1309 53.0234 20.2168 52.4648 20.2168ZM33.1934 28.918C31.2598 28.918 29.4121 28.5742 27.6504 27.8867C25.9316 27.1562 24.3203 26.1035 22.8164 24.7285C21.4414 23.3535 20.4102 21.8281 19.7227 20.1523C19.0781 18.4766 18.7559 16.6504 18.7559 14.6738C18.7559 12.7402 19.0781 10.9355 19.7227 9.25977C20.4102 7.54102 21.4414 5.97266 22.8164 4.55469C24.2773 3.13672 25.8887 2.0625 27.6504 1.33203C29.4121 0.601562 31.2598 0.236328 33.1934 0.236328C35.127 0.236328 36.9531 0.601562 38.6719 1.33203C40.3906 2.0625 41.9375 3.11523 43.3125 4.49023C44.7305 5.9082 45.7832 7.47656 46.4707 9.19531C47.2012 10.8711 47.5664 12.6973 47.5664 14.6738C47.5664 16.6504 47.2227 18.4551 46.5352 20.0879C45.8477 21.7207 44.7734 23.2461 43.3125 24.6641C41.8086 26.125 40.2188 27.1992 38.543 27.8867C36.8672 28.5742 35.084 28.918 33.1934 28.918ZM33.1934 1.97656C31.4746 1.97656 29.8418 2.29883 28.2949 2.94336C26.791 3.58789 25.373 4.5332 24.041 5.7793C22.8379 7.02539 21.9355 8.40039 21.334 9.9043C20.7754 11.3652 20.4961 12.9551 20.4961 14.6738C20.4961 16.4355 20.7754 18.0469 21.334 19.5078C21.9355 20.9258 22.8379 22.2363 24.041 23.4395C25.373 24.6855 26.791 25.6309 28.2949 26.2754C29.8418 26.877 31.4746 27.1777 33.1934 27.1777C34.8262 27.1777 36.373 26.877 37.834 26.2754C39.3379 25.6309 40.7773 24.6855 42.1523 23.4395C43.3984 22.1504 44.3223 20.7969 44.9238 19.3789C45.5254 17.9609 45.8262 16.3926 45.8262 14.6738C45.8262 12.9121 45.5254 11.3008 44.9238 9.83984C44.3223 8.37891 43.377 7.00391 42.0879 5.71484C40.8848 4.51172 39.5098 3.58789 37.9629 2.94336C36.459 2.29883 34.8691 1.97656 33.1934 1.97656Z" fill="black"/>
</svg>
