<svg width="66" height="29" viewBox="0 0 66 29" fill="none" xmlns="http://www.w3.org/2000/svg">
<path d="M57.6855 22.666H44.4082C44.2363 22.666 44.0859 22.6016 43.957 22.4727C43.8281 22.3438 43.7637 22.1934 43.7637 22.0215C43.7637 21.8496 43.8281 21.6992 43.957 21.5703C44.0859 21.4414 44.2363 21.377 44.4082 21.377H57.6855C58.6738 21.377 59.5762 21.2266 60.3926 20.9258C61.252 20.582 61.9824 20.0879 62.584 19.4434C63.3145 18.7559 63.8516 18.0039 64.1953 17.1875C64.5391 16.3711 64.7109 15.4902 64.7109 14.5449C64.7109 13.5137 64.5176 12.5684 64.1309 11.709C63.7871 10.8066 63.2715 9.96875 62.584 9.19531C61.9395 8.63672 61.209 8.22852 60.3926 7.9707C59.6191 7.66992 58.7168 7.51953 57.6855 7.51953H44.2793C44.0645 7.51953 43.8926 7.45508 43.7637 7.32617C43.6348 7.19727 43.5703 7.04687 43.5703 6.875C43.5703 6.66016 43.6348 6.48828 43.7637 6.35938C43.8926 6.23047 44.0645 6.16602 44.2793 6.16602H57.6855C58.8457 6.16602 59.8984 6.33789 60.8438 6.68164C61.832 7.02539 62.7129 7.5625 63.4863 8.29297C64.3457 9.19531 64.9688 10.1836 65.3555 11.2578C65.7852 12.2891 66 13.3848 66 14.5449C66 15.6621 65.7852 16.7148 65.3555 17.7031C64.9688 18.6484 64.3672 19.5293 63.5508 20.3457C62.8203 21.1191 61.9395 21.6992 60.9082 22.0859C59.9199 22.4727 58.8457 22.666 57.6855 22.666ZM33.2578 25.1152C33.1719 25.1152 33.0859 25.0938 33 25.0508C32.957 25.0078 32.8926 24.9648 32.8066 24.9219L22.8809 14.9961C22.8379 14.9102 22.7949 14.8457 22.752 14.8027C22.709 14.7168 22.6875 14.6094 22.6875 14.4805C22.6875 14.3945 22.709 14.3301 22.752 14.2871C22.7949 14.2012 22.8379 14.1152 22.8809 14.0293L32.8066 4.10352C32.9355 3.97461 33.0859 3.91016 33.2578 3.91016C33.4297 3.91016 33.5801 3.97461 33.709 4.10352L43.6348 14.0293C43.7637 14.1582 43.8281 14.3301 43.8281 14.5449C43.8281 14.7168 43.7637 14.8672 43.6348 14.9961L33.709 24.9219C33.666 24.9648 33.6016 25.0078 33.5156 25.0508C33.4297 25.0938 33.3438 25.1152 33.2578 25.1152ZM24.2344 14.5449L33.2578 23.5039L42.2812 14.5449L33.2578 5.52148L24.2344 14.5449ZM21.9785 22.666H8.37891C7.21875 22.666 6.16602 22.4727 5.2207 22.0859C4.27539 21.6992 3.41602 21.1191 2.64258 20.3457C1.7832 19.4863 1.13867 18.584 0.708984 17.6387C0.279297 16.6504 0.0644531 15.6191 0.0644531 14.5449C0.0644531 13.4277 0.279297 12.3535 0.708984 11.3223C1.13867 10.291 1.7832 9.30273 2.64258 8.35742C3.37305 7.62695 4.21094 7.08984 5.15625 6.74609C6.10156 6.35938 7.17578 6.16602 8.37891 6.16602L21.9785 6.35938C22.1504 6.35938 22.3008 6.42383 22.4297 6.55273C22.5586 6.68164 22.623 6.83203 22.623 7.00391C22.623 7.21875 22.5586 7.39062 22.4297 7.51953C22.3008 7.60547 22.1289 7.64844 21.9141 7.64844L8.37891 7.51953C7.34766 7.51953 6.42383 7.66992 5.60742 7.9707C4.83398 8.22852 4.16797 8.63672 3.60938 9.19531C2.83594 10.0547 2.25586 10.9355 1.86914 11.8379C1.52539 12.6973 1.35352 13.5996 1.35352 14.5449C1.35352 15.4473 1.52539 16.3066 1.86914 17.123C2.25586 17.9395 2.83594 18.7129 3.60938 19.4434C4.25391 20.0879 4.96289 20.582 5.73633 20.9258C6.50977 21.2266 7.39062 21.377 8.37891 21.377H21.9785C22.1504 21.377 22.3008 21.4414 22.4297 21.5703C22.5586 21.6992 22.623 21.8496 22.623 22.0215C22.623 22.1934 22.5586 22.3438 22.4297 22.4727C22.3008 22.6016 22.1504 22.666 21.9785 22.666ZM33.2578 28.7891C31.3242 28.7891 29.4766 28.4238 27.7148 27.6934C25.9961 26.9629 24.4492 25.9102 23.0742 24.5352C22.7305 24.2773 22.4082 23.9766 22.1074 23.6328C21.8066 23.2461 21.5273 22.8809 21.2695 22.5371C20.4531 21.4629 19.8301 20.2383 19.4004 18.8633C19.0137 17.4453 18.8203 16.0059 18.8203 14.5449C18.8203 13.041 19.0137 11.6016 19.4004 10.2266C19.8301 8.80859 20.4531 7.5625 21.2695 6.48828C21.5703 5.97266 21.8711 5.54297 22.1719 5.19922C22.4727 4.8125 22.7949 4.49023 23.1387 4.23242C24.4707 2.85742 25.9746 1.82617 27.6504 1.13867C29.3262 0.408203 31.1953 0.0429688 33.2578 0.0429688C35.3633 0.0429688 37.2539 0.408203 38.9297 1.13867C40.6055 1.82617 42.1309 2.90039 43.5059 4.36133C43.7637 4.61914 44.0215 4.94141 44.2793 5.32812C44.5801 5.67188 44.8164 6.01562 44.9883 6.35938C45.8906 7.47656 46.5781 8.72266 47.0508 10.0977C47.5234 11.4727 47.7598 12.9551 47.7598 14.5449C47.7598 16.0488 47.5449 17.4668 47.1152 18.7988C46.6855 20.1309 46.0195 21.377 45.1172 22.5371C44.8594 22.8809 44.5801 23.2246 44.2793 23.5684C44.0215 23.9121 43.7422 24.2344 43.4414 24.5352C42.0664 25.9531 40.5195 27.0273 38.8008 27.7578C37.082 28.4453 35.2344 28.7891 33.2578 28.7891ZM33.2578 1.7832C31.4102 1.7832 29.7559 2.08398 28.2949 2.68555C26.834 3.28711 25.502 4.23242 24.2988 5.52148C23.998 5.7793 23.7188 6.05859 23.4609 6.35938C23.2031 6.66016 22.9453 7.02539 22.6875 7.45508C22 8.44336 21.4629 9.53906 21.0762 10.7422C20.7324 11.9453 20.5605 13.2129 20.5605 14.5449C20.5605 15.834 20.7324 17.0801 21.0762 18.2832C21.4629 19.4863 21.9785 20.5605 22.623 21.5059C22.8809 21.8066 23.1387 22.1074 23.3965 22.4082C23.6543 22.709 23.9336 22.9883 24.2344 23.2461C25.4805 24.4922 26.877 25.4375 28.4238 26.082C29.9707 26.7266 31.582 27.0488 33.2578 27.0488C35.0195 27.0488 36.6309 26.748 38.0918 26.1465C39.5957 25.502 40.9707 24.5566 42.2168 23.3105C42.4746 23.0527 42.7324 22.7734 42.9902 22.4727C43.248 22.1289 43.4844 21.8066 43.6992 21.5059C44.4727 20.4746 45.0527 19.3789 45.4395 18.2188C45.8262 17.0586 46.0195 15.834 46.0195 14.5449C46.0195 13.127 45.8047 11.8379 45.375 10.6777C44.9883 9.47461 44.3867 8.37891 43.5703 7.39062C43.5703 7.39062 43.5488 7.36914 43.5059 7.32617C43.5059 7.2832 43.4844 7.26172 43.4414 7.26172C43.3125 6.96094 43.1406 6.66016 42.9258 6.35938C42.7109 6.05859 42.4746 5.7793 42.2168 5.52148C41.0137 4.27539 39.6816 3.35156 38.2207 2.75C36.7598 2.10547 35.1055 1.7832 33.2578 1.7832Z" fill="black"/>
</svg>
