<svg width="18" height="18" viewBox="0 0 18 18" fill="none" xmlns="http://www.w3.org/2000/svg">
<g clip-path="url(#clip0_505_3660)">
<path d="M17.0958 6.43787L11.4246 5.91188L9.17186 0.680781C9.01414 0.314495 8.49479 0.314495 8.33707 0.680781L6.08433 5.91192L0.413111 6.43787C0.0160139 6.4747 -0.144473 6.96861 0.155128 7.23179L4.43408 10.9908L3.18185 16.547C3.09417 16.9361 3.51431 17.2413 3.85721 17.0377L8.75448 14.1298L13.6518 17.0377C13.9946 17.2413 14.4148 16.9361 14.3271 16.547L13.0749 10.9908L17.3538 7.23179C17.6534 6.96861 17.4929 6.4747 17.0958 6.43787Z" fill="#FFDC64"/>
<path d="M9.17186 0.680781C9.01414 0.314495 8.49479 0.314495 8.33707 0.680781L6.08433 5.91192L0.413111 6.43787C0.0160139 6.4747 -0.144473 6.96861 0.155128 7.23179L4.43408 10.9908L3.18185 16.547C3.09417 16.9361 3.51431 17.2413 3.85721 17.0377L4.95025 16.3887C5.10154 10.1613 7.99496 5.77599 10.2858 3.26732L9.17186 0.680781Z" fill="#FFC850"/>
</g>
<defs>
<clipPath id="clip0_505_3660">
<rect width="17.509" height="17.509" fill="white"/>
</clipPath>
</defs>
</svg>
