<svg width="24" height="25" viewBox="0 0 24 25" fill="none" xmlns="http://www.w3.org/2000/svg">
<g clip-path="url(#clip0_947_16665)">
<path d="M19 5.2627H16.9C16.6679 4.13411 16.0538 3.12004 15.1613 2.39141C14.2687 1.66279 13.1522 1.26415 12 1.2627H5C3.67441 1.26428 2.40356 1.79158 1.46622 2.72892C0.528882 3.66625 0.00158786 4.9371 0 6.2627L0 15.2627C0.0025138 16.1583 0.305538 17.0272 0.860536 17.7302C1.41553 18.4331 2.19039 18.9295 3.061 19.1397C2.96676 19.6401 2.98287 20.1551 3.10819 20.6487C3.23351 21.1423 3.46503 21.6026 3.7866 21.9975C4.10816 22.3923 4.51202 22.7123 4.96999 22.935C5.42796 23.1577 5.92901 23.2777 6.43817 23.2868C6.94733 23.2959 7.45234 23.1938 7.91796 22.9875C8.38357 22.7813 8.79858 22.4759 9.13401 22.0928C9.46944 21.7096 9.71722 21.2579 9.86006 20.7691C10.0029 20.2803 10.0373 19.7662 9.961 19.2627H14.043C14.0173 19.4282 14.0036 19.5953 14.002 19.7627C14.002 20.691 14.3707 21.5812 15.0271 22.2376C15.6835 22.8939 16.5737 23.2627 17.502 23.2627C18.4303 23.2627 19.3205 22.8939 19.9769 22.2376C20.6333 21.5812 21.002 20.691 21.002 19.7627C21.0009 19.5536 20.9804 19.345 20.941 19.1397C21.8112 18.9291 22.5856 18.4326 23.1403 17.7296C23.6949 17.0267 23.9976 16.1581 24 15.2627V10.2627C23.9984 8.9371 23.4711 7.66625 22.5338 6.72892C21.5964 5.79158 20.3256 5.26428 19 5.2627ZM22 10.2627V11.2627H17V7.2627H19C19.7956 7.2627 20.5587 7.57877 21.1213 8.14138C21.6839 8.70399 22 9.46705 22 10.2627ZM2 15.2627V6.2627C2 5.46705 2.31607 4.70398 2.87868 4.14138C3.44129 3.57877 4.20435 3.2627 5 3.2627H12C12.7956 3.2627 13.5587 3.57877 14.1213 4.14138C14.6839 4.70398 15 5.46705 15 6.2627V17.2627H4C3.46957 17.2627 2.96086 17.052 2.58579 16.6769C2.21071 16.3018 2 15.7931 2 15.2627ZM8 19.7627C8 20.1605 7.84196 20.5421 7.56066 20.8234C7.27936 21.1047 6.89782 21.2627 6.5 21.2627C6.10218 21.2627 5.72064 21.1047 5.43934 20.8234C5.15804 20.5421 5 20.1605 5 19.7627C5.00061 19.5918 5.03212 19.4224 5.093 19.2627H7.907C7.96788 19.4224 7.99939 19.5918 8 19.7627ZM17.5 21.2627C17.1022 21.2627 16.7206 21.1047 16.4393 20.8234C16.158 20.5421 16 20.1605 16 19.7627C16.0004 19.5918 16.0319 19.4223 16.093 19.2627H18.907C18.9681 19.4223 18.9996 19.5918 19 19.7627C19 20.1605 18.842 20.5421 18.5607 20.8234C18.2794 21.1047 17.8978 21.2627 17.5 21.2627ZM20 17.2627H17V13.2627H22V15.2627C22 15.7931 21.7893 16.3018 21.4142 16.6769C21.0391 17.052 20.5304 17.2627 20 17.2627Z" fill="black"/>
</g>
<defs>
<clipPath id="clip0_947_16665">
<rect width="24" height="24" fill="white" transform="translate(0 0.262695)"/>
</clipPath>
</defs>
</svg>
