<svg width="33" height="32" viewBox="0 0 33 32" fill="none" xmlns="http://www.w3.org/2000/svg">
<path fill-rule="evenodd" clip-rule="evenodd" d="M0.400391 16C0.400391 7.16344 7.56384 0 16.4004 0C25.2369 0 32.4004 7.16344 32.4004 16C32.4004 24.8366 25.2369 32 16.4004 32C7.56384 32 0.400391 24.8366 0.400391 16ZM22.5004 11.5C23.2004 11.4 23.8004 11.3 24.4004 11C24.0004 11.7 23.4004 12.3 22.7004 12.7C22.9004 17.4 19.5004 22.5 13.4004 22.5C11.6004 22.5 9.90039 21.9 8.40039 21C10.1004 21.2 11.9004 20.7 13.1004 19.8C11.6004 19.8 10.4004 18.8 10.0004 17.5C10.5004 17.6 11.0004 17.5 11.5004 17.4C10.0004 17 8.90039 15.6 8.90039 14.1C9.40039 14.3 9.90039 14.5 10.4004 14.5C9.00039 13.5 8.50039 11.6 9.40039 10.1C11.1004 12.1 13.5004 13.4 16.2004 13.5C15.7004 11.5 17.3004 9.5 19.4004 9.5C20.3004 9.5 21.2004 9.9 21.8004 10.5C22.6004 10.3 23.3004 10.1 23.9004 9.7C23.7004 10.5 23.2004 11.1 22.5004 11.5Z" fill="white"/>
</svg>
