<svg width="1920" height="283" viewBox="0 0 1920 283" fill="none" xmlns="http://www.w3.org/2000/svg">
<rect width="1920" height="283" fill="white"/>
<path d="M1405.78 192.696C1312.98 209.96 1223.12 240.904 1130.58 259.672C998.752 286.424 861.472 288.04 729.856 260.296C601.952 233.4 469.328 167.8 342.944 134.472C230.864 104.904 108.496 92.728 -2.86102e-05 129.672V283H1920V239.24C1756.05 177.073 1578.22 160.977 1405.78 192.696Z" fill="#E6F5FC"/>
<g opacity="0.5">
<path d="M1405.78 171.531C1312.98 192.841 1223.12 231.038 1130.58 254.204C998.752 287.226 861.472 289.221 729.856 254.975C601.952 221.775 469.328 140.8 342.944 99.6607C230.864 63.1627 108.496 48.133 -2.86102e-05 93.7357V283H1920V228.984C1756.05 152.247 1578.22 132.378 1405.78 171.531Z" fill="#E6F5FC"/>
</g>
<g opacity="0.3">
<path d="M1405.78 149.896C1312.98 175.342 1223.12 220.952 1130.58 248.615C998.752 288.047 861.472 290.429 729.856 249.535C601.952 209.892 469.328 113.2 342.944 64.0759C230.864 20.4939 108.496 2.54699 -2.86102e-05 57.0009V283H1920V218.5C1756.05 126.869 1578.22 103.143 1405.78 149.896Z" fill="#E6F5FC"/>
</g>
</svg>
