<svg width="1920" height="263" viewBox="0 0 1920 263" fill="none" xmlns="http://www.w3.org/2000/svg">
<g clip-path="url(#clip0_1614_12524)">
<rect width="1920" height="263" fill="white"/>
<path d="M514.224 172.696C607.024 189.96 696.88 220.904 789.424 239.672C921.248 266.424 1058.53 268.04 1190.14 240.296C1318.05 213.4 1450.67 147.8 1577.06 114.472C1689.14 84.904 1811.5 72.728 1920 109.672V263H0V219.24C163.945 157.073 341.781 140.977 514.224 172.696Z" fill="#092F41"/>
<g opacity="0.5">
<path d="M514.224 161.531C607.024 182.841 696.88 221.038 789.424 244.204C921.248 277.226 1058.53 279.221 1190.14 244.975C1318.05 211.775 1450.67 130.8 1577.06 89.6607C1689.14 53.1627 1811.5 38.133 1920 83.7357V273H0V218.984C163.945 142.247 341.781 122.378 514.224 161.531Z" fill="#092F41"/>
</g>
<g opacity="0.3">
<path d="M514.224 149.896C607.024 175.342 696.88 220.952 789.424 248.615C921.248 288.047 1058.53 290.429 1190.14 249.535C1318.05 209.892 1450.67 113.2 1577.06 64.0759C1689.14 20.4939 1811.5 2.54699 1920 57.0009V283H0V218.5C163.945 126.869 341.781 103.143 514.224 149.896Z" fill="#092F41"/>
</g>
</g>
<defs>
<clipPath id="clip0_1614_12524">
<rect width="1920" height="263" fill="white"/>
</clipPath>
</defs>
</svg>
