<svg width="36" height="35" viewBox="0 0 36 35" fill="none" xmlns="http://www.w3.org/2000/svg">
<path d="M7.30225 1.40039H28.2382" stroke="currentColor" stroke-miterlimit="10"/>
<path d="M7.30667 1.40039L2.79297 5.92727" stroke="currentColor" stroke-miterlimit="10"/>
<path d="M28.2402 1.40039L34.0985 5.92727" stroke="currentColor" stroke-miterlimit="10"/>
<path d="M34.1001 5.73828V27.6182" stroke="currentColor" stroke-miterlimit="10"/>
<path d="M34.0999 27.6182L28.5298 32.8995" stroke="currentColor" stroke-miterlimit="10"/>
<path d="M28.6288 32.8994H7.98096" stroke="currentColor" stroke-miterlimit="10"/>
<path d="M7.97877 32.8999L2.69678 27.7129" stroke="currentColor" stroke-miterlimit="10"/>
<path d="M2.79297 5.83301V27.8072" stroke="currentColor" stroke-miterlimit="10"/>
<path d="M2.6001 27.7128L10.6671 22.6201" stroke="currentColor" stroke-miterlimit="10"/>
<path d="M8.17041 32.8057L13.1643 25.0723" stroke="currentColor" stroke-miterlimit="10"/>
<path d="M28.3359 32.8994L23.438 25.166" stroke="currentColor" stroke-miterlimit="10"/>
<path d="M34.1002 27.7129L26.3213 22.4316" stroke="currentColor" stroke-miterlimit="10"/>
<path d="M34.0074 5.92676L26.2285 11.5854" stroke="currentColor" stroke-miterlimit="10"/>
<path d="M28.2407 1.40039L23.6309 9.4167" stroke="currentColor" stroke-miterlimit="10"/>
<path d="M7.30225 1.40039L12.9684 9.32246" stroke="currentColor" stroke-miterlimit="10"/>
<path d="M2.79297 5.92676L10.668 11.6797" stroke="currentColor" stroke-miterlimit="10"/>
<path d="M10.6646 11.6796L12.8734 9.22754" stroke="currentColor" stroke-miterlimit="10"/>
<path d="M10.6672 11.6797L10.4751 22.8083" stroke="currentColor" stroke-miterlimit="10"/>
<path d="M5.29053 7.71875V26.0149" stroke="currentColor" stroke-miterlimit="10"/>
<path d="M5.29053 26.0146L9.61216 30.3528" stroke="currentColor" stroke-miterlimit="10"/>
<path d="M9.61035 30.3535L26.8008 30.4481" stroke="currentColor" stroke-miterlimit="10"/>
<path d="M26.707 30.4477L31.5089 25.9209" stroke="currentColor" stroke-miterlimit="10"/>
<path d="M31.5093 7.62402V25.9202" stroke="currentColor" stroke-miterlimit="10"/>
<path d="M9.03516 4.04102H26.5138" stroke="currentColor" stroke-miterlimit="10"/>
<path d="M26.5112 4.04004L31.5052 7.71812" stroke="currentColor" stroke-miterlimit="10"/>
<path d="M9.22802 3.94629L5.29053 7.90731" stroke="currentColor" stroke-miterlimit="10"/>
<path d="M8.17041 9.88764L11.1475 6.77539" stroke="currentColor" stroke-miterlimit="10"/>
<path d="M11.147 6.77637H24.7841" stroke="currentColor" stroke-miterlimit="10"/>
<path d="M24.7852 6.77637L28.8187 9.8886" stroke="currentColor" stroke-miterlimit="10"/>
<path d="M28.7227 9.60547V23.9406" stroke="currentColor" stroke-miterlimit="10"/>
<path d="M28.72 24.2227L24.9746 27.7122" stroke="currentColor" stroke-miterlimit="10"/>
<path d="M11.436 27.6182L24.9772 27.7127" stroke="currentColor" stroke-miterlimit="10"/>
<path d="M11.6278 27.5236L8.17041 24.2227" stroke="currentColor" stroke-miterlimit="10"/>
<path d="M8.17041 9.8877V24.3172" stroke="currentColor" stroke-miterlimit="10"/>
<path d="M12.9727 9.32227L23.7288 9.41686" stroke="currentColor" stroke-miterlimit="10"/>
<path d="M23.7275 9.41602L26.4165 11.5851" stroke="currentColor" stroke-miterlimit="10"/>
<path d="M26.514 11.4912L26.418 22.4312" stroke="currentColor" stroke-miterlimit="10"/>
<path d="M23.6309 25.0714L26.416 22.4307" stroke="currentColor" stroke-miterlimit="10"/>
<path d="M23.63 25.0723H13.1621" stroke="currentColor" stroke-miterlimit="10"/>
<path d="M13.1641 25.0716L10.4751 22.7139" stroke="currentColor" stroke-miterlimit="10"/>
</svg>
