<svg width="36" height="35" viewBox="0 0 36 35" fill="none" xmlns="http://www.w3.org/2000/svg">
<mask id="mask0_1613_12479" style="mask-type:luminance" maskUnits="userSpaceOnUse" x="0" y="0" width="36" height="35">
<path d="M35.5 0H0.5V35H35.5V0Z" fill="white"/>
</mask>
<g mask="url(#mask0_1613_12479)">
<path d="M31.4038 29.7429L31.7147 23.8647L34.0192 24.5184C33.9146 25.019 33.7853 25.5174 33.624 26.0003C33.3964 26.6522 33.1112 27.2819 32.7718 27.8819C32.3951 28.5582 31.9354 29.1835 31.4038 29.7429ZM25.1769 32.8428L24.47 29.8871L30.665 30.4348C29.9409 31.0467 29.1303 31.545 28.2602 31.913C27.3833 32.2885 26.3938 32.5851 25.1769 32.8428ZM19.176 33.5605L24.0741 30.0035L24.773 32.9289C23.8315 33.1107 22.8441 33.2602 21.758 33.3802C20.9015 33.4803 20.0369 33.534 19.176 33.5605ZM12.9382 30.0049L17.8334 33.5605C16.9707 33.5371 16.1092 33.4769 15.2514 33.3802C14.2419 33.2705 13.237 33.1199 12.2394 32.9289L12.9382 30.0049ZM12.5408 29.8871L11.8361 32.8428C10.6185 32.5851 9.62902 32.2892 8.75068 31.9123C7.88376 31.5452 7.0761 31.0484 6.35467 30.4385L12.5408 29.8871ZM5.29906 23.864L5.61 29.7421C5.07745 29.1826 4.61727 28.5568 4.24054 27.8797C3.90259 27.2811 3.61812 26.6531 3.39053 26.0032C3.22953 25.5142 3.09708 25.0159 2.99386 24.5111L5.29906 23.864ZM5.61 5.26156L5.29906 11.1353L2.9895 10.4801C3.20018 9.46348 3.53728 8.47999 4.00079 7.55907C4.4293 6.72146 4.97091 5.94769 5.61 5.26156ZM11.8347 2.15649L12.5408 5.11285L6.35467 4.56074C7.07651 3.95046 7.88467 3.45342 8.75213 3.08624C9.62611 2.71154 10.6149 2.41635 11.8347 2.15649ZM17.832 1.44095L12.9382 4.99581L12.2408 2.07477C13.2384 1.88288 14.2432 1.73234 15.2529 1.62352C16.1097 1.52676 16.9702 1.46585 17.832 1.44095ZM24.0741 4.99728L19.1789 1.44169C20.0412 1.46679 20.9021 1.5277 21.7595 1.62425C22.8412 1.74204 23.8227 1.88927 24.7723 2.0733L24.0741 4.99728ZM24.47 5.11285L25.1769 2.15649C26.396 2.41414 27.3855 2.71081 28.2624 3.08698C29.1342 3.45358 29.9348 3.95195 30.6606 4.56074L24.47 5.11285ZM31.7147 11.1345L31.4038 5.25714C31.9342 5.81808 32.3962 6.43939 32.7725 7.11885C33.1111 7.71734 33.3973 8.34969 33.6225 8.99677C33.786 9.48262 33.9161 9.98467 34.0214 10.4875L31.7147 11.1345ZM31.8266 23.465L34.5801 18.3318C34.5583 20.2252 34.4595 22.2003 34.1006 24.1106L31.8266 23.465ZM5.18717 23.4724L2.90813 24.1113C2.54996 22.1959 2.45189 20.223 2.43009 18.3326L5.18717 23.4724ZM5.18354 11.5343L2.43009 16.6667C2.45189 14.7777 2.54996 12.8049 2.90813 10.8887L5.18354 11.5343ZM31.8223 11.5276L34.1013 10.8872C34.4595 12.7975 34.5576 14.774 34.5808 16.6674L31.8223 11.5276ZM25.9267 24.9402L31.3021 23.8507L30.9737 30.0498L24.4751 29.472L25.9267 24.9402ZM5.71244 23.8522L11.0857 24.9491L12.5336 29.4712L6.04009 30.0498L5.71244 23.8522ZM11.0828 10.0605L5.71244 11.1478L6.03936 4.94943L12.5343 5.52804L11.0828 10.0605ZM31.3021 11.1485L25.9231 10.0502L24.4751 5.52878L30.9737 4.9509L31.3021 11.1485ZM28.7557 17.5007L31.5302 11.8574L34.5576 17.5L31.5302 23.1426L28.7557 17.5007ZM18.5047 27.4976L23.782 29.7031L18.504 33.5362L13.215 29.6935L18.5047 27.4976ZM8.25157 17.5015L5.47996 23.1433L2.45334 17.5007L5.47996 11.8582L8.25157 17.5015ZM18.5062 7.50018L13.2296 5.29542L18.5062 1.46377L23.7951 5.30646L18.5069 7.50091L18.5062 7.50018ZM19.0721 27.2849L25.4436 25.0956L24.0734 29.3755L19.0721 27.2849ZM17.9446 27.2974L12.9368 29.377L11.5673 25.0963L17.9446 27.2974ZM17.938 7.71366L11.5666 9.9037L12.9368 5.623L17.938 7.71366ZM19.067 7.69967L24.0727 5.62227L25.4436 9.90149L19.067 7.69967ZM28.5501 18.0168L31.2178 23.4444L26.0887 24.4875L28.5501 18.0168ZM10.9186 24.4912L5.79163 23.4451L8.45717 18.016L10.9186 24.4912ZM8.45572 16.9818L5.78945 11.5505L10.9186 10.511L8.45572 16.9818ZM26.0916 10.5073L31.2178 11.5541L28.5501 16.981L26.0916 10.5073ZM25.5976 24.6163L18.5054 27.0522L11.4024 24.6009L8.70127 17.4993L11.4075 10.3859L18.5069 7.94555L25.6078 10.3969L28.3053 17.4993L25.5976 24.6163ZM35 17.4978C34.9927 15.2857 34.923 12.9263 34.4784 10.6502L34.4835 10.6384L34.4631 10.5692C34.3501 9.99056 34.1999 9.41932 34.0134 8.86058C33.7778 8.18671 33.4831 7.53556 33.1329 6.91494C32.6611 6.06457 32.0638 5.29227 31.3617 4.62479V4.61743L31.3108 4.57105C30.4635 3.78226 29.486 3.15038 28.423 2.70418C27.4829 2.30224 26.4345 1.98938 25.1363 1.72069L25.1348 1.71922L25.0716 1.70597L25.0651 1.70449H25.0629C23.9845 1.49114 22.8973 1.32657 21.8045 1.21127C20.7099 1.08286 19.6095 1.01234 18.5076 1H18.5054H18.5004C17.4004 1.01251 16.2918 1.08318 15.2064 1.21127C14.128 1.3265 13.0552 1.48959 11.9909 1.70008L11.988 1.69934L11.9393 1.70523L11.9299 1.70891C10.6047 1.98055 9.54257 2.29635 8.59012 2.70418C7.54395 3.14587 6.59223 3.76055 5.75675 4.52762H5.75239L5.71389 4.56442L5.70808 4.56884C5.70674 4.5702 5.70528 4.57143 5.70372 4.57252L5.70227 4.57399C5.70227 4.57399 5.70227 4.57547 5.70081 4.5762C4.91691 5.30352 4.20276 6.26787 3.63391 7.36914C3.12316 8.38434 2.75582 9.46726 2.5427 10.5861L2.54197 10.5898C2.08791 12.8836 2.01744 15.2474 2.01162 17.4625L2 17.4897L2.0109 17.5206C2.01744 19.7232 2.08718 22.0729 2.5318 24.3557L2.52817 24.3646L2.5456 24.4279C2.54706 24.4316 2.55142 24.4338 2.55287 24.4374C2.66548 25.0139 2.81586 25.5858 3.0004 26.1379C3.23288 26.8056 3.53074 27.4608 3.88092 28.0851C4.3636 28.9555 4.97737 29.7444 5.70009 30.4231H5.70154L5.70444 30.4267C6.55054 31.2156 7.52677 31.8484 8.58867 32.2951C9.51787 32.6926 10.5589 33.0047 11.8776 33.2771L11.8819 33.2823L11.9313 33.2926C11.9342 33.2926 11.9357 33.2955 11.9386 33.2955L11.9633 33.2985C13.0363 33.5106 14.1178 33.6754 15.2049 33.7924C16.2741 33.9164 17.3488 33.9847 18.4248 33.9971L18.4263 33.9985H18.451L18.4531 34H18.5069C19.6087 33.9894 20.7092 33.9201 21.8038 33.7924C22.8959 33.6759 23.9823 33.5103 25.06 33.2962C25.0621 33.2962 25.0636 33.294 25.0665 33.2933C26.4047 33.0195 27.4712 32.7022 28.4215 32.2958C29.4637 31.8572 30.4236 31.2401 31.2592 30.4716H31.2621L31.2825 30.4518L31.313 30.4267C31.3159 30.4238 31.3166 30.4201 31.3195 30.4172C32.0395 29.7401 32.6511 28.9536 33.1322 28.0858C33.4835 27.4637 33.7787 26.8108 34.0141 26.135C34.203 25.5719 34.3541 24.994 34.4653 24.4168C34.4653 24.4161 34.4675 24.4154 34.4675 24.4139C34.923 22.1208 34.9927 19.7364 35 17.5V17.4978Z" fill="currentColor" stroke="currentColor" stroke-width="0.5"/>
</g>
</svg>
