<svg width="36" height="35" viewBox="0 0 36 35" fill="none" xmlns="http://www.w3.org/2000/svg">
<mask id="mask0_1613_12336" style="mask-type:luminance" maskUnits="userSpaceOnUse" x="0" y="0" width="36" height="35">
<path d="M35.5 0H0.5V35H35.5V0Z" fill="white"/>
</mask>
<g mask="url(#mask0_1613_12336)">
<path d="M6.54272 29.8272L10.9659 34.8913L11.0414 34.973L11.1892 35.0002L24.8547 34.9963L29.4887 29.7883C29.5517 29.7354 29.5875 29.6576 29.5875 29.5752V5.43377C29.5898 5.35444 29.5572 5.27744 29.5035 5.22688L25.0313 0.106775L25.0149 0.0865529C24.9706 0.0414417 24.9162 0.0126639 24.8119 0.00021949L11.2265 0.00255283C11.1355 -0.00989165 11.0445 0.0235528 10.9784 0.0943305L6.52016 5.19888C6.52016 5.19888 6.4945 5.22844 6.4525 5.28288C6.40039 5.33188 6.41361 5.38477 6.41361 5.38477L6.41594 29.5316L6.54272 29.8272ZM11.5866 34.4417L12.1552 32.8706H23.8467L24.4153 34.4417H11.5866ZM24.4153 0.559441L23.8467 2.13055H12.1544L11.5858 0.559441H24.4153ZM27.5186 5.96655L24.3608 2.34988L24.9138 0.820775L28.8564 5.33266L27.5186 5.96655ZM27.1694 6.74977V28.2506L25.9358 27.6657V7.33544L27.1694 6.74977ZM12.3566 32.3129L12.8964 30.8196H23.1039L23.6437 32.3129H12.3566ZM23.6445 2.68822L23.1047 4.18155H12.8964L12.3566 2.68822H23.6445ZM13.0986 30.2627L13.6221 28.8153H22.3783L22.9017 30.2627H13.0986ZM22.9017 4.73922L22.3783 6.18666H13.6221L13.0986 4.73922H22.9017ZM13.5528 28.2561L12.3753 26.9074V8.09299L13.5528 6.74355H22.4483L23.6258 8.09299V17.4994V26.9058L22.4483 28.2561H13.5528ZM23.9766 7.64655L22.8924 6.40521L23.4011 5.00133L25.2032 7.06477L23.9766 7.64655ZM10.7972 7.06477L12.5993 5.00133L13.1072 6.40599L12.0229 7.64655L10.7972 7.06477ZM11.8161 8.1661V26.8351L10.6222 27.4005V7.59988L11.8161 8.1661ZM12.0237 27.3546L13.1079 28.596L12.6001 29.9998L10.7979 27.9372L12.0237 27.3546ZM25.2039 27.9364L23.4018 29.9998L22.8932 28.5952L23.9774 27.3538L25.2039 27.9364ZM24.1851 26.8351V8.16533L25.3782 7.5991V27.3997L24.1851 26.8351ZM25.7282 6.8151L23.6188 4.4001L24.1446 2.94955L26.9952 6.21466L25.7282 6.8151ZM9.00594 6.21466L11.8573 2.94955L12.3823 4.40088L10.2722 6.81588L9.00594 6.21466ZM10.0645 7.33544V27.6657L8.83094 28.2498V6.74977L10.0645 7.33544ZM10.2722 28.1853L12.3815 30.6003L11.8573 32.0508L9.00439 28.7857L10.2722 28.1853ZM26.9959 28.7857L24.1438 32.0508L23.6188 30.6003L25.7282 28.1853L26.9959 28.7857ZM7.14472 5.33266L11.0873 0.820775L11.6403 2.3491L8.48094 5.96577L7.14472 5.33266ZM8.2725 6.48533V28.5151L6.97127 29.1326V5.86777L8.2725 6.48533ZM8.48094 29.0346L11.6403 32.6513L11.0873 34.1796L7.14472 29.667L8.48094 29.0346ZM28.8556 29.6677L24.9138 34.1804L24.3608 32.6521L27.5186 29.0362L28.8556 29.6677ZM27.7278 28.5158V6.4861L29.0298 5.86855V29.1334L27.7278 28.5158Z" fill="currentColor"/>
</g>
</svg>
