<svg width="36" height="35" viewBox="0 0 36 35" fill="none" xmlns="http://www.w3.org/2000/svg">
<path fill-rule="evenodd" clip-rule="evenodd" d="M18.3348 3.82567C20.2125 1.33866 26.9721 -0.185637 30.2017 2.54205C33.4313 5.26974 38.088 19.4698 18.3348 33.5093C-1.41828 19.3895 3.31346 5.18951 6.46795 2.54205C9.69754 -0.185637 16.4572 1.33866 18.3348 3.82567Z" stroke="currentColor" stroke-miterlimit="10"/>
<path d="M10.5953 1.09766L3.61035 10.5643" stroke="currentColor" stroke-miterlimit="10"/>
<path d="M18.3351 6.07168L10.5991 1.09766" stroke="currentColor" stroke-miterlimit="10"/>
<path d="M6.46777 2.54199L8.27034 4.30697" stroke="currentColor" stroke-miterlimit="10"/>
<path d="M13.3012 2.86328L11.5737 5.18984" stroke="currentColor" stroke-miterlimit="10"/>
<path d="M3.61426 10.5645L8.64642 17.143" stroke="currentColor" stroke-miterlimit="10"/>
<path d="M5.56641 19.3097L8.64579 17.1436" stroke="currentColor" stroke-miterlimit="10"/>
<path d="M9.09761 25.0057L8.64697 17.1436" stroke="currentColor" stroke-miterlimit="10"/>
<path d="M13.4526 29.5785L15.1801 26.6904" stroke="currentColor" stroke-miterlimit="10"/>
<path d="M18.3347 33.4294L15.1802 26.6904" stroke="currentColor" stroke-miterlimit="10"/>
<path d="M9.09619 25.0059L15.1799 26.6906" stroke="currentColor" stroke-miterlimit="10"/>
<path d="M8.27197 4.30664L9.77411 10.805" stroke="currentColor" stroke-miterlimit="10"/>
<path d="M8.64697 17.1435L9.77358 10.8057" stroke="currentColor" stroke-miterlimit="10"/>
<path d="M11.575 5.18945L9.77246 10.8053" stroke="currentColor" stroke-miterlimit="10"/>
<path d="M8.27197 4.30664L11.5767 5.18913" stroke="currentColor" stroke-miterlimit="10"/>
<path d="M9.77246 10.8057L13.9033 20.5131" stroke="currentColor" stroke-miterlimit="10"/>
<path d="M15.1816 26.6901L13.9048 20.5127" stroke="currentColor" stroke-miterlimit="10"/>
<path d="M8.64697 17.1436L13.9045 20.513" stroke="currentColor" stroke-miterlimit="10"/>
<path d="M15.1802 26.6897L18.3347 23.8818" stroke="currentColor" stroke-miterlimit="10"/>
<path d="M13.9048 20.5127L18.3361 23.8822" stroke="currentColor" stroke-miterlimit="10"/>
<path d="M11.5737 5.18945L18.3333 6.07194" stroke="currentColor" stroke-miterlimit="10"/>
<path d="M18.335 3.8252V6.07154" stroke="currentColor" stroke-miterlimit="10"/>
<path d="M25.9966 1.09766L32.9815 10.4039" stroke="currentColor" stroke-miterlimit="10"/>
<path d="M18.335 6.07168L25.9959 1.09766" stroke="currentColor" stroke-miterlimit="10"/>
<path d="M30.1283 2.54199L28.4009 4.30697" stroke="currentColor" stroke-miterlimit="10"/>
<path d="M23.2905 2.86328L25.0931 5.18984" stroke="currentColor" stroke-miterlimit="10"/>
<path d="M32.9809 10.4043L27.9487 17.1433" stroke="currentColor" stroke-miterlimit="10"/>
<path d="M31.1032 19.3097L27.9487 17.1436" stroke="currentColor" stroke-miterlimit="10"/>
<path d="M27.4966 25.0057L27.9472 17.1436" stroke="currentColor" stroke-miterlimit="10"/>
<path d="M23.143 29.5786L21.4155 26.6904" stroke="currentColor" stroke-miterlimit="10"/>
<path d="M18.335 33.4294L21.4143 26.6904" stroke="currentColor" stroke-miterlimit="10"/>
<path d="M27.4992 25.0059L21.4155 26.6906" stroke="currentColor" stroke-miterlimit="10"/>
<path d="M28.401 4.30664L26.8237 10.805" stroke="currentColor" stroke-miterlimit="10"/>
<path d="M27.9503 17.1435L26.8237 10.8057" stroke="currentColor" stroke-miterlimit="10"/>
<path d="M25.0957 5.18945L26.8232 10.8053" stroke="currentColor" stroke-miterlimit="10"/>
<path d="M28.4004 4.30664L25.0957 5.18913" stroke="currentColor" stroke-miterlimit="10"/>
<path d="M26.8218 10.8057L22.6909 20.5131" stroke="currentColor" stroke-miterlimit="10"/>
<path d="M21.4155 26.6901L22.6924 20.5127" stroke="currentColor" stroke-miterlimit="10"/>
<path d="M27.9484 17.1436L22.6909 20.5131" stroke="currentColor" stroke-miterlimit="10"/>
<path d="M21.4143 26.6897L18.335 23.8818" stroke="currentColor" stroke-miterlimit="10"/>
<path d="M22.6912 20.5127L18.335 23.8822" stroke="currentColor" stroke-miterlimit="10"/>
<path d="M25.0946 5.18945L18.335 6.07194" stroke="currentColor" stroke-miterlimit="10"/>
<path d="M18.335 3.8252V6.07154" stroke="currentColor" stroke-miterlimit="10"/>
</svg>
