<svg width="36" height="35" viewBox="0 0 36 35" fill="none" xmlns="http://www.w3.org/2000/svg">
<mask id="mask0_1613_12330" style="mask-type:luminance" maskUnits="userSpaceOnUse" x="0" y="0" width="36" height="35">
<path d="M35.5 0H0.5V35H35.5V0Z" fill="white"/>
</mask>
<g mask="url(#mask0_1613_12330)">
<path d="M18.0279 34.988L21.7838 31.2477L24.1631 27.687L25.7754 23.7818L26.5851 19.6821L26.5835 15.4035L26.5804 15.2752L25.8096 11.419L24.1708 7.35506L21.7831 3.77418L18.0194 0.00972656C18.0077 -0.0019401 17.9891 -0.0019401 17.9782 0.00972656L14.2791 3.7174L11.8524 7.32706L10.2323 11.237L9.42806 15.2721L9.41406 15.3328L9.41484 19.6347L10.2354 23.8082L11.854 27.708L14.1741 31.18L14.2301 31.2811L17.9704 34.9903C17.986 35.0035 18.0116 35.0035 18.0279 34.988ZM18.2807 29.1663L18.2815 27.0982L19.4824 26.2948L18.2807 29.1663ZM20.9921 31.257L18.2815 33.9738L18.28 30.865L20.9921 31.257ZM18.3974 30.3244L20.2967 25.7877L22.2668 25.2595L21.3498 30.7522L18.3974 30.3244ZM13.0191 25.0285L12.1114 26.8913L11.0031 24.2127L13.0191 25.0285ZM10.7853 18.5707L10.4174 21.9019L9.98573 19.7288L10.7853 18.5707ZM15.3718 25.1242L13.6755 24.6715L13.6988 21.9929L15.3718 25.1242ZM13.6755 10.3534L15.3726 9.8984L13.6988 13.0313L13.6755 10.3534ZM15.0133 3.76484L17.7277 1.04884V4.1584L15.0133 3.76484ZM16.5253 8.72784L17.7277 5.85473V7.92517L16.5253 8.72784ZM17.6118 4.69895L15.7133 9.23573L13.7401 9.76462L14.6563 4.27195L17.6118 4.69895ZM13.1544 20.988L13.1233 24.474L10.7931 23.5321L11.371 18.3L13.1544 20.988ZM13.1552 15.0357V19.9885L11.5117 17.5113L13.1552 15.0357ZM11.371 16.7227L10.7931 11.4905L13.1233 10.5494L13.1544 14.0362L11.371 16.7227ZM13.2672 9.24118L12.4108 7.47718L13.9438 5.18273L13.2672 9.24118ZM13.0191 9.99562L11.0023 10.8092L12.1122 8.12895L13.0191 9.99562ZM9.98573 15.2962L10.4182 13.1254L10.7861 16.4535L9.98573 15.2962ZM10.8444 17.5129L9.96862 18.7807V16.2459L10.8444 17.5129ZM12.4085 27.5423L13.2664 25.7807L13.9431 29.8407L12.4085 27.5423ZM15.7133 25.7869L17.6118 30.3229L14.6571 30.7522L13.7408 25.2588L15.7133 25.7869ZM16.5261 26.2948L17.7285 27.099V29.1679L16.5261 26.2948ZM17.7277 33.9745L15.0133 31.2585L17.727 30.8673L17.7277 33.9745ZM13.7074 14.1887L16.1271 9.65729L18.0046 8.40429L19.8814 9.65729L22.3011 14.1894V20.8348L19.8814 25.3638L18.0038 26.6183L16.1271 25.3638L13.7074 20.8348V14.1887ZM22.9863 9.99484L23.8971 8.12895L25.0062 10.8115L22.9863 9.99484ZM25.224 16.4528L25.5918 13.1262L26.0235 15.2962L25.224 16.4528ZM22.8548 14.0362L22.8813 10.5487L25.2154 11.4913L24.6375 16.7234L22.8548 14.0362ZM24.4967 17.5121L22.8541 19.9878V15.0372L24.4967 17.5121ZM24.6375 18.3008L25.2162 23.5321L22.8836 24.4724L22.8548 20.988L24.6375 18.3008ZM23.5976 7.47873L22.7382 9.24273L22.0631 5.18195L23.5976 7.47873ZM22.3314 24.6692L20.6382 25.1242L22.3088 21.9944L22.3314 24.6692ZM20.6374 9.8984L22.3291 10.3519L22.3096 13.029L20.6374 9.8984ZM20.296 9.23573L18.3966 4.69895L21.3491 4.26962L22.263 9.76306L20.296 9.23573ZM18.2815 4.15762V1.04884L20.9928 3.76251L18.2815 4.15762ZM19.484 8.72706L18.2815 7.9244V5.85473L19.484 8.72706ZM22.7405 25.7791L23.6 27.5423L22.0607 29.843L22.7405 25.7791ZM22.9886 25.0254L25.0062 24.2127L23.8986 26.8913L22.9886 25.0254ZM26.0235 19.728L25.5918 21.8988L25.224 18.5699L26.0235 19.728ZM25.1656 17.5121L26.0422 16.2451V18.7799L25.1656 17.5121Z" fill="currentColor"/>
</g>
</svg>
