<svg width="36" height="35" viewBox="0 0 36 35" fill="none" xmlns="http://www.w3.org/2000/svg">
<path d="M17.9828 33.6004C18.0172 33.6004 18.0172 33.6004 18.0172 33.6004C19.5655 33.6004 21.0106 33.0373 22.3524 32.052H22.3868L22.4212 32.0168C23.6599 31.0666 24.7608 29.7646 25.6554 28.181C25.6898 28.1457 25.6898 28.1106 25.7242 28.0754C26.4811 26.7381 27.066 25.1897 27.5133 23.5006C27.995 21.6706 28.2359 19.6295 28.2359 17.5532C28.2359 15.4417 27.9606 13.4359 27.5133 11.6059C27.1004 9.9167 26.4811 8.36826 25.7242 7.031C25.7242 6.99581 25.6898 6.96061 25.6554 6.92542C24.7608 5.34182 23.6599 4.00454 22.4212 3.08957L22.3868 3.05438H22.3524C21.0106 1.96345 19.5655 1.40039 18.0172 1.40039C18.0172 1.40039 18.0172 1.40039 17.9828 1.40039C17.9828 1.40039 17.9828 1.40039 17.9484 1.40039C16.4001 1.40039 14.9207 1.96345 13.6132 2.94881H13.5788L13.5444 2.984C12.3058 3.93416 11.2048 5.23624 10.3102 6.81985C10.2758 6.85504 10.2758 6.89023 10.2414 6.92542C9.51888 8.26269 8.89956 9.77591 8.48669 11.43C8.48669 11.4651 8.45228 11.5003 8.45228 11.5355C8.03941 13.3654 7.76416 15.4066 7.76416 17.518C7.76416 19.6295 8.03941 21.6354 8.48669 23.5006C8.48669 23.5357 8.48669 23.5709 8.5211 23.6061C8.93397 25.2601 9.55328 26.7733 10.2758 28.1106C10.2758 28.1457 10.3102 28.181 10.3446 28.2162C11.2392 29.7998 12.3402 31.137 13.5788 32.052L13.6132 32.0872H13.6476C14.9551 33.0373 16.4345 33.6004 17.9828 33.6004ZM14.2325 31.6649L15.7464 29.2015L17.4667 32.8614C16.2969 32.791 15.2303 32.3687 14.2325 31.6649ZM9.20922 23.6061L10.8263 22.6911L10.379 26.8085C9.89734 25.8232 9.51888 24.7675 9.20922 23.6061ZM10.379 8.19231L10.8263 12.3097L9.20922 11.3947C9.51888 10.2334 9.89734 9.17766 10.379 8.19231ZM17.4323 2.10422L15.712 5.76411L14.1981 3.30072C15.2303 2.63209 16.2969 2.20979 17.4323 2.10422ZM21.7331 3.33591L20.2192 5.7993L18.5333 2.10422C19.6687 2.20979 20.7353 2.63209 21.7331 3.33591ZM26.7564 11.3947L25.1737 12.3097L25.621 8.19231C26.0682 9.17766 26.4467 10.2334 26.7564 11.3947ZM25.5866 26.8085L25.1393 22.6911L26.7564 23.6061C26.4467 24.7675 26.0682 25.8232 25.5866 26.8085ZM18.5333 32.8966L20.2536 29.2367L21.7675 31.7001C20.7353 32.3687 19.6687 32.791 18.5333 32.8966ZM12.409 18.7849L13.682 23.395L11.5833 21.9522L12.409 18.7849ZM11.5833 13.0839L13.682 11.641L12.409 16.2511L11.5833 13.0839ZM23.5566 16.2511L22.2836 11.6059L24.3823 13.0839L23.5566 16.2511ZM24.3823 21.9169L22.2836 23.3598L23.5566 18.7497L24.3823 21.9169ZM14.5422 23.9932L12.7531 17.518L14.5422 11.0428L17.9828 8.15712L21.4235 11.0428L23.2125 17.518L21.4235 23.9932L17.9828 26.8789L14.5422 23.9932ZM18.6021 27.266L21.0106 25.2601L20.0128 28.0402L18.6021 27.266ZM23.9007 17.518L24.8985 13.7173L27.4789 17.518L24.8985 21.3187L23.9007 17.518ZM18.6021 7.73482L20.0128 6.96061L21.0106 9.74072L18.6021 7.73482ZM19.772 6.32717L17.9828 7.27734L16.2281 6.32717L18.0172 2.52651L19.772 6.32717ZM17.3979 7.73482L14.9895 9.74072L15.9872 6.96061L17.3979 7.73482ZM12.0649 17.518L11.0672 21.2835L8.48669 17.518L11.0672 13.7173L12.0649 17.518ZM17.3979 27.266L15.9872 28.0402L14.9895 25.2601L17.3979 27.266ZM16.2281 28.6737L18.0172 27.7235L19.8064 28.6737L18.0172 32.4743L16.2281 28.6737ZM21.9739 24.4155L24.4856 22.656L25.0017 27.6179L20.6665 28.0754L21.9739 24.4155ZM25.2425 21.9522L27.5133 18.609C27.4445 20.1222 27.2381 21.565 26.9285 22.9023L25.2425 21.9522ZM25.2425 13.0487L26.9285 12.0985C27.2381 13.4359 27.4445 14.8787 27.5133 16.3919L25.2425 13.0487ZM24.4856 12.3449L21.9739 10.5853L20.6665 6.89023L25.036 7.38291L24.4856 12.3449ZM13.9917 10.5853L11.48 12.3449L10.9639 7.38291L15.2991 6.92542L13.9917 10.5853ZM10.7231 13.0487L8.45228 16.3919C8.5211 14.8787 8.72753 13.4359 9.03719 12.0985L10.7231 13.0487ZM10.7231 21.9522L9.03719 22.9023C8.72753 21.565 8.5211 20.087 8.45228 18.609L10.7231 21.9522ZM11.48 22.6911L13.9917 24.4507L15.2991 28.1457L10.9639 27.6531L11.48 22.6911ZM22.2836 31.2778L20.7697 28.8144L24.7608 28.3921C24.0383 29.5534 23.2125 30.5036 22.2836 31.2778ZM24.7608 6.64389L20.7697 6.2216L22.2836 3.75821C23.2125 4.49722 24.0383 5.48258 24.7608 6.64389ZM13.682 3.72301L15.1959 6.18641L11.2048 6.64389C11.9273 5.48258 12.7875 4.49722 13.682 3.72301ZM11.2048 28.3569L15.1959 28.7792L13.682 31.2426C12.7875 30.5036 11.9273 29.5534 11.2048 28.3569Z" fill="currentColor"/>
</svg>
