<svg width="36" height="35" viewBox="0 0 36 35" fill="none" xmlns="http://www.w3.org/2000/svg">
<mask id="mask0_1613_12389" style="mask-type:luminance" maskUnits="userSpaceOnUse" x="0" y="0" width="36" height="35">
<path d="M35.5 0H0.5V35H35.5V0Z" fill="white"/>
</mask>
<g mask="url(#mask0_1613_12389)">
<path d="M35.4938 0.378199C35.5202 0.214865 35.4206 0.0593099 35.2635 0.0157543L0.742648 0.000976562L0.550537 0.0336432V0.154976C0.508537 0.218754 0.491425 0.292643 0.503092 0.349421L0.506203 34.6222C0.497648 34.6727 0.500759 34.7233 0.513981 34.7645C0.523314 34.7972 0.538092 34.8283 0.558314 34.8602L0.59487 34.9029C0.636092 34.9449 0.687425 34.9745 0.746537 34.99L35.1935 34.9978L35.213 34.9955C35.3895 34.9753 35.5171 34.8135 35.4984 34.6572L35.4938 0.378199ZM1.14865 33.506V1.49742L3.52787 5.47964V29.5238L1.14865 33.506ZM7.45798 17.497L4.17265 27.5817V7.41942L7.45798 17.497ZM28.5389 17.497L31.8234 7.42331V27.5778L28.5389 17.497ZM31.5706 28.8876L27.3621 26.3482L28.3343 18.9577L31.5706 28.8876ZM28.3335 16.0403L27.3613 8.65453L31.5699 6.11508L28.3335 16.0403ZM7.92309 3.67519H28.0745L17.9945 6.96053L7.92309 3.67519ZM18 7.62708L26.7243 8.77586L27.8731 17.4978L26.7243 26.2284L17.9938 27.3779L9.27254 26.2268L8.12454 17.4978L9.27176 8.77586L18 7.62708ZM17.9945 28.0414L28.0738 31.3267H7.92309L17.9945 28.0414ZM16.5346 27.8368L6.61409 31.0732L9.15198 26.8646L16.5346 27.8368ZM19.456 27.8376L26.8441 26.8646L29.3851 31.0747L19.456 27.8376ZM19.4498 7.16664L29.3859 3.92797L26.8441 8.13964L19.4498 7.16664ZM16.5409 7.16664L9.15276 8.13964L6.61254 3.92797L16.5409 7.16664ZM7.66409 18.953L8.63709 26.3482L4.4262 28.8884L7.66409 18.953ZM4.4262 6.11508L8.63709 8.65453L7.66409 16.0434L4.4262 6.11508ZM8.03354 27.4658L5.65354 31.4146L1.76231 33.7386L4.08631 29.8466L8.03354 27.4658ZM5.97709 31.973H30.0205L34.0012 34.3515H1.9972L5.97709 31.973ZM31.9113 29.8466L34.2345 33.737L30.3449 31.413L27.9641 27.4666L31.9113 29.8466ZM31.9113 5.15453L27.9649 7.53531L30.3441 3.58886L34.2384 1.26253L31.9113 5.15453ZM30.019 3.02964H5.97787L1.99565 0.649643H34.002L30.019 3.02964ZM4.08709 5.15608L1.76154 1.26331L5.6512 3.58731L8.03276 7.53608L4.08709 5.15608ZM32.4713 29.5238V5.48042L34.849 1.50053V33.5037L32.4713 29.5238Z" fill="currentColor"/>
</g>
</svg>
