<svg width="36" height="35" viewBox="0 0 36 35" fill="none" xmlns="http://www.w3.org/2000/svg">
<path d="M7.69092 1.40039H27.2308" stroke="currentColor" stroke-miterlimit="10"/>
<path d="M7.69223 1.40039L3.47949 6.02789" stroke="currentColor" stroke-miterlimit="10"/>
<path d="M27.2314 1.40039L32.699 6.02789" stroke="currentColor" stroke-miterlimit="10"/>
<path d="M32.6997 5.83496V28.2011" stroke="currentColor" stroke-miterlimit="10"/>
<path d="M32.6997 28.2012L27.501 33.6" stroke="currentColor" stroke-miterlimit="10"/>
<path d="M27.5909 33.5996H8.31982" stroke="currentColor" stroke-miterlimit="10"/>
<path d="M8.32091 33.6002L3.39111 28.2979" stroke="currentColor" stroke-miterlimit="10"/>
<path d="M3.47949 5.93066V28.3932" stroke="currentColor" stroke-miterlimit="10"/>
<path d="M3.2998 28.2978L10.829 23.0918" stroke="currentColor" stroke-miterlimit="10"/>
<path d="M8.49854 33.503L13.1594 25.5977" stroke="currentColor" stroke-miterlimit="10"/>
<path d="M27.3218 33.5996L22.7505 25.6943" stroke="currentColor" stroke-miterlimit="10"/>
<path d="M32.6997 28.2971L25.4395 22.8984" stroke="currentColor" stroke-miterlimit="10"/>
<path d="M32.6113 6.02734L25.3511 11.8117" stroke="currentColor" stroke-miterlimit="10"/>
<path d="M27.2296 1.40039L22.9272 9.59491" stroke="currentColor" stroke-miterlimit="10"/>
<path d="M7.69092 1.40039L12.9792 9.4985" stroke="currentColor" stroke-miterlimit="10"/>
<path d="M3.47949 6.02734L10.8294 11.9081" stroke="currentColor" stroke-miterlimit="10"/>
<path d="M10.8281 11.9079L12.8897 9.40137" stroke="currentColor" stroke-miterlimit="10"/>
<path d="M10.8292 11.9082L10.6499 23.2841" stroke="currentColor" stroke-miterlimit="10"/>
<path d="M5.80908 7.85938V26.5621" stroke="currentColor" stroke-miterlimit="10"/>
<path d="M5.80908 26.5615L9.84255 30.9962" stroke="currentColor" stroke-miterlimit="10"/>
<path d="M9.84229 30.9971L25.8865 31.0935" stroke="currentColor" stroke-miterlimit="10"/>
<path d="M25.7988 31.0933L30.2805 26.4658" stroke="currentColor" stroke-miterlimit="10"/>
<path d="M30.2803 7.7627V26.4654" stroke="currentColor" stroke-miterlimit="10"/>
<path d="M9.30566 4.09961H25.6188" stroke="currentColor" stroke-miterlimit="10"/>
<path d="M25.6167 4.09961L30.2776 7.85945" stroke="currentColor" stroke-miterlimit="10"/>
<path d="M9.48402 4.00293L5.80908 8.05198" stroke="currentColor" stroke-miterlimit="10"/>
<path d="M8.49854 10.0769L11.2771 6.89551" stroke="currentColor" stroke-miterlimit="10"/>
<path d="M11.2759 6.89551H24.0037" stroke="currentColor" stroke-miterlimit="10"/>
<path d="M24.0059 6.89551L27.7704 10.0769" stroke="currentColor" stroke-miterlimit="10"/>
<path d="M27.6792 9.78711V24.4409" stroke="currentColor" stroke-miterlimit="10"/>
<path d="M27.6798 24.7305L24.1841 28.2976" stroke="currentColor" stroke-miterlimit="10"/>
<path d="M11.5459 28.2012L24.1841 28.2976" stroke="currentColor" stroke-miterlimit="10"/>
<path d="M11.7253 28.1048L8.49854 24.7305" stroke="currentColor" stroke-miterlimit="10"/>
<path d="M8.49854 10.0762V24.8264" stroke="currentColor" stroke-miterlimit="10"/>
<path d="M12.9795 9.49805L23.0184 9.59445" stroke="currentColor" stroke-miterlimit="10"/>
<path d="M23.0186 9.59473L25.5283 11.812" stroke="currentColor" stroke-miterlimit="10"/>
<path d="M25.6178 11.7158L25.5278 22.8989" stroke="currentColor" stroke-miterlimit="10"/>
<path d="M22.9272 25.5978L25.5266 22.8984" stroke="currentColor" stroke-miterlimit="10"/>
<path d="M22.9291 25.5977H13.1592" stroke="currentColor" stroke-miterlimit="10"/>
<path d="M13.1596 25.5977L10.6499 23.1875" stroke="currentColor" stroke-miterlimit="10"/>
</svg>
