<svg width="24" height="24" viewBox="0 0 24 24" fill="none" xmlns="http://www.w3.org/2000/svg">
<path d="M4.47168 7.03898L7.15034 8.58544L11.4673 6.09304V3L4.47168 7.03898Z" fill="#04AFFF"/>
<path d="M3.94043 7.95996V16.0378L6.61905 14.4913V9.50646L3.94043 7.95996Z" fill="#04AFFF"/>
<path d="M12.5332 3V6.09304L16.8502 8.58544L19.5289 7.03898L12.5332 3Z" fill="#04AFFF"/>
<path d="M11.9996 7.01367L7.68262 9.50608V14.491L11.9996 16.9834L16.3166 14.491V9.50608L11.9996 7.01367Z" fill="#04AFFF"/>
<path d="M17.3818 9.50646V14.4913L20.0605 16.0378V7.95996L17.3818 9.50646Z" fill="#04AFFF"/>
<path d="M7.15034 15.415L4.47168 16.9615L11.4673 21.0005V17.9075L7.15034 15.415Z" fill="#04AFFF"/>
<path d="M16.8502 15.415L12.5332 17.9075V21.0005L19.5289 16.9615L16.8502 15.415Z" fill="#04AFFF"/>
</svg>
