<svg width="24" height="24" viewBox="0 0 24 24" fill="none" xmlns="http://www.w3.org/2000/svg">
<path d="M7.75041 6.86847C7.31462 6.86847 6.96094 6.51479 6.96094 6.079V3.31584C6.96094 2.88005 7.31462 2.52637 7.75041 2.52637C8.1862 2.52637 8.53988 2.88005 8.53988 3.31584V6.079C8.53988 6.51479 8.1862 6.86847 7.75041 6.86847Z" fill="#04AFFF"/>
<path d="M11.5004 6.86847C11.0646 6.86847 10.7109 6.51479 10.7109 6.079V3.31584C10.7109 2.88005 11.0646 2.52637 11.5004 2.52637C11.9362 2.52637 12.2899 2.88005 12.2899 3.31584V6.079C12.2899 6.51479 11.9362 6.86847 11.5004 6.86847Z" fill="#04AFFF"/>
<path d="M15.2504 6.86847C14.8146 6.86847 14.4609 6.51479 14.4609 6.079V3.31584C14.4609 2.88005 14.8146 2.52637 15.2504 2.52637C15.6862 2.52637 16.0399 2.88005 16.0399 3.31584V6.079C16.0399 6.51479 15.6862 6.86847 15.2504 6.86847Z" fill="#04AFFF"/>
<path d="M16.8289 4.30273H6.17105C4.97342 4.30273 4 5.27616 4 6.47379V19.3027C4 20.5004 4.97342 21.4738 6.17105 21.4738H16.8289C18.0266 21.4738 19 20.5004 19 19.3027V6.47379C19 5.27616 18.0266 4.30273 16.8289 4.30273ZM7.94737 8.84221H11.8947C12.3305 8.84221 12.6842 9.19589 12.6842 9.63168C12.6842 10.0675 12.3305 10.4212 11.8947 10.4212H7.94737C7.51158 10.4212 7.15789 10.0675 7.15789 9.63168C7.15789 9.19589 7.51158 8.84221 7.94737 8.84221ZM15.8421 16.7369H7.94737C7.51158 16.7369 7.15789 16.3833 7.15789 15.9475C7.15789 15.5117 7.51158 15.158 7.94737 15.158H15.8421C16.2779 15.158 16.6316 15.5117 16.6316 15.9475C16.6316 16.3833 16.2779 16.7369 15.8421 16.7369ZM15.8421 13.5791H7.94737C7.51158 13.5791 7.15789 13.2254 7.15789 12.7896C7.15789 12.3538 7.51158 12.0001 7.94737 12.0001H15.8421C16.2779 12.0001 16.6316 12.3538 16.6316 12.7896C16.6316 13.2254 16.2779 13.5791 15.8421 13.5791Z" fill="#04AFFF"/>
</svg>
